<?xml version="1.0" encoding="UTF-8"?>
<svg id="Calque_1" data-name="Calque 1" xmlns="http://www.w3.org/2000/svg" xmlns:xlink="http://www.w3.org/1999/xlink" viewBox="0 0 2458 765">
  <defs>
    <style>
      .cls-1 {
        fill: #fff;
      }

      .cls-2 {
        fill: url(#Dégradé_sans_nom_4);
      }

      .cls-2, .cls-3, .cls-4, .cls-5 {
        stroke: #003bce;
        stroke-miterlimit: 10;
      }

      .cls-3 {
        fill: url(#Dégradé_sans_nom);
      }

      .cls-4 {
        fill: url(#Dégradé_sans_nom_3);
      }

      .cls-5 {
        fill: url(#Dégradé_sans_nom_2);
      }
    </style>
    <linearGradient id="Dégradé_sans_nom" data-name="Dégradé sans nom" x1="155.74" y1="745.79" x2="155.74" y2="20.38" gradientTransform="translate(0 765.89) scale(1 -1)" gradientUnits="userSpaceOnUse">
      <stop offset="0" stop-color="#32b7b6"/>
      <stop offset=".51" stop-color="#3581a5"/>
      <stop offset="1" stop-color="#425389"/>
    </linearGradient>
    <linearGradient id="Dégradé_sans_nom_2" data-name="Dégradé sans nom 2" x1="407.51" y1="745.81" x2="407.51" y2="20.58" gradientTransform="translate(0 765.89) scale(1 -1)" gradientUnits="userSpaceOnUse">
      <stop offset="0" stop-color="#32b7b6"/>
      <stop offset=".51" stop-color="#3581a5"/>
      <stop offset="1" stop-color="#425389"/>
    </linearGradient>
    <linearGradient id="Dégradé_sans_nom_3" data-name="Dégradé sans nom 3" x1="2013.97" y1="519.89" x2="2013.97" y2="464.89" gradientTransform="translate(0 765.89) scale(1 -1)" gradientUnits="userSpaceOnUse">
      <stop offset="0" stop-color="#32b7b6"/>
      <stop offset=".51" stop-color="#3581a5"/>
      <stop offset="1" stop-color="#425389"/>
    </linearGradient>
    <linearGradient id="Dégradé_sans_nom_4" data-name="Dégradé sans nom 4" x1="1491.5" y1="430.89" x2="1491.5" y2="39.89" gradientTransform="translate(0 765.89) scale(1 -1)" gradientUnits="userSpaceOnUse">
      <stop offset="0" stop-color="#32b7b6"/>
      <stop offset=".51" stop-color="#3581a5"/>
      <stop offset="1" stop-color="#425389"/>
    </linearGradient>
  </defs>
  <g>
    <path class="cls-1" d="m1306,456.5v281.5h56V175h-56v281.5Z"/>
    <path class="cls-1" d="m1751,352.2c-8,1.3-20,3.8-23.5,4.9-11.7,3.6-20.1,6.7-27.2,10.1-31.6,15-54.8,41.5-62.9,71.7-4,14.9-3.7,36.8.7,50.3,11.8,35.9,45.5,58.7,109.9,74.2,20.8,5,31.5,7.3,52.5,11.1,37,6.9,57.2,19.8,64,40.8,5.4,17-4.1,39.4-22.2,51.8-5.5,3.8-18.6,10-27.3,12.9-21.7,7.3-51.1,7.9-75.5,1.5-23.4-6.1-47.5-23-60.2-42.2-2.1-3.2-4.5-5.9-5.4-6.1-.8-.1-7.1,2.8-14,6.6-6.8,3.8-15.5,8.6-19.4,10.7-10,5.4-14.5,8.4-14.5,9.5,0,.5,3.2,5.8,7.2,11.7,9.5,14.4,27.5,32.4,41.3,41.5,13.5,8.9,21.9,13.1,38.5,19.3,8.8,3.3,27.7,7.6,38.3,8.7,5.9.6,10.7,1.5,10.7,1.9,0,.5,5.9.9,13,.9s13-.4,13-.9,3.5-1.2,7.8-1.6c36.5-3.1,73.4-19.5,95.4-42.3,13.7-14.2,22.4-28.9,27.2-45.7,10.1-35.5.8-70.4-25.7-96.4-17.6-17.4-41.7-29.7-68.2-35.1-3.3-.6-8.9-1.8-12.5-2.5-8.6-1.7-15.4-3.1-27.5-5.5-26.4-5.2-53.2-13.4-69.2-21.1-12.2-5.9-21.1-13.8-23.1-20.5-6.3-21.5,9.2-44.8,37.8-56.7,21.6-9,52.5-11.1,77-5.1,19.3,4.8,40.9,17.6,50.1,29.8,1.9,2.5,4,4.6,4.6,4.6.7,0,3.7-1.6,6.7-3.5,4.8-3,15.4-9.3,26.6-15.7,10.6-6.1,14-8.4,14-9.6,0-5.5-21.7-27.5-37.5-38.2-6.5-4.4-24.4-13.8-29-15.3-1.1-.3-3.8-1.3-6-2.2-7.4-2.8-22.3-6.6-32.1-8-10.9-1.7-44.3-1.9-53.4-.3Z"/>
    <path class="cls-1" d="m2226,352.2c-8,1.3-20,3.8-23.5,4.9-11.7,3.6-20.1,6.7-27.2,10.1-31.6,15-54.8,41.5-62.9,71.7-4,14.9-3.7,36.8.7,50.3,11.8,35.9,45.5,58.7,109.9,74.2,20.8,5,31.5,7.3,52.5,11.1,37,6.9,57.2,19.8,64,40.8,5.4,17-4.1,39.4-22.2,51.8-5.5,3.8-18.6,10-27.3,12.9-21.7,7.3-51.1,7.9-75.5,1.5-23.4-6.1-47.5-23-60.2-42.2-2.1-3.2-4.5-5.9-5.4-6.1-.8-.1-7.1,2.8-14,6.6-6.8,3.8-15.5,8.6-19.4,10.7-10,5.4-14.5,8.4-14.5,9.5,0,.5,3.2,5.8,7.2,11.7,9.5,14.4,27.5,32.4,41.3,41.5,13.5,8.9,21.9,13.1,38.5,19.3,8.8,3.3,27.7,7.6,38.3,8.7,5.9.6,10.7,1.5,10.7,1.9,0,.5,5.9.9,13,.9s13-.4,13-.9,3.5-1.2,7.8-1.6c21.5-1.8,47.5-9.7,65.7-19.9,17.3-9.6,32.8-23.3,42.2-37.2,8.6-12.6,17.3-34.1,17.3-42.5,0-1.6.5-3.1,1-3.4,1.2-.8,1.4-24.2.1-24.9-.4-.3-1.1-2.7-1.4-5.3-2-16.3-13.1-36.6-28-51.2-17.6-17.4-41.7-29.7-68.2-35.1-3.3-.6-8.9-1.8-12.5-2.5-8.6-1.7-15.4-3.1-27.5-5.5-26.4-5.2-53.2-13.4-69.2-21.1-12.2-5.9-21.1-13.8-23.1-20.5-6.3-21.5,9.2-44.8,37.8-56.7,21.6-9,52.5-11.1,77-5.1,19.3,4.8,40.9,17.6,50.1,29.8,1.9,2.5,4,4.6,4.6,4.6.7,0,3.7-1.6,6.7-3.5,4.8-3,15.4-9.3,26.6-15.7,10.6-6.1,14-8.4,14-9.6,0-5.5-21.7-27.5-37.5-38.2-6.5-4.4-24.4-13.8-29-15.3-1.1-.3-3.8-1.3-6-2.2-7.4-2.8-22.3-6.6-32.1-8-10.9-1.7-44.3-1.9-53.4-.3Z"/>
    <path class="cls-1" d="m666.5,355.1c-6,1-12.6,2.2-14.5,2.8-11.9,3.1-15.4,4.2-23.7,7.4-50.4,19.5-92.7,64.5-110.8,117.9-7.1,21-8.7,31.4-9.2,58.8-.5,25.5,0,32.9,3.9,50.5,6.2,28.6,22.7,61.4,43,85.5,16.5,19.4,46.1,41,69.3,50.4,13.2,5.3,12.1,5,24,8.1,17.4,4.5,22.1,5,45.5,5,27.1-.1,40.9-2.2,61.4-9.5,23.5-8.4,46.1-25.3,62.6-47l6.5-8.5.3,29.9c.1,20.1.6,30.4,1.3,31.3.9,1,6.6,1.3,26.8,1.3,14.1,0,26.2-.4,26.9-.8,1-.7,1.2-39.6,1-191.3l-.3-190.4-26.9-.3c-20.9-.2-27.1.1-27.8,1-.4.7-.8,14.8-.8,31.3l-.1,30-2.7-3.1c-1.5-1.7-5.5-6.4-9-10.5-13.6-15.9-29-28-47-36.9-14.2-7.1-22.5-9.7-40.7-13-14.8-2.7-43-2.6-59,.1Zm59.5,57.8c15.7,4,24.3,7.9,36.9,16.3,26.9,18.2,49.3,53.4,56.6,89.1,2.3,11.3,3,30.2,1.6,44.2-2.8,28.6-12.5,53.4-30.1,77-23.9,31.9-58.7,47-103.9,45.2-33.7-1.4-59.5-13.5-84.8-40-24.9-26.2-36.6-54-38-90.7-1.2-32.7,5.8-58.7,23-84.7,21.1-31.9,46.8-49.5,82.7-56.7,10.9-2.2,14.7-2.4,32.5-2,11.6.2,18.1.9,23.5,2.3Z"/>
    <path class="cls-1" d="m1072,355.1c-19.4,2.9-36.4,8.2-52.3,16.1-39.6,19.9-68.9,49.6-88.7,89.8-7.6,15.6-12,28.8-16.7,50.5-2.6,11.9-2.5,60.1.1,73,11,54.6,41,99.7,85.7,128.8,19.8,13,39.2,20.8,63.9,25.9,14.2,3,48.6,3.2,62.5.4,49.5-9.8,88.2-34,117.7-73.4,3.2-4.3,5.8-8.4,5.8-9.3,0-1-6.3-5.6-16.2-12-8.9-5.7-19.1-12.3-22.7-14.7-3.5-2.3-6.7-4.2-7.1-4.2-.5,0-3.1,3.1-5.9,6.9-6.2,8.3-22.2,23.9-31.2,30.3-16.3,11.6-32.9,18.2-53.9,21.4-15.6,2.3-30.7,1.4-47.2-3-29.3-7.7-55.9-27.5-74.4-55.3-28.1-42.1-31.3-96.8-8.3-142.7,7.4-14.7,14.1-23.9,25.9-35.6,18.9-18.9,39.6-30.6,63-35.7,10.2-2.2,37.6-2.2,48,0,30.6,6.6,60,25.3,77.6,49.2,2.7,3.6,5.4,6.5,6.2,6.5,2.1,0,45.2-29.2,45.2-30.6,0-3.8-25.4-32.6-36.9-41.8-28.6-23-58.3-36.1-91.4-40.5-9.1-1.3-40.6-1.3-48.7,0Z"/>
    <path class="cls-1" d="m1984,547.9v189.9l2.3.6c2.9.8,50.1.8,52.1,0,1.5-.6,1.6-18.3,1.6-190.5v-189.9h-56v189.9Z"/>
  </g>
  <g>
    <path class="cls-3" d="m60.3,21.1c-1,1-1.3,7.7-1.3,26.5,0,13.9.3,25.9.6,26.8.5,1.3,2.7,1.6,13.8,1.6,38.1,0,62.1,12.2,70.3,35.6,1.6,4.5,1.8,14.4,2.3,112.4.4,73,1,108.9,1.7,112,3.2,12.9,9.6,25.3,19.6,37.6,3.7,4.6,6.7,8.6,6.7,8.9s-2.7,3.7-5.9,7.6c-7.4,8.8-13.3,18.4-16.6,27.3-5.5,14.8-5.5,13.6-5.5,123.2,0,63.1-.4,103.2-1,106.5-2.4,13.2-12.1,26.3-23.6,31.8-14.5,7-25,9.1-44.9,9.1-10.4,0-15.5.4-16.3,1.2-1.4,1.4-1.7,51.4-.3,53.7,2.6,4,30.9,3.3,53.8-1.4,16.1-3.3,34.5-11.1,45.6-19.4,25.7-19,38.9-42.4,42.7-75.6.6-5.5,1-47.3,1-107.8v-98.8l2.6-5.2c1.5-2.9,5.7-8.2,9.4-11.8,5.5-5.4,8.9-7.7,19.1-12.7,6.8-3.3,13.8-6.4,15.4-6.9l3-1v-39.6l-8-3.3c-20.5-8.6-31.4-16.7-38.2-28.2l-2.8-4.7-.5-105c-.6-111.3-.6-109.6-5.6-126.5-5.2-17.3-12.9-29.5-27.1-43.1-15.6-14.9-35-24.5-59.8-29.5-10.8-2.2-48.4-3.2-50.2-1.3Z"/>
    <path class="cls-5" d="m465,20.6c-21.5,3.1-31.5,6-45.5,13.1-15.1,7.6-27,17.1-36.9,29.5-7.1,8.9-11.3,16.9-15.6,29.7-5.9,17.6-6,19.2-6,129.9v100.9l-3.1,6.1c-4.8,9.6-14.6,18.1-29.5,25.3-6.6,3.3-12.8,5.9-13.6,5.9-3.5,0-3.8,2.4-3.6,22l.3,19.2,10,4.2c11,4.7,16.2,7.5,21.5,11.4,5.8,4.3,12.8,12.2,15.2,17.1l2.3,4.6.6,106c.4,64.9,1,107.7,1.6,110.5,3.7,16.6,9.1,30.5,15.4,39.6,5.1,7.5,16.7,19.2,25.4,25.7,21.3,16,51.4,24.4,85.3,24,7.9-.1,12.9-.6,13.8-1.4,1.2-1,1.4-5.6,1.2-28.3l-.3-27.1-18.5-.6c-14.8-.4-20.1-1-26.5-2.8-21.6-6-33.4-16.2-38.6-33.3-1.8-6-1.9-10.9-1.9-107.3,0-111-.1-111.9-6-127.5-3.4-8.8-8.7-17.4-16.6-27.1-3-3.6-5.4-7.3-5.4-8.1s1.4-2.7,3.1-4.4c6.9-6.5,16-21.3,19.9-32.2,4.9-14,5-16.6,5-124.7s-.1-105,5.1-116c3-6.4,12-15.3,18.9-18.7,12.4-6.1,28.7-9.8,44.1-9.8,7,0,8.8-.3,9.3-1.6.3-.9.6-12.7.6-26.4s-.3-25.5-.6-26.4c-.5-1.4-2.7-1.6-14.3-1.5-7.5.1-14.7.3-16.1.5Z"/>
    <path class="cls-4" d="m1985.7,246.7c-1.3,1.2-.8,51.8.5,53.1.9.9,8.7,1.2,29,1.2h27.8v-55h-28.3c-15.6,0-28.7.3-29,.7Z"/>
    <path class="cls-2" d="m1568.5,343.2c-5.5,4.5-25.1,20.6-43.5,35.7-31.5,25.8-45.2,37.1-106,86.7-13.5,11-30.2,24.7-37.2,30.4l-12.8,10.5v48l3.8,3.1c54,44.5,72.3,59.5,189.7,155.3,8.8,7.2,16.3,13.1,16.6,13.1.4,0,5.3-5.7,11-12.6,5.7-7,13.4-16.3,17.1-20.8,3.7-4.4,6.8-8.6,6.8-9.3s-8.4-8.1-18.7-16.6c-10.4-8.4-31.4-25.7-46.8-38.3-42.2-34.6-92.5-75.7-106.3-86.8-6.8-5.5-12.2-10.5-12-11.1.3-1.2,33.2-28.6,77.3-64.5,26.1-21.2,32.7-26.6,41.9-34.1,17.3-14.1,38.8-31.5,51.3-41.7,7.3-5.9,13.3-11.3,13.3-12,0-.8-5.1-7.5-11.2-15.1-6.2-7.5-13.9-16.9-17.2-20.9-3.2-3.9-6.1-7.2-6.5-7.2-.3,0-5.1,3.7-10.6,8.2Z"/>
  </g>
</svg>