<?xml version="1.0" standalone="no"?>
<!DOCTYPE svg PUBLIC "-//W3C//DTD SVG 20010904//EN"
 "http://www.w3.org/TR/2001/REC-SVG-20010904/DTD/svg10.dtd">
<svg version="1.0" xmlns="http://www.w3.org/2000/svg"
 width="200.000000pt" height="200.000000pt" viewBox="0 0 200.000000 200.000000"
 preserveAspectRatio="xMidYMid meet">

<g transform="translate(0.000000,200.000000) scale(0.100000,-0.100000)"
fill="#000000" stroke="none">
<path d="M317 1223 c-2 -5 -5 -39 -6 -78 -2 -57 -6 -73 -21 -84 -25 -17 -25
-33 0 -49 18 -11 20 -23 20 -108 0 -92 1 -97 29 -125 35 -35 81 -40 81 -9 0
12 -7 20 -17 20 -41 1 -48 16 -55 127 -9 128 -8 119 -2 213 3 53 2 71 -5 60
-9 -13 -11 -12 -12 5 -1 11 -1 23 0 28 0 4 -1 7 -3 7 -3 0 -7 -3 -9 -7z"/>
<path d="M145 1135 c5 -103 5 -93 -3 -218 -7 -111 -14 -126 -54 -127 -11 0
-18 -8 -18 -20 0 -31 46 -26 81 9 28 28 29 33 29 125 0 85 2 97 20 108 11 7
20 18 20 25 0 7 -9 17 -20 23 -17 9 -20 21 -21 83 0 60 -2 68 -11 47 l-11 -25
-8 25 c-5 15 -6 -6 -4 -55z"/>
<path d="M1070 980 c0 -213 1 -220 20 -220 19 0 20 7 20 220 0 213 -1 220 -20
220 -19 0 -20 -7 -20 -220z"/>
<path d="M1610 1125 c0 -8 9 -15 20 -15 11 0 20 7 20 15 0 8 -9 15 -20 15 -11
0 -20 -7 -20 -15z"/>
<path d="M1197 1003 c-57 -48 -77 -71 -75 -86 2 -11 38 -50 81 -85 70 -58 80
-63 93 -50 14 14 7 22 -60 74 -41 32 -75 61 -75 64 0 3 34 32 74 64 59 47 72
62 64 73 -6 7 -14 13 -18 13 -3 -1 -41 -30 -84 -67z"/>
<path d="M502 1040 c-102 -63 -96 -222 12 -271 55 -25 86 -24 130 6 33 22 36
23 36 6 0 -10 9 -21 20 -24 19 -5 20 0 20 149 0 147 -1 154 -20 154 -15 0 -20
-7 -20 -26 l0 -26 -31 26 c-38 32 -99 35 -147 6z m138 -45 c47 -43 49 -126 5
-171 -18 -18 -35 -24 -67 -24 -86 1 -133 82 -93 160 30 57 111 75 155 35z"/>
<path d="M830 1041 c-135 -71 -82 -288 70 -285 37 0 57 7 85 28 33 25 35 30
22 44 -14 13 -18 12 -43 -7 -40 -32 -103 -29 -137 7 -36 38 -43 80 -22 126 31
66 116 85 160 36 14 -15 21 -17 36 -7 17 11 17 12 1 30 -44 49 -113 60 -172
28z"/>
<path d="M1361 1034 c-23 -19 -31 -34 -31 -58 0 -42 22 -61 90 -80 82 -21 90
-26 90 -51 0 -32 -24 -48 -71 -48 -27 0 -47 7 -63 22 -19 18 -25 19 -40 8 -17
-13 -16 -15 13 -40 94 -79 248 -7 196 92 -12 24 -27 34 -73 46 -109 30 -126
47 -80 79 28 20 67 20 95 1 23 -16 53 -11 53 9 0 21 -57 46 -103 46 -34 0 -53
-6 -76 -26z"/>
<path d="M1610 910 c0 -143 1 -150 20 -150 19 0 20 7 20 150 0 143 -1 150 -20
150 -19 0 -20 -7 -20 -150z"/>
<path d="M1741 1034 c-23 -19 -31 -34 -31 -58 0 -42 22 -61 90 -80 83 -21 90
-26 90 -53 0 -18 -8 -28 -33 -38 -38 -16 -73 -11 -102 16 -17 15 -23 16 -38 4
-16 -12 -16 -14 13 -38 93 -79 246 -6 196 92 -15 29 -23 33 -124 60 -52 15
-64 37 -33 63 28 22 69 23 99 2 18 -12 26 -13 37 -4 21 17 19 23 -14 43 -45
26 -113 22 -150 -9z"/>
</g>
</svg>
