<?xml version="1.0" encoding="UTF-8"?>
<!DOCTYPE svg PUBLIC "-//W3C//DTD SVG 1.1//EN" "http://www.w3.org/Graphics/SVG/1.1/DTD/svg11.dtd">
<svg xmlns="http://www.w3.org/2000/svg" version="1.1" width="512px" height="512px" style="shape-rendering:geometricPrecision; text-rendering:geometricPrecision; image-rendering:optimizeQuality; fill-rule:evenodd; clip-rule:evenodd" xmlns:xlink="http://www.w3.org/1999/xlink">
<g><path style="opacity:0.992" fill="#7db7fa" d="M 91.5,52.5 C 122.502,52.3334 153.502,52.5 184.5,53C 187.583,53.786 189.749,55.6193 191,58.5C 191.977,80.2554 191.644,101.922 190,123.5C 188.786,125.049 187.286,126.215 185.5,127C 153.081,127.985 120.748,127.652 88.5,126C 86.9588,124.421 85.7922,122.587 85,120.5C 84.3333,100.167 84.3333,79.8333 85,59.5C 86.6941,56.6424 88.8607,54.309 91.5,52.5 Z"/></g>
<g><path style="opacity:0.992" fill="#569df1" d="M 197.5,127.5 C 229.921,127.015 262.254,127.515 294.5,129C 296.041,130.579 297.208,132.413 298,134.5C 298.977,155.589 298.643,176.589 297,197.5C 295.457,199.378 293.624,200.878 291.5,202C 260.5,202.667 229.5,202.667 198.5,202C 195.417,201.214 193.251,199.381 192,196.5C 191.333,175.5 191.333,154.5 192,133.5C 193.36,130.977 195.193,128.977 197.5,127.5 Z"/></g>
<g><path style="opacity:0.981" fill="#0075d7" d="M 92.5,201.5 C 123.896,201.022 155.229,201.522 186.5,203C 188,204.5 189.5,206 191,207.5C 191.667,228.833 191.667,250.167 191,271.5C 189.039,274.135 186.539,275.969 183.5,277C 153.167,277.667 122.833,277.667 92.5,277C 89.0629,275.895 86.5629,273.728 85,270.5C 84.3333,249.833 84.3333,229.167 85,208.5C 86.7424,205.254 89.2424,202.921 92.5,201.5 Z"/></g>
<g><path style="opacity:0.965" fill="#e3e3e3" d="M 426.5,233.5 C 419.5,233.5 412.5,233.5 405.5,233.5C 405.829,246.677 405.495,259.677 404.5,272.5C 404.667,257.163 404.5,241.83 404,226.5C 403.5,225.333 402.667,224.5 401.5,224C 375.167,223.333 348.833,223.333 322.5,224C 319.814,226.546 318.814,229.713 319.5,233.5C 312.5,233.5 305.5,233.5 298.5,233.5C 298.795,235.735 298.461,237.735 297.5,239.5C 297.334,229.494 297.5,219.494 298,209.5C 299.167,205.667 301.667,203.167 305.5,202C 343.167,201.333 380.833,201.333 418.5,202C 421.937,203.105 424.437,205.272 426,208.5C 426.5,216.827 426.666,225.16 426.5,233.5 Z"/></g>
<g><path style="opacity:1" fill="#fefefe" d="M 404.5,272.5 C 404.489,274.017 403.823,275.184 402.5,276C 375.833,276.667 349.167,276.667 322.5,276C 321.333,275.5 320.5,274.667 320,273.5C 319.5,260.171 319.333,246.837 319.5,233.5C 318.814,229.713 319.814,226.546 322.5,224C 348.833,223.333 375.167,223.333 401.5,224C 402.667,224.5 403.5,225.333 404,226.5C 404.5,241.83 404.667,257.163 404.5,272.5 Z"/></g>
<g><path style="opacity:0.991" fill="#d8d8d8" d="M 319.5,233.5 C 319.333,246.837 319.5,260.171 320,273.5C 320.5,274.667 321.333,275.5 322.5,276C 349.167,276.667 375.833,276.667 402.5,276C 403.823,275.184 404.489,274.017 404.5,272.5C 405.495,259.677 405.829,246.677 405.5,233.5C 412.5,233.5 419.5,233.5 426.5,233.5C 426.5,257.167 426.5,280.833 426.5,304.5C 418.889,305.076 411.556,304.41 404.5,302.5C 404.489,300.983 403.823,299.816 402.5,299C 375.5,298.333 348.5,298.333 321.5,299C 320.139,300.584 319.472,302.418 319.5,304.5C 312.5,304.5 305.5,304.5 298.5,304.5C 298.607,302.097 297.607,300.264 295.5,299C 268.833,298.333 242.167,298.333 215.5,299C 213.393,300.264 212.393,302.097 212.5,304.5C 205.5,304.5 198.5,304.5 191.5,304.5C 191.334,297.159 191.5,289.826 192,282.5C 193.251,279.619 195.417,277.786 198.5,277C 231.498,276.5 264.498,276.333 297.5,276.5C 297.5,264.167 297.5,251.833 297.5,239.5C 298.461,237.735 298.795,235.735 298.5,233.5C 305.5,233.5 312.5,233.5 319.5,233.5 Z"/></g>
<g><path style="opacity:1" fill="#fefefe" d="M 298.5,304.5 C 298.967,319.597 298.467,334.597 297,349.5C 296.25,350.126 295.416,350.626 294.5,351C 268.167,351.667 241.833,351.667 215.5,351C 214.667,350.167 213.833,349.333 213,348.5C 212.5,333.837 212.333,319.17 212.5,304.5C 212.393,302.097 213.393,300.264 215.5,299C 242.167,298.333 268.833,298.333 295.5,299C 297.607,300.264 298.607,302.097 298.5,304.5 Z"/></g>
<g><path style="opacity:1" fill="#579ef1" d="M 404.5,302.5 C 404.667,317.837 404.5,333.17 404,348.5C 403.5,349.667 402.667,350.5 401.5,351C 375.167,351.667 348.833,351.667 322.5,351C 321.667,350.167 320.833,349.333 320,348.5C 319.5,333.837 319.333,319.17 319.5,304.5C 319.472,302.418 320.139,300.584 321.5,299C 348.5,298.333 375.5,298.333 402.5,299C 403.823,299.816 404.489,300.983 404.5,302.5 Z"/></g>
<g><path style="opacity:0.997" fill="#cbcbcb" d="M 404.5,302.5 C 411.556,304.41 418.889,305.076 426.5,304.5C 426.5,327.833 426.5,351.167 426.5,374.5C 425.539,376.265 425.205,378.265 425.5,380.5C 418.833,380.5 412.167,380.5 405.5,380.5C 405.768,378.901 405.434,377.568 404.5,376.5C 403.71,375.206 402.71,374.039 401.5,373C 375.167,372.333 348.833,372.333 322.5,373C 319.959,374.848 318.959,377.348 319.5,380.5C 312.5,380.5 305.5,380.5 298.5,380.5C 298.854,377.039 297.521,374.539 294.5,373C 268.5,372.333 242.5,372.333 216.5,373C 213.479,374.539 212.146,377.039 212.5,380.5C 205.5,380.5 198.5,380.5 191.5,380.5C 192.275,376.818 190.941,374.318 187.5,373C 161.5,372.333 135.5,372.333 109.5,373C 108.29,374.039 107.29,375.206 106.5,376.5C 105.566,377.568 105.232,378.901 105.5,380.5C 98.8333,380.5 92.1667,380.5 85.5,380.5C 85.7947,378.265 85.4614,376.265 84.5,374.5C 84.334,369.156 84.5006,363.823 85,358.5C 85.786,355.417 87.6193,353.251 90.5,352C 124.165,351.5 157.832,351.333 191.5,351.5C 191.5,335.833 191.5,320.167 191.5,304.5C 198.5,304.5 205.5,304.5 212.5,304.5C 212.333,319.17 212.5,333.837 213,348.5C 213.833,349.333 214.667,350.167 215.5,351C 241.833,351.667 268.167,351.667 294.5,351C 295.416,350.626 296.25,350.126 297,349.5C 298.467,334.597 298.967,319.597 298.5,304.5C 305.5,304.5 312.5,304.5 319.5,304.5C 319.333,319.17 319.5,333.837 320,348.5C 320.833,349.333 321.667,350.167 322.5,351C 348.833,351.667 375.167,351.667 401.5,351C 402.667,350.5 403.5,349.667 404,348.5C 404.5,333.17 404.667,317.837 404.5,302.5 Z"/></g>
<g><path style="opacity:1" fill="#055aa3" d="M 191.5,380.5 C 191.667,394.504 191.5,408.504 191,422.5C 190.626,423.416 190.126,424.25 189.5,425C 162.92,426.648 136.254,426.982 109.5,426C 108.667,425.167 107.833,424.333 107,423.5C 106.5,407.837 106.333,392.17 106.5,376.5C 107.29,375.206 108.29,374.039 109.5,373C 135.5,372.333 161.5,372.333 187.5,373C 190.941,374.318 192.275,376.818 191.5,380.5 Z"/></g>
<g><path style="opacity:1" fill="#085aa3" d="M 298.5,380.5 C 298.967,395.264 298.467,409.93 297,424.5C 296.25,425.126 295.416,425.626 294.5,426C 268.5,426.667 242.5,426.667 216.5,426C 215.584,425.626 214.75,425.126 214,424.5C 212.533,409.93 212.033,395.264 212.5,380.5C 212.146,377.039 213.479,374.539 216.5,373C 242.5,372.333 268.5,372.333 294.5,373C 297.521,374.539 298.854,377.039 298.5,380.5 Z"/></g>
<g><path style="opacity:1" fill="#055aa3" d="M 404.5,376.5 C 404.667,392.17 404.5,407.837 404,423.5C 403.167,424.333 402.333,425.167 401.5,426C 375.167,426.667 348.833,426.667 322.5,426C 321.299,425.097 320.465,423.931 320,422.5C 319.5,408.504 319.333,394.504 319.5,380.5C 318.959,377.348 319.959,374.848 322.5,373C 348.833,372.333 375.167,372.333 401.5,373C 402.71,374.039 403.71,375.206 404.5,376.5 Z"/></g>
<g><path style="opacity:0.996" fill="#bfbfbf" d="M 84.5,374.5 C 85.4614,376.265 85.7947,378.265 85.5,380.5C 92.1667,380.5 98.8333,380.5 105.5,380.5C 105.232,378.901 105.566,377.568 106.5,376.5C 106.333,392.17 106.5,407.837 107,423.5C 107.833,424.333 108.667,425.167 109.5,426C 136.254,426.982 162.92,426.648 189.5,425C 190.126,424.25 190.626,423.416 191,422.5C 191.5,408.504 191.667,394.504 191.5,380.5C 198.5,380.5 205.5,380.5 212.5,380.5C 212.033,395.264 212.533,409.93 214,424.5C 214.75,425.126 215.584,425.626 216.5,426C 242.5,426.667 268.5,426.667 294.5,426C 295.416,425.626 296.25,425.126 297,424.5C 298.467,409.93 298.967,395.264 298.5,380.5C 305.5,380.5 312.5,380.5 319.5,380.5C 319.333,394.504 319.5,408.504 320,422.5C 320.465,423.931 321.299,425.097 322.5,426C 348.833,426.667 375.167,426.667 401.5,426C 402.333,425.167 403.167,424.333 404,423.5C 404.5,407.837 404.667,392.17 404.5,376.5C 405.434,377.568 405.768,378.901 405.5,380.5C 412.167,380.5 418.833,380.5 425.5,380.5C 425.205,378.265 425.539,376.265 426.5,374.5C 426.667,396.503 426.5,418.503 426,440.5C 425.214,443.583 423.381,445.749 420.5,447C 310.5,447.667 200.5,447.667 90.5,447C 87.6193,445.749 85.786,443.583 85,440.5C 84.5,418.503 84.3334,396.503 84.5,374.5 Z"/></g>
</svg>
