<?xml version="1.0" encoding="UTF-8"?>
<!DOCTYPE svg PUBLIC "-//W3C//DTD SVG 1.1//EN" "http://www.w3.org/Graphics/SVG/1.1/DTD/svg11.dtd">
<svg xmlns="http://www.w3.org/2000/svg" version="1.1" width="400px" height="400px" style="shape-rendering:geometricPrecision; text-rendering:geometricPrecision; image-rendering:optimizeQuality; fill-rule:evenodd; clip-rule:evenodd" xmlns:xlink="http://www.w3.org/1999/xlink">
<g><path style="opacity:1" fill="#fefefe" d="M -0.5,-0.5 C 132.833,-0.5 266.167,-0.5 399.5,-0.5C 399.5,132.833 399.5,266.167 399.5,399.5C 266.167,399.5 132.833,399.5 -0.5,399.5C -0.5,266.167 -0.5,132.833 -0.5,-0.5 Z"/></g>
<g><path style="opacity:1" fill="#dffdfe" d="M 268.5,52.5 C 251.372,47.2072 235.039,48.8739 219.5,57.5C 219.414,56.5041 219.748,55.6708 220.5,55C 222.717,53.7246 225.051,52.7246 227.5,52C 227.043,51.586 226.709,51.086 226.5,50.5C 228.766,49.6858 231.1,49.1858 233.5,49C 243.517,48.1678 253.517,48.3344 263.5,49.5C 265.655,50.0014 267.322,51.0014 268.5,52.5 Z"/></g>
<g><path style="opacity:1" fill="#50e3fa" d="M 268.5,52.5 C 285.503,59.8283 296.837,72.1617 302.5,89.5C 302.5,91.5 302.5,93.5 302.5,95.5C 301.194,94.0322 299.694,92.6988 298,91.5C 297,93.1667 296,94.8333 295,96.5C 293.768,93.6996 293.101,90.6996 293,87.5C 291.101,83.4563 289.935,83.6229 289.5,88C 290.575,90.5099 291.575,93.0099 292.5,95.5C 290.058,95.1192 289.391,95.7859 290.5,97.5C 290.081,98.6721 289.415,99.6721 288.5,100.5C 287.756,99.0095 287.09,97.5095 286.5,96C 259.881,96.1385 233.381,95.3052 207,93.5C 205.079,95.0028 202.912,95.6695 200.5,95.5C 200.5,94.1667 200.5,92.8333 200.5,91.5C 201.833,91.5 203.167,91.5 204.5,91.5C 204.831,88.1746 205.164,84.8413 205.5,81.5C 205.464,79.0588 204.631,77.0588 203,75.5C 201.738,79.3125 201.071,83.3125 201,87.5C 199.491,89.9193 197.325,90.9193 194.5,90.5C 194.5,92.1667 194.5,93.8333 194.5,95.5C 190.358,95.0325 186.358,94.6992 182.5,94.5C 180.666,95.7545 178.666,96.4211 176.5,96.5C 176.61,99.0588 175.944,101.392 174.5,103.5C 173.614,102.675 173.281,101.675 173.5,100.5C 172.167,100.5 170.833,100.5 169.5,100.5C 169.5,99.8333 169.5,99.1667 169.5,98.5C 177.333,91.9168 186.333,87.4168 196.5,85C 200.539,72.7313 208.205,63.5647 219.5,57.5C 235.039,48.8739 251.372,47.2072 268.5,52.5 Z"/></g>
<g><path style="opacity:1" fill="#e1fefd" d="M 302.5,89.5 C 304.08,91.7171 305.08,94.3837 305.5,97.5C 310.785,101.074 316.451,103.907 322.5,106C 323.965,107.774 325.298,109.608 326.5,111.5C 319.716,106.278 312.049,102.945 303.5,101.5C 303.795,99.2646 303.461,97.2646 302.5,95.5C 302.5,93.5 302.5,91.5 302.5,89.5 Z"/></g>
<g><path style="opacity:1" fill="#46d9f4" d="M 302.5,95.5 C 303.461,97.2646 303.795,99.2646 303.5,101.5C 312.049,102.945 319.716,106.278 326.5,111.5C 328.252,113.246 329.585,115.246 330.5,117.5C 327.811,118.005 325.644,119.338 324,121.5C 322.523,120.556 321.523,119.223 321,117.5C 289.332,119.454 257.166,120.12 224.5,119.5C 224.5,118.5 224.5,117.5 224.5,116.5C 223.022,116.238 221.689,116.571 220.5,117.5C 222.559,118.951 223.559,120.951 223.5,123.5C 220.084,121.453 216.418,119.786 212.5,118.5C 212.167,118.833 211.833,119.167 211.5,119.5C 213.606,120.897 215.273,122.73 216.5,125C 213.971,124.719 211.971,123.385 210.5,121C 209.552,120.517 208.552,120.351 207.5,120.5C 207.5,118.833 207.5,117.167 207.5,115.5C 205.325,115.682 203.325,116.349 201.5,117.5C 198.615,116.758 196.115,115.424 194,113.5C 192.674,113.755 191.674,114.422 191,115.5C 182.272,113.299 173.438,111.466 164.5,110C 164.09,105.991 165.757,102.824 169.5,100.5C 170.833,100.5 172.167,100.5 173.5,100.5C 173.281,101.675 173.614,102.675 174.5,103.5C 175.944,101.392 176.61,99.0588 176.5,96.5C 178.666,96.4211 180.666,95.7545 182.5,94.5C 186.358,94.6992 190.358,95.0325 194.5,95.5C 194.5,93.8333 194.5,92.1667 194.5,90.5C 197.325,90.9193 199.491,89.9193 201,87.5C 201.071,83.3125 201.738,79.3125 203,75.5C 204.631,77.0588 205.464,79.0588 205.5,81.5C 205.164,84.8413 204.831,88.1746 204.5,91.5C 203.167,91.5 201.833,91.5 200.5,91.5C 200.5,92.8333 200.5,94.1667 200.5,95.5C 202.912,95.6695 205.079,95.0028 207,93.5C 233.381,95.3052 259.881,96.1385 286.5,96C 287.09,97.5095 287.756,99.0095 288.5,100.5C 289.415,99.6721 290.081,98.6721 290.5,97.5C 289.391,95.7859 290.058,95.1192 292.5,95.5C 291.575,93.0099 290.575,90.5099 289.5,88C 289.935,83.6229 291.101,83.4563 293,87.5C 293.101,90.6996 293.768,93.6996 295,96.5C 296,94.8333 297,93.1667 298,91.5C 299.694,92.6988 301.194,94.0322 302.5,95.5 Z"/></g>
<g><path style="opacity:1" fill="#44d1ed" d="M 169.5,98.5 C 169.5,99.1667 169.5,99.8333 169.5,100.5C 165.757,102.824 164.09,105.991 164.5,110C 173.438,111.466 182.272,113.299 191,115.5C 191.674,114.422 192.674,113.755 194,113.5C 196.115,115.424 198.615,116.758 201.5,117.5C 203.325,116.349 205.325,115.682 207.5,115.5C 207.5,117.167 207.5,118.833 207.5,120.5C 208.552,120.351 209.552,120.517 210.5,121C 211.971,123.385 213.971,124.719 216.5,125C 215.273,122.73 213.606,120.897 211.5,119.5C 211.833,119.167 212.167,118.833 212.5,118.5C 216.418,119.786 220.084,121.453 223.5,123.5C 223.559,120.951 222.559,118.951 220.5,117.5C 221.689,116.571 223.022,116.238 224.5,116.5C 224.5,117.5 224.5,118.5 224.5,119.5C 257.166,120.12 289.332,119.454 321,117.5C 321.523,119.223 322.523,120.556 324,121.5C 325.644,119.338 327.811,118.005 330.5,117.5C 330.632,120.393 331.799,122.726 334,124.5C 334.495,126.473 334.662,128.473 334.5,130.5C 302.832,130.333 271.165,130.5 239.5,131C 238.167,131.333 236.833,131.667 235.5,132C 236.61,135.049 237.277,138.216 237.5,141.5C 236.549,144.045 235.549,144.045 234.5,141.5C 234.446,138.366 234.446,135.199 234.5,132C 232.137,131.411 231.137,129.911 231.5,127.5C 229.833,127.5 228.167,127.5 226.5,127.5C 228.717,132.865 229.717,138.532 229.5,144.5C 232.797,144.329 233.131,144.995 230.5,146.5C 229.049,144.441 227.049,143.441 224.5,143.5C 224.844,139.034 223.677,135.034 221,131.5C 211.515,123.663 200.682,118.496 188.5,116C 178.919,113.848 169.253,112.348 159.5,111.5C 160.809,108.222 162.642,105.222 165,102.5C 166.371,100.959 167.871,99.6253 169.5,98.5 Z"/></g>
<g><path style="opacity:1" fill="#f2f2f2" d="M 159.5,111.5 C 161.732,113.195 164.399,114.362 167.5,115C 164.711,115.241 162.044,115.908 159.5,117C 147.814,117.23 136.148,117.73 124.5,118.5C 121.417,116.695 118.083,115.695 114.5,115.5C 110.275,116.748 105.942,117.581 101.5,118C 101.167,118.333 100.833,118.667 100.5,119C 102.833,119.333 105.167,119.667 107.5,120C 102.381,122.192 97.0478,123.692 91.5,124.5C 89.9208,125.667 88.5875,127 87.5,128.5C 84.1589,128.656 81.3255,129.989 79,132.5C 77.0889,137.933 74.2556,142.766 70.5,147C 68.7818,147.346 67.1151,147.846 65.5,148.5C 64.9478,146.997 64.9478,145.331 65.5,143.5C 63.3792,143.675 61.3792,143.341 59.5,142.5C 60.3215,135.008 63.9881,129.342 70.5,125.5C 77.9269,122.497 85.2603,119.33 92.5,116C 114.654,111.636 136.988,110.136 159.5,111.5 Z"/></g>
<g><path style="opacity:1" fill="#53e4fc" d="M 159.5,120.5 C 173.457,121.058 186.79,124.225 199.5,130C 207.088,134.924 207.421,140.257 200.5,146C 197.473,147.513 194.473,149.013 191.5,150.5C 183.962,147.113 175.962,144.946 167.5,144C 142.09,140.821 117.09,142.655 92.5,149.5C 90.1667,148.833 87.8333,148.167 85.5,147.5C 77.1035,140.212 77.7702,133.879 87.5,128.5C 92.8506,125.828 98.5173,124.162 104.5,123.5C 106.199,123.62 107.865,123.954 109.5,124.5C 113.687,122.829 118.02,121.663 122.5,121C 134.829,120.5 147.162,120.333 159.5,120.5 Z"/></g>
<g><path style="opacity:1" fill="#e6f5f6" d="M 159.5,111.5 C 169.253,112.348 178.919,113.848 188.5,116C 200.682,118.496 211.515,123.663 221,131.5C 223.677,135.034 224.844,139.034 224.5,143.5C 224.5,143.833 224.5,144.167 224.5,144.5C 219.37,152.744 212.037,158.077 202.5,160.5C 202.414,159.504 202.748,158.671 203.5,158C 207.5,156.333 211.5,154.667 215.5,153C 216.337,151.989 216.67,150.822 216.5,149.5C 214.071,149.585 212.071,150.585 210.5,152.5C 209.668,150.064 210.335,147.897 212.5,146C 214.134,145.506 215.801,145.34 217.5,145.5C 218.125,139.306 215.625,134.973 210,132.5C 209.833,133.167 209.667,133.833 209.5,134.5C 210.447,136.4 211.947,137.733 214,138.5C 214.483,139.448 214.649,140.448 214.5,141.5C 211.551,140.987 208.718,140.987 206,141.5C 206.155,144.84 206.655,148.174 207.5,151.5C 205.332,150.821 203.332,149.821 201.5,148.5C 188.68,152.434 175.847,156.434 163,160.5C 147.869,159.168 132.702,158.335 117.5,158C 110.306,156.061 102.972,154.395 95.5,153C 94.0577,152.623 93.0577,151.79 92.5,150.5C 125.495,159.695 158.495,159.695 191.5,150.5C 194.473,149.013 197.473,147.513 200.5,146C 207.421,140.257 207.088,134.924 199.5,130C 186.79,124.225 173.457,121.058 159.5,120.5C 147.007,119.34 134.34,119.173 121.5,120C 115.588,120.615 109.921,121.782 104.5,123.5C 98.5173,124.162 92.8506,125.828 87.5,128.5C 88.5875,127 89.9208,125.667 91.5,124.5C 97.0478,123.692 102.381,122.192 107.5,120C 105.167,119.667 102.833,119.333 100.5,119C 100.833,118.667 101.167,118.333 101.5,118C 105.942,117.581 110.275,116.748 114.5,115.5C 118.083,115.695 121.417,116.695 124.5,118.5C 136.148,117.73 147.814,117.23 159.5,117C 162.044,115.908 164.711,115.241 167.5,115C 164.399,114.362 161.732,113.195 159.5,111.5 Z"/></g>
<g><path style="opacity:1" fill="#76daec" d="M 159.5,120.5 C 147.162,120.333 134.829,120.5 122.5,121C 118.02,121.663 113.687,122.829 109.5,124.5C 107.865,123.954 106.199,123.62 104.5,123.5C 109.921,121.782 115.588,120.615 121.5,120C 134.34,119.173 147.007,119.34 159.5,120.5 Z"/></g>
<g><path style="opacity:1" fill="#3bcceb" d="M 334.5,130.5 C 338.011,133.195 339.344,136.862 338.5,141.5C 337.778,141.918 337.278,142.584 337,143.5C 320.374,143.152 303.54,143.152 286.5,143.5C 269.819,143.499 253.486,142.833 237.5,141.5C 237.277,138.216 236.61,135.049 235.5,132C 236.833,131.667 238.167,131.333 239.5,131C 271.165,130.5 302.832,130.333 334.5,130.5 Z"/></g>
<g><path style="opacity:1" fill="#36c6e7" d="M 237.5,141.5 C 253.486,142.833 269.819,143.499 286.5,143.5C 303.54,143.152 320.374,143.152 337,143.5C 337.278,142.584 337.778,141.918 338.5,141.5C 338.579,146.338 337.745,151.004 336,155.5C 302.653,156.82 268.986,156.82 235,155.5C 232.323,156.477 230.99,158.477 231,161.5C 230.687,155.88 228.521,151.213 224.5,147.5C 224.5,146.5 224.5,145.5 224.5,144.5C 224.5,144.167 224.5,143.833 224.5,143.5C 227.049,143.441 229.049,144.441 230.5,146.5C 233.131,144.995 232.797,144.329 229.5,144.5C 229.717,138.532 228.717,132.865 226.5,127.5C 228.167,127.5 229.833,127.5 231.5,127.5C 231.137,129.911 232.137,131.411 234.5,132C 234.446,135.199 234.446,138.366 234.5,141.5C 235.549,144.045 236.549,144.045 237.5,141.5 Z"/></g>
<g><path style="opacity:1" fill="#1d8ab2" d="M 191.5,150.5 C 158.495,159.695 125.495,159.695 92.5,150.5C 92.5,150.167 92.5,149.833 92.5,149.5C 117.09,142.655 142.09,140.821 167.5,144C 175.962,144.946 183.962,147.113 191.5,150.5 Z"/></g>
<g><path style="opacity:1" fill="#e6f0f5" d="M 87.5,128.5 C 77.7702,133.879 77.1035,140.212 85.5,147.5C 85.5,148.5 85.5,149.5 85.5,150.5C 82.6644,150.202 82.1644,150.869 84,152.5C 88.6726,149.248 92.1726,150.248 94.5,155.5C 95.6888,156.429 97.0222,156.762 98.5,156.5C 98.5,157.5 98.5,158.5 98.5,159.5C 95.3147,159.722 94.3147,161.222 95.5,164C 98.5252,164.361 101.525,164.861 104.5,165.5C 106.745,164.076 109.245,163.41 112,163.5C 118.124,164.611 124.124,165.944 130,167.5C 134,167.5 138,167.5 142,167.5C 142.739,166.426 143.739,165.759 145,165.5C 150.998,167.728 157.164,168.561 163.5,168C 162.062,167.781 160.729,167.281 159.5,166.5C 164.829,165.681 170.162,165.014 175.5,164.5C 175.5,163.5 175.5,162.5 175.5,161.5C 178.579,160.198 181.579,158.698 184.5,157C 187.868,156.457 191.201,156.624 194.5,157.5C 194.5,158.833 194.5,160.167 194.5,161.5C 197.206,161.425 199.873,161.092 202.5,160.5C 200.928,161.687 199.261,162.687 197.5,163.5C 193.298,164.132 189.298,165.132 185.5,166.5C 179.963,167.087 174.63,168.087 169.5,169.5C 168.167,169.5 166.833,169.5 165.5,169.5C 152.85,170.293 140.183,170.626 127.5,170.5C 123.702,169.517 119.702,169.183 115.5,169.5C 104.128,167.492 92.7945,164.825 81.5,161.5C 75.6767,158.422 70.0101,155.089 64.5,151.5C 63.5604,149.388 62.3937,147.388 61,145.5C 60.5,167.497 60.3334,189.497 60.5,211.5C 59.5025,188.673 59.1692,165.673 59.5,142.5C 61.3792,143.341 63.3792,143.675 65.5,143.5C 64.9478,145.331 64.9478,146.997 65.5,148.5C 67.1151,147.846 68.7818,147.346 70.5,147C 74.2556,142.766 77.0889,137.933 79,132.5C 81.3255,129.989 84.1589,128.656 87.5,128.5 Z"/></g>
<g><path style="opacity:1" fill="#0d609b" d="M 224.5,144.5 C 224.5,145.5 224.5,146.5 224.5,147.5C 224.5,148.833 224.5,150.167 224.5,151.5C 224.5,162.167 224.5,172.833 224.5,183.5C 224.5,183.833 224.5,184.167 224.5,184.5C 224.5,194.167 224.5,203.833 224.5,213.5C 223.655,214.671 222.989,216.005 222.5,217.5C 219.107,214.563 215.441,214.063 211.5,216C 208.96,218.205 206.793,220.705 205,223.5C 204.591,225.695 205.091,227.695 206.5,229.5C 204.883,230.038 203.216,230.371 201.5,230.5C 201.678,221.147 206.345,215.48 215.5,213.5C 217.818,213.997 220.152,214.33 222.5,214.5C 222.833,196.155 222.5,177.821 221.5,159.5C 218.681,159.481 215.847,159.148 213,158.5C 208.125,161.069 202.959,162.736 197.5,163.5C 199.261,162.687 200.928,161.687 202.5,160.5C 212.037,158.077 219.37,152.744 224.5,144.5 Z"/></g>
<g><path style="opacity:1" fill="#34bfe0" d="M 330.5,117.5 C 331.794,118.29 332.961,119.29 334,120.5C 339.124,129.899 340.791,139.899 339,150.5C 338.495,153.865 337.328,156.865 335.5,159.5C 332.387,159.582 331.054,161.582 331.5,165.5C 330.178,165.67 329.011,165.337 328,164.5C 327.29,165.973 326.124,166.64 324.5,166.5C 324.657,167.873 324.49,169.207 324,170.5C 323.309,168.109 322.309,168.109 321,170.5C 320.667,169.833 320.333,169.167 320,168.5C 292.574,169.495 265.074,169.828 237.5,169.5C 237.778,167.654 237.111,166.32 235.5,165.5C 234.05,166.655 233.05,168.155 232.5,170C 231.552,170.483 230.552,170.649 229.5,170.5C 229.494,165.785 228.994,161.118 228,156.5C 227.451,154.24 226.284,152.574 224.5,151.5C 224.5,150.167 224.5,148.833 224.5,147.5C 228.521,151.213 230.687,155.88 231,161.5C 230.99,158.477 232.323,156.477 235,155.5C 268.986,156.82 302.653,156.82 336,155.5C 337.745,151.004 338.579,146.338 338.5,141.5C 339.344,136.862 338.011,133.195 334.5,130.5C 334.662,128.473 334.495,126.473 334,124.5C 331.799,122.726 330.632,120.393 330.5,117.5 Z"/></g>
<g><path style="opacity:1" fill="#1b5380" d="M 64.5,151.5 C 63.5,151.5 62.5,151.5 61.5,151.5C 61.5,172.5 61.5,193.5 61.5,214.5C 61.1667,214.5 60.8333,214.5 60.5,214.5C 60.5,213.5 60.5,212.5 60.5,211.5C 60.3334,189.497 60.5,167.497 61,145.5C 62.3937,147.388 63.5604,149.388 64.5,151.5 Z"/></g>
<g><path style="opacity:1" fill="#155a97" d="M 64.5,151.5 C 70.0101,155.089 75.6767,158.422 81.5,161.5C 76.1895,159.544 70.8561,157.544 65.5,155.5C 65.5,154.5 65.5,153.5 65.5,152.5C 64.5,152.5 63.5,152.5 62.5,152.5C 62.167,172.511 62.5004,192.511 63.5,212.5C 65.5228,216.18 67.5228,219.847 69.5,223.5C 65.4351,221.767 62.7684,218.767 61.5,214.5C 61.5,193.5 61.5,172.5 61.5,151.5C 62.5,151.5 63.5,151.5 64.5,151.5 Z"/></g>
<g><path style="opacity:1" fill="#f1f1f3" d="M 202.5,160.5 C 199.873,161.092 197.206,161.425 194.5,161.5C 194.5,160.167 194.5,158.833 194.5,157.5C 191.201,156.624 187.868,156.457 184.5,157C 181.579,158.698 178.579,160.198 175.5,161.5C 175.5,162.5 175.5,163.5 175.5,164.5C 170.162,165.014 164.829,165.681 159.5,166.5C 160.729,167.281 162.062,167.781 163.5,168C 157.164,168.561 150.998,167.728 145,165.5C 143.739,165.759 142.739,166.426 142,167.5C 138,167.5 134,167.5 130,167.5C 124.124,165.944 118.124,164.611 112,163.5C 109.245,163.41 106.745,164.076 104.5,165.5C 101.525,164.861 98.5252,164.361 95.5,164C 94.3147,161.222 95.3147,159.722 98.5,159.5C 98.5,158.5 98.5,157.5 98.5,156.5C 97.0222,156.762 95.6888,156.429 94.5,155.5C 92.1726,150.248 88.6726,149.248 84,152.5C 82.1644,150.869 82.6644,150.202 85.5,150.5C 85.5,149.5 85.5,148.5 85.5,147.5C 87.8333,148.167 90.1667,148.833 92.5,149.5C 92.5,149.833 92.5,150.167 92.5,150.5C 93.0577,151.79 94.0577,152.623 95.5,153C 102.972,154.395 110.306,156.061 117.5,158C 132.702,158.335 147.869,159.168 163,160.5C 175.847,156.434 188.68,152.434 201.5,148.5C 203.332,149.821 205.332,150.821 207.5,151.5C 206.655,148.174 206.155,144.84 206,141.5C 208.718,140.987 211.551,140.987 214.5,141.5C 214.649,140.448 214.483,139.448 214,138.5C 211.947,137.733 210.447,136.4 209.5,134.5C 209.667,133.833 209.833,133.167 210,132.5C 215.625,134.973 218.125,139.306 217.5,145.5C 215.801,145.34 214.134,145.506 212.5,146C 210.335,147.897 209.668,150.064 210.5,152.5C 212.071,150.585 214.071,149.585 216.5,149.5C 216.67,150.822 216.337,151.989 215.5,153C 211.5,154.667 207.5,156.333 203.5,158C 202.748,158.671 202.414,159.504 202.5,160.5 Z"/></g>
<g><path style="opacity:1" fill="#0462ac" d="M 81.5,161.5 C 92.7945,164.825 104.128,167.492 115.5,169.5C 111.465,169.607 107.465,169.274 103.5,168.5C 97.0403,170.237 90.707,172.237 84.5,174.5C 84.8333,175.5 85.5,176.167 86.5,176.5C 87.1667,191.833 87.8333,207.167 88.5,222.5C 89.6721,222.919 90.6721,223.585 91.5,224.5C 89.5352,225.292 87.5352,225.959 85.5,226.5C 84.6143,227.325 84.281,228.325 84.5,229.5C 89.1391,229.692 93.1391,228.192 96.5,225C 96.1667,224.667 95.8333,224.333 95.5,224C 99.2969,218.698 99.2969,213.531 95.5,208.5C 99.0678,206.638 101.235,207.638 102,211.5C 102.14,214.981 101.973,218.481 101.5,222C 101.833,223.833 102.167,225.667 102.5,227.5C 102.833,227.333 103.167,227.167 103.5,227C 104.709,223.963 105.543,220.796 106,217.5C 107.378,215.787 109.045,214.453 111,213.5C 113.411,210.41 114.245,207.076 113.5,203.5C 114.7,202.708 116.033,202.708 117.5,203.5C 112.833,212.833 108.167,222.167 103.5,231.5C 102.244,233.344 100.577,234.677 98.5,235.5C 88.7799,233.15 79.4466,229.816 70.5,225.5C 70.1667,224.833 69.8333,224.167 69.5,223.5C 67.5228,219.847 65.5228,216.18 63.5,212.5C 62.5004,192.511 62.167,172.511 62.5,152.5C 63.5,152.5 64.5,152.5 65.5,152.5C 65.5,153.5 65.5,154.5 65.5,155.5C 70.8561,157.544 76.1895,159.544 81.5,161.5 Z"/></g>
<g><path style="opacity:1" fill="#31b7dc" d="M 224.5,151.5 C 226.284,152.574 227.451,154.24 228,156.5C 228.994,161.118 229.494,165.785 229.5,170.5C 230.552,170.649 231.552,170.483 232.5,170C 233.05,168.155 234.05,166.655 235.5,165.5C 237.111,166.32 237.778,167.654 237.5,169.5C 265.074,169.828 292.574,169.495 320,168.5C 320.333,169.167 320.667,169.833 321,170.5C 322.309,168.109 323.309,168.109 324,170.5C 324.49,169.207 324.657,167.873 324.5,166.5C 326.124,166.64 327.29,165.973 328,164.5C 329.011,165.337 330.178,165.67 331.5,165.5C 331.054,161.582 332.387,159.582 335.5,159.5C 333.683,163.801 331.35,167.801 328.5,171.5C 325.167,173.833 321.833,176.167 318.5,178.5C 315.201,179.376 311.868,179.543 308.5,179C 307.774,177.603 306.607,176.769 305,176.5C 280.776,176.976 254.609,177.643 226.5,178.5C 227.403,180.62 228.737,180.954 230.5,179.5C 231.5,180 232.5,180.5 233.5,181C 230.702,182.396 227.702,183.23 224.5,183.5C 224.5,172.833 224.5,162.167 224.5,151.5 Z"/></g>
<g><path style="opacity:1" fill="#2a71a6" d="M 165.5,169.5 C 163.5,170.167 161.5,170.833 159.5,171.5C 148.654,171.828 137.987,171.494 127.5,170.5C 140.183,170.626 152.85,170.293 165.5,169.5 Z"/></g>
<g><path style="opacity:1" fill="#036dc0" d="M 115.5,169.5 C 119.702,169.183 123.702,169.517 127.5,170.5C 137.987,171.494 148.654,171.828 159.5,171.5C 149.008,172.33 138.341,172.83 127.5,173C 126.833,173.667 126.167,174.333 125.5,175C 130.423,175.491 132.423,178.324 131.5,183.5C 131.249,188.787 129.249,193.287 125.5,197C 127.524,203.286 129.857,209.452 132.5,215.5C 134.134,215.032 135.3,214.032 136,212.5C 137.776,215.556 137.943,218.722 136.5,222C 137.601,225.034 139.101,227.867 141,230.5C 141.333,229.167 141.667,227.833 142,226.5C 142.273,228.101 142.773,229.601 143.5,231C 141.038,233.678 140.205,236.845 141,240.5C 141.333,240.167 141.667,239.833 142,239.5C 142.498,242.482 142.665,245.482 142.5,248.5C 141.833,247.5 141.167,246.5 140.5,245.5C 135.171,228.348 129.338,211.348 123,194.5C 121.643,197.898 119.81,200.898 117.5,203.5C 116.033,202.708 114.7,202.708 113.5,203.5C 114.245,207.076 113.411,210.41 111,213.5C 109.045,214.453 107.378,215.787 106,217.5C 105.543,220.796 104.709,223.963 103.5,227C 103.167,227.167 102.833,227.333 102.5,227.5C 102.167,225.667 101.833,223.833 101.5,222C 101.973,218.481 102.14,214.981 102,211.5C 101.235,207.638 99.0678,206.638 95.5,208.5C 99.2969,213.531 99.2969,218.698 95.5,224C 95.8333,224.333 96.1667,224.667 96.5,225C 93.1391,228.192 89.1391,229.692 84.5,229.5C 84.281,228.325 84.6143,227.325 85.5,226.5C 87.5352,225.959 89.5352,225.292 91.5,224.5C 90.6721,223.585 89.6721,222.919 88.5,222.5C 87.8333,207.167 87.1667,191.833 86.5,176.5C 85.5,176.167 84.8333,175.5 84.5,174.5C 90.707,172.237 97.0403,170.237 103.5,168.5C 107.465,169.274 111.465,169.607 115.5,169.5 Z"/></g>
<g><path style="opacity:1" fill="#0363af" d="M 201.5,230.5 C 199.5,231.5 197.5,232.5 195.5,233.5C 186.288,235.803 176.954,237.469 167.5,238.5C 171.128,237.056 174.961,236.056 179,235.5C 179.456,234.256 178.956,233.423 177.5,233C 175.5,232.667 173.5,232.333 171.5,232C 172.416,231.722 173.082,231.222 173.5,230.5C 176.147,231.824 178.814,231.824 181.5,230.5C 185.03,232.509 188.697,232.842 192.5,231.5C 191.126,229.033 191.793,227.199 194.5,226C 194.043,225.586 193.709,225.086 193.5,224.5C 195.062,220.07 196.395,215.57 197.5,211C 197.546,209.272 197.046,207.772 196,206.5C 195.5,196.506 195.334,186.506 195.5,176.5C 194.5,176.5 193.5,176.5 192.5,176.5C 192.5,175.5 192.5,174.5 192.5,173.5C 195.898,173.82 199.232,173.487 202.5,172.5C 201.619,171.029 200.286,170.196 198.5,170C 196.19,169.503 193.857,169.337 191.5,169.5C 191.5,168.5 191.5,167.5 191.5,166.5C 189.5,166.5 187.5,166.5 185.5,166.5C 189.298,165.132 193.298,164.132 197.5,163.5C 202.959,162.736 208.125,161.069 213,158.5C 215.847,159.148 218.681,159.481 221.5,159.5C 222.5,177.821 222.833,196.155 222.5,214.5C 220.152,214.33 217.818,213.997 215.5,213.5C 206.345,215.48 201.678,221.147 201.5,230.5 Z"/></g>
<g><path style="opacity:1" fill="#0175ce" d="M 165.5,169.5 C 166.833,169.5 168.167,169.5 169.5,169.5C 171.604,169.201 173.604,169.534 175.5,170.5C 172.331,170.983 169.664,172.316 167.5,174.5C 169.061,175.347 170.561,175.014 172,173.5C 173,174.167 174,174.833 175,175.5C 175.667,191.167 175.667,206.833 175,222.5C 171.691,223.521 171.691,224.521 175,225.5C 175.945,225.095 176.612,224.428 177,223.5C 179.529,227.762 178.362,230.095 173.5,230.5C 173.082,231.222 172.416,231.722 171.5,232C 173.5,232.333 175.5,232.667 177.5,233C 178.956,233.423 179.456,234.256 179,235.5C 174.961,236.056 171.128,237.056 167.5,238.5C 164.185,238.741 161.185,239.741 158.5,241.5C 157.85,241.196 157.183,240.863 156.5,240.5C 155.682,242.108 155.015,243.775 154.5,245.5C 153.675,246.386 152.675,246.719 151.5,246.5C 151.539,244.641 150.706,243.308 149,242.5C 147.071,244.685 147.571,246.351 150.5,247.5C 152.092,250.446 151.258,252.446 148,253.5C 146.812,252.437 146.312,251.103 146.5,249.5C 145.167,249.5 143.833,249.5 142.5,249.5C 142.5,249.167 142.5,248.833 142.5,248.5C 142.665,245.482 142.498,242.482 142,239.5C 141.667,239.833 141.333,240.167 141,240.5C 140.205,236.845 141.038,233.678 143.5,231C 142.773,229.601 142.273,228.101 142,226.5C 141.667,227.833 141.333,229.167 141,230.5C 139.101,227.867 137.601,225.034 136.5,222C 137.943,218.722 137.776,215.556 136,212.5C 135.3,214.032 134.134,215.032 132.5,215.5C 129.857,209.452 127.524,203.286 125.5,197C 129.249,193.287 131.249,188.787 131.5,183.5C 132.423,178.324 130.423,175.491 125.5,175C 126.167,174.333 126.833,173.667 127.5,173C 138.341,172.83 149.008,172.33 159.5,171.5C 161.5,170.833 163.5,170.167 165.5,169.5 Z"/></g>
<g><path style="opacity:1" fill="#026cc0" d="M 185.5,166.5 C 187.5,166.5 189.5,166.5 191.5,166.5C 191.5,167.5 191.5,168.5 191.5,169.5C 193.857,169.337 196.19,169.503 198.5,170C 200.286,170.196 201.619,171.029 202.5,172.5C 199.232,173.487 195.898,173.82 192.5,173.5C 192.5,174.5 192.5,175.5 192.5,176.5C 193.5,176.5 194.5,176.5 195.5,176.5C 195.334,186.506 195.5,196.506 196,206.5C 197.046,207.772 197.546,209.272 197.5,211C 196.395,215.57 195.062,220.07 193.5,224.5C 193.709,225.086 194.043,225.586 194.5,226C 191.793,227.199 191.126,229.033 192.5,231.5C 188.697,232.842 185.03,232.509 181.5,230.5C 178.814,231.824 176.147,231.824 173.5,230.5C 178.362,230.095 179.529,227.762 177,223.5C 176.612,224.428 175.945,225.095 175,225.5C 171.691,224.521 171.691,223.521 175,222.5C 175.667,206.833 175.667,191.167 175,175.5C 174,174.833 173,174.167 172,173.5C 170.561,175.014 169.061,175.347 167.5,174.5C 169.664,172.316 172.331,170.983 175.5,170.5C 173.604,169.534 171.604,169.201 169.5,169.5C 174.63,168.087 179.963,167.087 185.5,166.5 Z"/></g>
<g><path style="opacity:1" fill="#2fb3d2" d="M 318.5,178.5 C 314.248,181.116 309.581,182.95 304.5,184C 277.835,184.5 251.169,184.667 224.5,184.5C 224.5,184.167 224.5,183.833 224.5,183.5C 227.702,183.23 230.702,182.396 233.5,181C 232.5,180.5 231.5,180 230.5,179.5C 228.737,180.954 227.403,180.62 226.5,178.5C 254.609,177.643 280.776,176.976 305,176.5C 306.607,176.769 307.774,177.603 308.5,179C 311.868,179.543 315.201,179.376 318.5,178.5 Z"/></g>
<g><path style="opacity:1" fill="#d5e6f0" d="M 140.5,245.5 C 137.963,240.091 135.13,234.758 132,229.5C 131.505,227.527 131.338,225.527 131.5,223.5C 130.5,223.5 129.5,223.5 128.5,223.5C 128.411,228.694 127.745,228.694 126.5,223.5C 128.572,220.163 128.905,216.663 127.5,213C 126.216,212.316 125.049,212.483 124,213.5C 123.503,216.146 123.336,218.813 123.5,221.5C 122.5,221.5 121.5,221.5 120.5,221.5C 121.242,215.51 121.409,209.51 121,203.5C 120.333,204.167 119.667,204.833 119,205.5C 119.161,210.995 116.828,214.995 112,217.5C 109.934,220.961 108.434,224.627 107.5,228.5C 106.167,229.5 104.833,230.5 103.5,231.5C 108.167,222.167 112.833,212.833 117.5,203.5C 119.81,200.898 121.643,197.898 123,194.5C 129.338,211.348 135.171,228.348 140.5,245.5 Z"/></g>
<g><path style="opacity:1" fill="#4ee0f9" d="M 274.5,221.5 C 276.455,222.323 278.455,222.49 280.5,222C 284.833,219.833 289.167,217.667 293.5,215.5C 294.518,216.193 295.518,216.859 296.5,217.5C 299.345,220.512 302.012,223.679 304.5,227C 302.458,232.293 300.124,237.459 297.5,242.5C 299.297,244.955 300.63,247.622 301.5,250.5C 300.432,251.434 299.099,251.768 297.5,251.5C 297.5,250.167 297.5,248.833 297.5,247.5C 296.513,245.527 295.513,243.527 294.5,241.5C 297.842,238.465 298.842,234.798 297.5,230.5C 294.699,232.72 293.366,235.72 293.5,239.5C 290.5,239.833 289.167,238.5 289.5,235.5C 267.164,235.333 244.831,235.5 222.5,236C 221.663,237.011 221.33,238.178 221.5,239.5C 222.833,239.5 224.167,239.5 225.5,239.5C 225.5,241.167 225.5,242.833 225.5,244.5C 227.262,244.643 228.929,244.309 230.5,243.5C 233.968,248.219 232.801,251.219 227,252.5C 226.667,250.5 226.333,248.5 226,246.5C 224.542,245.253 223.042,245.253 221.5,246.5C 219.633,245.203 219.3,243.703 220.5,242C 219.191,239.077 217.691,236.244 216,233.5C 214.536,234.459 213.703,235.792 213.5,237.5C 214.651,239.325 215.318,241.325 215.5,243.5C 214.5,243.5 213.5,243.5 212.5,243.5C 212.167,242.167 211.833,242.167 211.5,243.5C 210.833,243.5 210.167,243.5 209.5,243.5C 210.686,242.039 210.686,240.705 209.5,239.5C 208.496,236.125 207.496,232.792 206.5,229.5C 205.091,227.695 204.591,225.695 205,223.5C 206.793,220.705 208.96,218.205 211.5,216C 215.441,214.063 219.107,214.563 222.5,217.5C 223.848,219.359 225.015,221.359 226,223.5C 231.843,222.502 237.677,221.335 243.5,220C 244.824,216.572 246.657,213.405 249,210.5C 249.253,207.8 249.253,205.133 249,202.5C 253.204,201.102 257.371,201.269 261.5,203C 262.274,205.405 262.774,207.905 263,210.5C 265.083,212.764 266.583,215.431 267.5,218.5C 269.512,220.341 271.845,221.341 274.5,221.5 Z"/></g>
<g><path style="opacity:1" fill="#e6fdfd" d="M 328.5,171.5 C 326.574,174.156 324.574,176.823 322.5,179.5C 316.911,180.966 311.911,183.466 307.5,187C 309.786,188.465 309.286,189.299 306,189.5C 305.167,189.333 304.333,189.167 303.5,189C 304.5,188.167 305.5,187.333 306.5,186.5C 306.167,186.167 305.833,185.833 305.5,185.5C 279.211,186.491 252.878,186.824 226.5,186.5C 226.334,193.508 226.5,200.508 227,207.5C 227.667,209.5 228.333,211.5 229,213.5C 229.718,214.451 230.551,214.617 231.5,214C 231.727,212.865 232.06,211.698 232.5,210.5C 233.736,209.754 235.07,209.421 236.5,209.5C 236.67,210.822 236.337,211.989 235.5,213C 233.559,214.903 231.226,215.736 228.5,215.5C 228.45,217.59 229.45,218.923 231.5,219.5C 233.06,217.571 235.06,216.238 237.5,215.5C 238.167,215.833 238.833,216.167 239.5,216.5C 240.281,215.271 240.781,213.938 241,212.5C 241.671,211.748 242.504,211.414 243.5,211.5C 243.435,213.696 242.768,215.696 241.5,217.5C 238.276,218.695 235.109,220.029 232,221.5C 229.65,220.496 227.316,219.496 225,218.5C 224.506,216.866 224.34,215.199 224.5,213.5C 224.5,203.833 224.5,194.167 224.5,184.5C 251.169,184.667 277.835,184.5 304.5,184C 309.581,182.95 314.248,181.116 318.5,178.5C 321.833,176.167 325.167,173.833 328.5,171.5 Z"/></g>
<g><path style="opacity:1" fill="#68dfec" d="M 274.5,221.5 C 271.845,221.341 269.512,220.341 267.5,218.5C 266.583,215.431 265.083,212.764 263,210.5C 262.774,207.905 262.274,205.405 261.5,203C 257.371,201.269 253.204,201.102 249,202.5C 249.253,205.133 249.253,207.8 249,210.5C 246.657,213.405 244.824,216.572 243.5,220C 237.677,221.335 231.843,222.502 226,223.5C 225.015,221.359 223.848,219.359 222.5,217.5C 222.989,216.005 223.655,214.671 224.5,213.5C 224.34,215.199 224.506,216.866 225,218.5C 227.316,219.496 229.65,220.496 232,221.5C 235.109,220.029 238.276,218.695 241.5,217.5C 242.768,215.696 243.435,213.696 243.5,211.5C 245.281,207.8 246.281,203.8 246.5,199.5C 251.844,199.334 257.177,199.501 262.5,200C 264.345,205.529 266.345,211.029 268.5,216.5C 270.571,218.185 272.571,219.852 274.5,221.5 Z"/></g>
<g><path style="opacity:1" fill="#e1e3e4" d="M 140.5,245.5 C 140.664,248.187 140.497,250.854 140,253.5C 139.586,253.043 139.086,252.709 138.5,252.5C 137.21,254.657 136.376,256.99 136,259.5C 135.122,256.743 134.122,254.076 133,251.5C 130.869,255.262 131.036,258.929 133.5,262.5C 133.245,266.07 132.245,266.403 130.5,263.5C 126.734,254.382 123.234,245.048 120,235.5C 117.173,239.155 115.007,243.155 113.5,247.5C 112.024,249.769 110.524,252.102 109,254.5C 105.6,253.46 102.1,252.794 98.5,252.5C 97.1667,251.833 95.8333,251.167 94.5,250.5C 99.0982,250.727 103.432,249.894 107.5,248C 107.957,247.586 108.291,247.086 108.5,246.5C 106.631,245.376 104.631,244.543 102.5,244C 103.448,243.517 104.448,243.351 105.5,243.5C 105.326,238.837 107.16,236.17 111,235.5C 112.105,232.17 113.938,229.337 116.5,227C 116.056,225.467 115.723,223.967 115.5,222.5C 113.503,225.346 111.67,228.346 110,231.5C 108.583,230.922 107.75,229.922 107.5,228.5C 108.434,224.627 109.934,220.961 112,217.5C 116.828,214.995 119.161,210.995 119,205.5C 119.667,204.833 120.333,204.167 121,203.5C 121.409,209.51 121.242,215.51 120.5,221.5C 121.5,221.5 122.5,221.5 123.5,221.5C 123.336,218.813 123.503,216.146 124,213.5C 125.049,212.483 126.216,212.316 127.5,213C 128.905,216.663 128.572,220.163 126.5,223.5C 127.745,228.694 128.411,228.694 128.5,223.5C 129.5,223.5 130.5,223.5 131.5,223.5C 131.338,225.527 131.505,227.527 132,229.5C 135.13,234.758 137.963,240.091 140.5,245.5 Z"/></g>
<g><path style="opacity:1" fill="#b6b8bb" d="M 60.5,214.5 C 60.8333,214.5 61.1667,214.5 61.5,214.5C 62.7684,218.767 65.4351,221.767 69.5,223.5C 69.8333,224.167 70.1667,224.833 70.5,225.5C 70.5,226.833 70.5,228.167 70.5,229.5C 66.7566,229.459 66.5899,230.126 70,231.5C 72.0408,230.577 74.2075,230.244 76.5,230.5C 76.67,231.822 76.3366,232.989 75.5,234C 73.2729,234.121 71.4396,234.954 70,236.5C 68.3905,235.853 66.8905,235.02 65.5,234C 67.3008,233.683 67.6341,233.016 66.5,232C 64.3594,231.427 62.3594,230.594 60.5,229.5C 60.5,224.5 60.5,219.5 60.5,214.5 Z"/></g>
<g><path style="opacity:1" fill="#b8c9d5" d="M 70.5,225.5 C 79.4466,229.816 88.7799,233.15 98.5,235.5C 100.577,234.677 102.244,233.344 103.5,231.5C 102.85,233.435 102.517,235.435 102.5,237.5C 100.143,237.663 97.8098,237.497 95.5,237C 90.5151,234.087 85.1817,232.754 79.5,233C 80.6853,234.353 82.0186,235.52 83.5,236.5C 81.3886,237.848 79.5553,237.515 78,235.5C 75.328,236.867 72.4946,237.867 69.5,238.5C 71.9541,240.821 74.7874,241.154 78,239.5C 81.6719,240.495 85.3386,241.495 89,242.5C 90.4357,242.441 91.769,242.108 93,241.5C 94.6883,242.325 94.8549,243.325 93.5,244.5C 91.5,245.167 89.5,245.833 87.5,246.5C 89.6432,248.21 91.9765,249.543 94.5,250.5C 89.3935,249.576 84.3935,248.242 79.5,246.5C 74.3423,243.755 69.3423,240.755 64.5,237.5C 63.588,235.405 62.4213,233.405 61,231.5C 60.5,254.831 60.3334,278.164 60.5,301.5C 59.1667,277.5 59.1667,253.5 60.5,229.5C 62.3594,230.594 64.3594,231.427 66.5,232C 67.6341,233.016 67.3008,233.683 65.5,234C 66.8905,235.02 68.3905,235.853 70,236.5C 71.4396,234.954 73.2729,234.121 75.5,234C 76.3366,232.989 76.67,231.822 76.5,230.5C 74.2075,230.244 72.0408,230.577 70,231.5C 66.5899,230.126 66.7566,229.459 70.5,229.5C 70.5,228.167 70.5,226.833 70.5,225.5 Z"/></g>
<g><path style="opacity:1" fill="#44d6f2" d="M 297.5,247.5 C 295.627,246.137 293.961,244.47 292.5,242.5C 292.167,243.333 291.833,244.167 291.5,245C 293.817,248.133 295.151,251.633 295.5,255.5C 294.325,255.719 293.325,255.386 292.5,254.5C 291.12,250.971 289.12,248.305 286.5,246.5C 284.883,249.28 283.716,252.28 283,255.5C 281.92,253.004 280.586,250.67 279,248.5C 277.915,249.736 277.082,251.069 276.5,252.5C 275.732,251.737 275.232,250.737 275,249.5C 273.992,249.018 272.825,248.852 271.5,249C 270.624,247.414 269.624,245.914 268.5,244.5C 255.426,238.731 244.592,241.398 236,252.5C 235.517,253.448 235.351,254.448 235.5,255.5C 235.371,257.216 235.038,258.883 234.5,260.5C 233.806,257.579 232.973,254.579 232,251.5C 228.922,253.194 227.422,255.861 227.5,259.5C 220.825,259.334 214.158,259.5 207.5,260C 207,260.5 206.5,261 206,261.5C 204.644,260.62 203.144,260.286 201.5,260.5C 201.5,259.167 201.5,257.833 201.5,256.5C 204.021,255.071 206.521,254.405 209,254.5C 211.467,251.266 212.633,247.599 212.5,243.5C 213.5,243.5 214.5,243.5 215.5,243.5C 215.318,241.325 214.651,239.325 213.5,237.5C 213.703,235.792 214.536,234.459 216,233.5C 217.691,236.244 219.191,239.077 220.5,242C 219.3,243.703 219.633,245.203 221.5,246.5C 223.042,245.253 224.542,245.253 226,246.5C 226.333,248.5 226.667,250.5 227,252.5C 232.801,251.219 233.968,248.219 230.5,243.5C 228.929,244.309 227.262,244.643 225.5,244.5C 225.5,242.833 225.5,241.167 225.5,239.5C 224.167,239.5 222.833,239.5 221.5,239.5C 221.33,238.178 221.663,237.011 222.5,236C 244.831,235.5 267.164,235.333 289.5,235.5C 289.167,238.5 290.5,239.833 293.5,239.5C 293.366,235.72 294.699,232.72 297.5,230.5C 298.842,234.798 297.842,238.465 294.5,241.5C 295.513,243.527 296.513,245.527 297.5,247.5 Z"/></g>
<g><path style="opacity:1" fill="#145a95" d="M 64.5,237.5 C 69.3423,240.755 74.3423,243.755 79.5,246.5C 77.8008,246.66 76.1341,246.494 74.5,246C 70.9494,243.732 67.6161,241.232 64.5,238.5C 63.914,238.709 63.414,239.043 63,239.5C 62.3333,260.833 62.3333,282.167 63,303.5C 64.6107,306.938 66.7774,309.938 69.5,312.5C 65.4351,310.767 62.7684,307.767 61.5,303.5C 61.5,281.5 61.5,259.5 61.5,237.5C 62.5,237.5 63.5,237.5 64.5,237.5 Z"/></g>
<g><path style="opacity:1" fill="#d6d5d5" d="M 94.5,250.5 C 91.9765,249.543 89.6432,248.21 87.5,246.5C 89.5,245.833 91.5,245.167 93.5,244.5C 94.8549,243.325 94.6883,242.325 93,241.5C 91.769,242.108 90.4357,242.441 89,242.5C 85.3386,241.495 81.6719,240.495 78,239.5C 74.7874,241.154 71.9541,240.821 69.5,238.5C 72.4946,237.867 75.328,236.867 78,235.5C 79.5553,237.515 81.3886,237.848 83.5,236.5C 82.0186,235.52 80.6853,234.353 79.5,233C 85.1817,232.754 90.5151,234.087 95.5,237C 97.8098,237.497 100.143,237.663 102.5,237.5C 102.517,235.435 102.85,233.435 103.5,231.5C 104.833,230.5 106.167,229.5 107.5,228.5C 107.75,229.922 108.583,230.922 110,231.5C 111.67,228.346 113.503,225.346 115.5,222.5C 115.723,223.967 116.056,225.467 116.5,227C 113.938,229.337 112.105,232.17 111,235.5C 107.16,236.17 105.326,238.837 105.5,243.5C 104.448,243.351 103.448,243.517 102.5,244C 104.631,244.543 106.631,245.376 108.5,246.5C 108.291,247.086 107.957,247.586 107.5,248C 103.432,249.894 99.0982,250.727 94.5,250.5 Z"/></g>
<g><path style="opacity:1" fill="#cacacb" d="M 206.5,229.5 C 207.496,232.792 208.496,236.125 209.5,239.5C 209.489,241.017 208.823,242.184 207.5,243C 202.943,245.13 198.277,246.963 193.5,248.5C 191.692,248.509 190.025,248.009 188.5,247C 188.833,246.667 189.167,246.333 189.5,246C 184.488,245.964 179.821,244.797 175.5,242.5C 175.863,241.817 176.196,241.15 176.5,240.5C 178.527,240.662 180.527,240.495 182.5,240C 182.167,239.667 181.833,239.333 181.5,239C 185.725,237.524 190.058,236.19 194.5,235C 195.056,234.617 195.389,234.117 195.5,233.5C 197.5,232.5 199.5,231.5 201.5,230.5C 203.216,230.371 204.883,230.038 206.5,229.5 Z"/></g>
<g><path style="opacity:1" fill="#f2fdfa" d="M 296.5,217.5 C 299.729,220.282 303.396,222.282 307.5,223.5C 307.612,228.663 305.946,233.163 302.5,237C 303.293,238.085 303.96,239.252 304.5,240.5C 309.456,241.494 314.456,241.827 319.5,241.5C 319.5,242.833 319.5,244.167 319.5,245.5C 314.87,245.692 310.37,245.025 306,243.5C 304.674,243.755 303.674,244.422 303,245.5C 301.513,244.747 301.346,243.914 302.5,243C 301.773,241.601 301.273,240.101 301,238.5C 300.004,242.207 300.67,245.541 303,248.5C 305.711,247.074 308.211,247.408 310.5,249.5C 311.801,248.522 312.968,248.855 314,250.5C 316.251,249.525 318.085,250.191 319.5,252.5C 318.271,253.281 316.938,253.781 315.5,254C 317.502,255.019 319.502,255.852 321.5,256.5C 314.219,256.173 307.553,254.173 301.5,250.5C 300.63,247.622 299.297,244.955 297.5,242.5C 300.124,237.459 302.458,232.293 304.5,227C 302.012,223.679 299.345,220.512 296.5,217.5 Z"/></g>
<g><path style="opacity:1" fill="#1c537f" d="M 64.5,237.5 C 63.5,237.5 62.5,237.5 61.5,237.5C 61.5,259.5 61.5,281.5 61.5,303.5C 60.6618,303.158 60.3284,302.492 60.5,301.5C 60.3334,278.164 60.5,254.831 61,231.5C 62.4213,233.405 63.588,235.405 64.5,237.5 Z"/></g>
<g><path style="opacity:1" fill="#5fcbdd" d="M 276.5,252.5 C 276.993,254.806 277.326,257.139 277.5,259.5C 278.012,266.031 277.178,272.364 275,278.5C 274.617,277.944 274.117,277.611 273.5,277.5C 276.337,271.491 277.171,265.157 276,258.5C 275.392,256.934 274.558,255.6 273.5,254.5C 269.583,247.611 263.583,243.944 255.5,243.5C 246.588,243.949 239.921,247.949 235.5,255.5C 235.351,254.448 235.517,253.448 236,252.5C 244.592,241.398 255.426,238.731 268.5,244.5C 269.624,245.914 270.624,247.414 271.5,249C 272.825,248.852 273.992,249.018 275,249.5C 275.232,250.737 275.732,251.737 276.5,252.5 Z"/></g>
<g><path style="opacity:1" fill="#025fa9" d="M 79.5,246.5 C 84.3935,248.242 89.3935,249.576 94.5,250.5C 95.8333,251.167 97.1667,251.833 98.5,252.5C 95.2234,252.784 92.0567,252.451 89,251.5C 88.6758,253.569 87.8425,253.902 86.5,252.5C 83.7151,255.666 80.7151,255.999 77.5,253.5C 74.3003,253.974 73.967,254.974 76.5,256.5C 77.6662,272.156 77.8329,287.823 77,303.5C 74.9555,302.228 73.1222,302.561 71.5,304.5C 75.2161,305.563 77.8828,307.897 79.5,311.5C 77.4301,311.552 75.0968,311.719 72.5,312C 74.8834,312.804 77.05,313.971 79,315.5C 81,312.833 83,312.833 85,315.5C 85.3333,315.167 85.6667,314.833 86,314.5C 86.139,317.445 87.3057,319.779 89.5,321.5C 82.0492,320.105 75.3825,317.105 69.5,312.5C 66.7774,309.938 64.6107,306.938 63,303.5C 62.3333,282.167 62.3333,260.833 63,239.5C 63.414,239.043 63.914,238.709 64.5,238.5C 67.6161,241.232 70.9494,243.732 74.5,246C 76.1341,246.494 77.8008,246.66 79.5,246.5 Z"/></g>
<g><path style="opacity:1" fill="#abcadf" d="M 209.5,239.5 C 210.686,240.705 210.686,242.039 209.5,243.5C 206.342,245.551 203.008,247.217 199.5,248.5C 199.167,248.5 198.833,248.5 198.5,248.5C 196.883,249.038 195.216,249.371 193.5,249.5C 193.5,249.167 193.5,248.833 193.5,248.5C 198.277,246.963 202.943,245.13 207.5,243C 208.823,242.184 209.489,241.017 209.5,239.5 Z"/></g>
<g><path style="opacity:1" fill="#1871b9" d="M 130.5,263.5 C 130.833,265.5 131.167,267.5 131.5,269.5C 129.556,264.7 126.556,260.533 122.5,257C 123.578,256.326 124.245,255.326 124.5,254C 123.57,251.756 122.403,249.59 121,247.5C 115.415,253.689 114.248,253.022 117.5,245.5C 117.333,244.833 117.167,244.167 117,243.5C 116.051,245.093 114.885,246.426 113.5,247.5C 115.007,243.155 117.173,239.155 120,235.5C 123.234,245.048 126.734,254.382 130.5,263.5 Z"/></g>
<g><path style="opacity:1" fill="#dedfe0" d="M 176.5,240.5 C 176.196,241.15 175.863,241.817 175.5,242.5C 179.821,244.797 184.488,245.964 189.5,246C 189.167,246.333 188.833,246.667 188.5,247C 190.025,248.009 191.692,248.509 193.5,248.5C 193.5,248.833 193.5,249.167 193.5,249.5C 187.807,248.931 182.474,249.931 177.5,252.5C 174.092,250.685 171.426,251.351 169.5,254.5C 166.489,256.875 164.156,259.875 162.5,263.5C 161.548,261.955 161.215,260.288 161.5,258.5C 160.167,258.5 158.833,258.5 157.5,258.5C 157.5,261.167 157.5,263.833 157.5,266.5C 156.167,266.5 154.833,266.5 153.5,266.5C 153.347,263.423 154.014,260.589 155.5,258C 155.167,256.333 154.833,254.667 154.5,253C 155.312,250.378 156.312,247.878 157.5,245.5C 161.611,245.752 165.611,246.252 169.5,247C 170.833,246.333 171.833,245.333 172.5,244C 170.655,242.577 168.655,241.41 166.5,240.5C 169.704,239.796 172.871,239.13 176,238.5C 176.464,239.094 176.631,239.761 176.5,240.5 Z"/></g>
<g><path style="opacity:1" fill="#fcfdfc" d="M 273.5,254.5 C 274.786,261.22 274.619,267.887 273,274.5C 271.743,276.746 269.91,278.079 267.5,278.5C 266.797,280.873 265.464,282.873 263.5,284.5C 258.821,284.666 254.155,284.499 249.5,284C 247.024,281.429 244.024,279.929 240.5,279.5C 240.431,276.916 239.265,274.916 237,273.5C 234.244,265.594 235.411,258.428 240.5,252C 243.368,251.139 245.702,249.472 247.5,247C 252.894,243.972 258.227,243.972 263.5,247C 266.567,249.877 269.901,252.377 273.5,254.5 Z"/></g>
<g><path style="opacity:1" fill="#0666b5" d="M 198.5,248.5 C 198.833,248.5 199.167,248.5 199.5,248.5C 201.833,248.5 204.167,248.5 206.5,248.5C 206.5,249.5 206.5,250.5 206.5,251.5C 202.919,251.138 199.919,252.138 197.5,254.5C 184.28,253.939 184.28,252.439 197.5,250C 198.056,249.617 198.389,249.117 198.5,248.5 Z"/></g>
<g><path style="opacity:1" fill="#bdd9ef" d="M 193.5,249.5 C 187.564,251.42 181.564,253.087 175.5,254.5C 173.5,254.5 171.5,254.5 169.5,254.5C 171.426,251.351 174.092,250.685 177.5,252.5C 182.474,249.931 187.807,248.931 193.5,249.5 Z"/></g>
<g><path style="opacity:1" fill="#dbfdfe" d="M 273.5,254.5 C 269.901,252.377 266.567,249.877 263.5,247C 258.227,243.972 252.894,243.972 247.5,247C 245.702,249.472 243.368,251.139 240.5,252C 235.411,258.428 234.244,265.594 237,273.5C 239.265,274.916 240.431,276.916 240.5,279.5C 244.024,279.929 247.024,281.429 249.5,284C 254.155,284.499 258.821,284.666 263.5,284.5C 250.196,288.768 240.696,284.435 235,271.5C 234.501,267.848 234.335,264.182 234.5,260.5C 235.038,258.883 235.371,257.216 235.5,255.5C 239.921,247.949 246.588,243.949 255.5,243.5C 263.583,243.944 269.583,247.611 273.5,254.5 Z"/></g>
<g><path style="opacity:1" fill="#1c75c0" d="M 158.5,241.5 C 155.272,248.283 151.272,254.617 146.5,260.5C 144.769,256.972 143.435,253.306 142.5,249.5C 143.833,249.5 145.167,249.5 146.5,249.5C 146.312,251.103 146.812,252.437 148,253.5C 151.258,252.446 152.092,250.446 150.5,247.5C 147.571,246.351 147.071,244.685 149,242.5C 150.706,243.308 151.539,244.641 151.5,246.5C 152.675,246.719 153.675,246.386 154.5,245.5C 155.015,243.775 155.682,242.108 156.5,240.5C 157.183,240.863 157.85,241.196 158.5,241.5 Z"/></g>
<g><path style="opacity:1" fill="#166eaf" d="M 198.5,248.5 C 198.389,249.117 198.056,249.617 197.5,250C 184.28,252.439 184.28,253.939 197.5,254.5C 195.35,255.67 193.016,256.67 190.5,257.5C 189.507,262.12 189.173,266.786 189.5,271.5C 188.511,266.025 188.178,260.358 188.5,254.5C 184.167,254.5 179.833,254.5 175.5,254.5C 181.564,253.087 187.564,251.42 193.5,249.5C 195.216,249.371 196.883,249.038 198.5,248.5 Z"/></g>
<g><path style="opacity:1" fill="#0b68a2" d="M 209.5,243.5 C 210.167,243.5 210.833,243.5 211.5,243.5C 210.302,251.376 205.636,255.042 197.5,254.5C 199.919,252.138 202.919,251.138 206.5,251.5C 206.5,250.5 206.5,249.5 206.5,248.5C 204.167,248.5 201.833,248.5 199.5,248.5C 203.008,247.217 206.342,245.551 209.5,243.5 Z"/></g>
<g><path style="opacity:1" fill="#0166b4" d="M 113.5,247.5 C 113.585,250.649 112.585,253.316 110.5,255.5C 104.819,255.635 99.1523,255.968 93.5,256.5C 92.9779,273.895 93.6445,291.228 95.5,308.5C 95.087,311.232 94.4203,313.899 93.5,316.5C 93.5698,317.772 93.9032,318.938 94.5,320C 96.1341,320.494 97.8008,320.66 99.5,320.5C 103.319,322.304 107.319,323.638 111.5,324.5C 104.231,323.634 96.8972,322.634 89.5,321.5C 87.3057,319.779 86.139,317.445 86,314.5C 85.6667,314.833 85.3333,315.167 85,315.5C 83,312.833 81,312.833 79,315.5C 77.05,313.971 74.8834,312.804 72.5,312C 75.0968,311.719 77.4301,311.552 79.5,311.5C 77.8828,307.897 75.2161,305.563 71.5,304.5C 73.1222,302.561 74.9555,302.228 77,303.5C 77.8329,287.823 77.6662,272.156 76.5,256.5C 73.967,254.974 74.3003,253.974 77.5,253.5C 80.7151,255.999 83.7151,255.666 86.5,252.5C 87.8425,253.902 88.6758,253.569 89,251.5C 92.0567,252.451 95.2234,252.784 98.5,252.5C 102.1,252.794 105.6,253.46 109,254.5C 110.524,252.102 112.024,249.769 113.5,247.5 Z"/></g>
<g><path style="opacity:1" fill="#006bbe" d="M 110.5,255.5 C 109.791,256.404 108.791,256.737 107.5,256.5C 107.5,277.167 107.5,297.833 107.5,318.5C 104.673,318.584 102.006,319.25 99.5,320.5C 97.8008,320.66 96.1341,320.494 94.5,320C 93.9032,318.938 93.5698,317.772 93.5,316.5C 94.4203,313.899 95.087,311.232 95.5,308.5C 93.6445,291.228 92.9779,273.895 93.5,256.5C 99.1523,255.968 104.819,255.635 110.5,255.5 Z"/></g>
<g><path style="opacity:1" fill="#0171c9" d="M 131.5,269.5 C 131.756,271.792 131.423,273.959 130.5,276C 132.333,276.5 133.5,277.667 134,279.5C 135.415,285.438 137.248,291.105 139.5,296.5C 138.735,295.34 137.735,294.34 136.5,293.5C 132.763,298.979 131.096,305.146 131.5,312C 131.568,314.95 132.234,317.617 133.5,320C 130.144,320.215 126.811,320.215 123.5,320C 125.618,321.082 127.618,322.249 129.5,323.5C 127.952,323.821 127.285,324.821 127.5,326.5C 122.278,325.236 116.945,324.569 111.5,324.5C 107.319,323.638 103.319,322.304 99.5,320.5C 102.006,319.25 104.673,318.584 107.5,318.5C 107.5,297.833 107.5,277.167 107.5,256.5C 108.791,256.737 109.791,256.404 110.5,255.5C 112.585,253.316 113.585,250.649 113.5,247.5C 114.885,246.426 116.051,245.093 117,243.5C 117.167,244.167 117.333,244.833 117.5,245.5C 114.248,253.022 115.415,253.689 121,247.5C 122.403,249.59 123.57,251.756 124.5,254C 124.245,255.326 123.578,256.326 122.5,257C 126.556,260.533 129.556,264.7 131.5,269.5 Z"/></g>
<g><path style="opacity:1" fill="#dce5ed" d="M 195.5,233.5 C 195.389,234.117 195.056,234.617 194.5,235C 190.058,236.19 185.725,237.524 181.5,239C 181.833,239.333 182.167,239.667 182.5,240C 180.527,240.495 178.527,240.662 176.5,240.5C 176.631,239.761 176.464,239.094 176,238.5C 172.871,239.13 169.704,239.796 166.5,240.5C 168.655,241.41 170.655,242.577 172.5,244C 171.833,245.333 170.833,246.333 169.5,247C 165.611,246.252 161.611,245.752 157.5,245.5C 156.312,247.878 155.312,250.378 154.5,253C 154.833,254.667 155.167,256.333 155.5,258C 154.014,260.589 153.347,263.423 153.5,266.5C 154.833,266.5 156.167,266.5 157.5,266.5C 157.5,263.833 157.5,261.167 157.5,258.5C 158.833,258.5 160.167,258.5 161.5,258.5C 161.215,260.288 161.548,261.955 162.5,263.5C 164.156,259.875 166.489,256.875 169.5,254.5C 165.5,261.5 161.5,268.5 157.5,275.5C 152.167,282.833 146.833,290.167 141.5,297.5C 140.629,294.888 139.963,292.221 139.5,289.5C 140.943,290.335 141.943,291.668 142.5,293.5C 144.192,291.641 145.692,289.641 147,287.5C 146.574,284.503 145.241,281.837 143,279.5C 141.633,280.524 140.8,280.024 140.5,278C 140.944,276.238 141.444,276.405 142,278.5C 144.556,277.781 145.723,276.114 145.5,273.5C 147.2,273.374 148.7,272.707 150,271.5C 150.95,272.022 151.784,272.689 152.5,273.5C 153.211,270.849 152.544,268.349 150.5,266C 151.673,263.479 151.673,260.979 150.5,258.5C 148.45,261.149 147.283,264.149 147,267.5C 145.989,268.337 144.822,268.67 143.5,268.5C 143.719,269.675 143.386,270.675 142.5,271.5C 142.016,268.374 140.683,265.707 138.5,263.5C 137.175,269.427 136.508,275.427 136.5,281.5C 134.833,277.5 133.167,273.5 131.5,269.5C 131.167,267.5 130.833,265.5 130.5,263.5C 132.245,266.403 133.245,266.07 133.5,262.5C 131.036,258.929 130.869,255.262 133,251.5C 134.122,254.076 135.122,256.743 136,259.5C 136.376,256.99 137.21,254.657 138.5,252.5C 139.086,252.709 139.586,253.043 140,253.5C 140.497,250.854 140.664,248.187 140.5,245.5C 141.167,246.5 141.833,247.5 142.5,248.5C 142.5,248.833 142.5,249.167 142.5,249.5C 143.435,253.306 144.769,256.972 146.5,260.5C 151.272,254.617 155.272,248.283 158.5,241.5C 161.185,239.741 164.185,238.741 167.5,238.5C 176.954,237.469 186.288,235.803 195.5,233.5 Z"/></g>
<g><path style="opacity:1" fill="#3dcbea" d="M 297.5,247.5 C 297.5,248.833 297.5,250.167 297.5,251.5C 299.099,251.768 300.432,251.434 301.5,250.5C 307.553,254.173 314.219,256.173 321.5,256.5C 321.5,256.833 321.5,257.167 321.5,257.5C 321.5,262.167 321.5,266.833 321.5,271.5C 316.903,273.032 312.236,274.365 307.5,275.5C 305.5,275.5 303.5,275.5 301.5,275.5C 301.31,278.586 300.31,280.586 298.5,281.5C 297.975,277.667 296.975,274 295.5,270.5C 294.5,270.5 293.5,270.5 292.5,270.5C 292.739,272.467 292.406,274.301 291.5,276C 294.925,278.285 295.425,281.118 293,284.5C 292.259,285.641 291.425,285.641 290.5,284.5C 290.167,283 289.833,281.5 289.5,280C 289.481,276.927 290.147,274.093 291.5,271.5C 290.325,271.281 289.325,271.614 288.5,272.5C 287.985,274.225 287.318,275.892 286.5,277.5C 284.991,275.344 283.991,273.01 283.5,270.5C 282.325,270.719 281.325,270.386 280.5,269.5C 279.919,265.929 278.919,262.596 277.5,259.5C 277.326,257.139 276.993,254.806 276.5,252.5C 277.082,251.069 277.915,249.736 279,248.5C 280.586,250.67 281.92,253.004 283,255.5C 283.716,252.28 284.883,249.28 286.5,246.5C 289.12,248.305 291.12,250.971 292.5,254.5C 293.325,255.386 294.325,255.719 295.5,255.5C 295.151,251.633 293.817,248.133 291.5,245C 291.833,244.167 292.167,243.333 292.5,242.5C 293.961,244.47 295.627,246.137 297.5,247.5 Z"/></g>
<g><path style="opacity:1" fill="#026ec1" d="M 169.5,254.5 C 171.5,254.5 173.5,254.5 175.5,254.5C 179.833,254.5 184.167,254.5 188.5,254.5C 188.178,260.358 188.511,266.025 189.5,271.5C 189.842,272.338 190.508,272.672 191.5,272.5C 193.403,275.247 195.737,277.747 198.5,280C 197.056,282.034 195.056,282.868 192.5,282.5C 192.5,283.833 192.5,285.167 192.5,286.5C 194.948,286.085 196.281,287.085 196.5,289.5C 196.132,290.91 195.299,291.91 194,292.5C 193.333,291.167 192.667,291.167 192,292.5C 191.294,294.971 191.627,297.305 193,299.5C 193.333,298.833 193.667,298.167 194,297.5C 194.741,298.641 195.575,298.641 196.5,297.5C 197.877,299.289 198.877,301.289 199.5,303.5C 197.631,304.624 195.631,305.457 193.5,306C 193.296,309.428 194.629,312.428 197.5,315C 193.329,318.727 188.662,321.56 183.5,323.5C 180.873,324.092 178.206,324.425 175.5,324.5C 177.476,322.989 179.809,322.156 182.5,322C 177.467,321.829 172.467,321.329 167.5,320.5C 170.027,319.786 172.527,319.12 175,318.5C 175.382,300.601 175.215,282.768 174.5,265C 174.974,263.392 175.641,263.226 176.5,264.5C 177.035,266.661 177.868,268.661 179,270.5C 181.232,265.603 180.899,260.937 178,256.5C 177.962,261.273 176.295,262.273 173,259.5C 170.62,260.201 168.453,261.367 166.5,263C 164.27,267.173 162.27,271.34 160.5,275.5C 159.5,275.5 158.5,275.5 157.5,275.5C 161.5,268.5 165.5,261.5 169.5,254.5 Z"/></g>
<g><path style="opacity:1" fill="#e3fdfd" d="M 273.5,254.5 C 274.558,255.6 275.392,256.934 276,258.5C 277.171,265.157 276.337,271.491 273.5,277.5C 271.167,279.167 269.167,281.167 267.5,283.5C 266.167,283.833 264.833,284.167 263.5,284.5C 265.464,282.873 266.797,280.873 267.5,278.5C 269.91,278.079 271.743,276.746 273,274.5C 274.619,267.887 274.786,261.22 273.5,254.5 Z"/></g>
<g><path style="opacity:1" fill="#e2fdfd" d="M 321.5,257.5 C 322.547,258.888 323.88,259.721 325.5,260C 323.392,263.913 322.059,268.079 321.5,272.5C 315.814,275.373 309.814,277.373 303.5,278.5C 303.48,280.143 304.147,281.476 305.5,282.5C 304.311,283.429 302.978,283.762 301.5,283.5C 301.423,287.215 301.756,290.881 302.5,294.5C 300.941,292.392 299.608,290.059 298.5,287.5C 300.171,284.158 301.838,280.824 303.5,277.5C 305.026,277.006 306.359,276.339 307.5,275.5C 312.236,274.365 316.903,273.032 321.5,271.5C 321.5,266.833 321.5,262.167 321.5,257.5 Z"/></g>
<g><path style="opacity:1" fill="#e5e6e5" d="M 139.5,289.5 C 138.129,287.064 137.129,284.397 136.5,281.5C 136.508,275.427 137.175,269.427 138.5,263.5C 140.683,265.707 142.016,268.374 142.5,271.5C 143.386,270.675 143.719,269.675 143.5,268.5C 144.822,268.67 145.989,268.337 147,267.5C 147.283,264.149 148.45,261.149 150.5,258.5C 151.673,260.979 151.673,263.479 150.5,266C 152.544,268.349 153.211,270.849 152.5,273.5C 151.784,272.689 150.95,272.022 150,271.5C 148.7,272.707 147.2,273.374 145.5,273.5C 145.723,276.114 144.556,277.781 142,278.5C 141.444,276.405 140.944,276.238 140.5,278C 140.8,280.024 141.633,280.524 143,279.5C 145.241,281.837 146.574,284.503 147,287.5C 145.692,289.641 144.192,291.641 142.5,293.5C 141.943,291.668 140.943,290.335 139.5,289.5 Z"/></g>
<g><path style="opacity:1" fill="#3ac5e5" d="M 212.5,243.5 C 212.633,247.599 211.467,251.266 209,254.5C 206.521,254.405 204.021,255.071 201.5,256.5C 201.5,257.833 201.5,259.167 201.5,260.5C 203.144,260.286 204.644,260.62 206,261.5C 206.5,261 207,260.5 207.5,260C 214.158,259.5 220.825,259.334 227.5,259.5C 227.422,255.861 228.922,253.194 232,251.5C 232.973,254.579 233.806,257.579 234.5,260.5C 234.335,264.182 234.501,267.848 235,271.5C 240.696,284.435 250.196,288.768 263.5,284.5C 264.833,284.167 266.167,283.833 267.5,283.5C 266.357,285.101 267.024,285.767 269.5,285.5C 271.798,285.268 273.965,284.601 276,283.5C 278.748,284.194 279.582,285.694 278.5,288C 268.147,288.518 257.814,288.184 247.5,287C 245.581,285.066 244.081,285.233 243,287.5C 241.755,287.539 240.422,287.205 239,286.5C 235.422,289.571 233.255,288.904 232.5,284.5C 231.5,284.5 230.5,284.5 229.5,284.5C 229.884,282.335 229.217,280.668 227.5,279.5C 225.889,280.32 225.222,281.654 225.5,283.5C 222.833,283.5 220.167,283.5 217.5,283.5C 217.949,285.977 217.283,287.977 215.5,289.5C 214.131,287.236 213.131,284.903 212.5,282.5C 211.404,278.934 210.238,275.268 209,271.5C 207.302,272.733 205.302,273.4 203,273.5C 198.475,272.934 193.975,272.268 189.5,271.5C 189.173,266.786 189.507,262.12 190.5,257.5C 193.016,256.67 195.35,255.67 197.5,254.5C 205.636,255.042 210.302,251.376 211.5,243.5C 211.833,242.167 212.167,242.167 212.5,243.5 Z"/></g>
<g><path style="opacity:1" fill="#2172b2" d="M 131.5,269.5 C 133.167,273.5 134.833,277.5 136.5,281.5C 137.129,284.397 138.129,287.064 139.5,289.5C 139.963,292.221 140.629,294.888 141.5,297.5C 140.833,297.167 140.167,296.833 139.5,296.5C 137.248,291.105 135.415,285.438 134,279.5C 133.5,277.667 132.333,276.5 130.5,276C 131.423,273.959 131.756,271.792 131.5,269.5 Z"/></g>
<g><path style="opacity:1" fill="#0267b5" d="M 191.5,272.5 C 196.419,274.148 201.419,275.648 206.5,277C 210.01,280.862 211.51,285.362 211,290.5C 208.639,295.25 206.473,300.083 204.5,305C 205.65,307.316 207.317,309.15 209.5,310.5C 209.33,311.822 209.663,312.989 210.5,314C 208.323,315.202 205.989,315.702 203.5,315.5C 203.5,316.5 203.5,317.5 203.5,318.5C 198.835,319.041 194.835,320.708 191.5,323.5C 190.5,323.5 189.5,323.5 188.5,323.5C 186.833,323.5 185.167,323.5 183.5,323.5C 188.662,321.56 193.329,318.727 197.5,315C 194.629,312.428 193.296,309.428 193.5,306C 195.631,305.457 197.631,304.624 199.5,303.5C 198.877,301.289 197.877,299.289 196.5,297.5C 195.575,298.641 194.741,298.641 194,297.5C 193.667,298.167 193.333,298.833 193,299.5C 191.627,297.305 191.294,294.971 192,292.5C 192.667,291.167 193.333,291.167 194,292.5C 195.299,291.91 196.132,290.91 196.5,289.5C 196.281,287.085 194.948,286.085 192.5,286.5C 192.5,285.167 192.5,283.833 192.5,282.5C 195.056,282.868 197.056,282.034 198.5,280C 195.737,277.747 193.403,275.247 191.5,272.5 Z"/></g>
<g><path style="opacity:1" fill="#32bee1" d="M 277.5,259.5 C 278.919,262.596 279.919,265.929 280.5,269.5C 281.325,270.386 282.325,270.719 283.5,270.5C 283.991,273.01 284.991,275.344 286.5,277.5C 287.318,275.892 287.985,274.225 288.5,272.5C 289.325,271.614 290.325,271.281 291.5,271.5C 290.147,274.093 289.481,276.927 289.5,280C 289.833,281.5 290.167,283 290.5,284.5C 291.425,285.641 292.259,285.641 293,284.5C 295.425,281.118 294.925,278.285 291.5,276C 292.406,274.301 292.739,272.467 292.5,270.5C 293.5,270.5 294.5,270.5 295.5,270.5C 296.975,274 297.975,277.667 298.5,281.5C 297.523,284.287 297.19,287.287 297.5,290.5C 296.167,290.5 294.833,290.5 293.5,290.5C 293.396,293.09 294.063,295.423 295.5,297.5C 295.132,299.175 294.132,300.175 292.5,300.5C 291.542,300.047 290.708,299.381 290,298.5C 289.767,296.22 288.934,294.22 287.5,292.5C 286.614,293.325 286.281,294.325 286.5,295.5C 276.167,295.5 265.833,295.5 255.5,295.5C 255.5,293.833 255.5,292.167 255.5,290.5C 250.167,290.5 244.833,290.5 239.5,290.5C 239.5,292.167 239.5,293.833 239.5,295.5C 234.156,295.334 228.823,295.501 223.5,296C 223.957,296.414 224.291,296.914 224.5,297.5C 223.846,299.115 223.346,300.782 223,302.5C 221.325,300.409 220.825,298.242 221.5,296C 219.833,295.333 218.167,295.333 216.5,296C 215.549,299.057 215.216,302.223 215.5,305.5C 213.396,305.799 211.396,305.466 209.5,304.5C 211.928,297.373 212.928,290.039 212.5,282.5C 213.131,284.903 214.131,287.236 215.5,289.5C 217.283,287.977 217.949,285.977 217.5,283.5C 220.167,283.5 222.833,283.5 225.5,283.5C 225.222,281.654 225.889,280.32 227.5,279.5C 229.217,280.668 229.884,282.335 229.5,284.5C 230.5,284.5 231.5,284.5 232.5,284.5C 233.255,288.904 235.422,289.571 239,286.5C 240.422,287.205 241.755,287.539 243,287.5C 244.081,285.233 245.581,285.066 247.5,287C 257.814,288.184 268.147,288.518 278.5,288C 279.582,285.694 278.748,284.194 276,283.5C 273.965,284.601 271.798,285.268 269.5,285.5C 267.024,285.767 266.357,285.101 267.5,283.5C 269.167,281.167 271.167,279.167 273.5,277.5C 274.117,277.611 274.617,277.944 275,278.5C 277.178,272.364 278.012,266.031 277.5,259.5 Z"/></g>
<g><path style="opacity:1" fill="#2eb7db" d="M 189.5,271.5 C 193.975,272.268 198.475,272.934 203,273.5C 205.302,273.4 207.302,272.733 209,271.5C 210.238,275.268 211.404,278.934 212.5,282.5C 212.928,290.039 211.928,297.373 209.5,304.5C 211.396,305.466 213.396,305.799 215.5,305.5C 215.216,302.223 215.549,299.057 216.5,296C 218.167,295.333 219.833,295.333 221.5,296C 220.825,298.242 221.325,300.409 223,302.5C 223.346,300.782 223.846,299.115 224.5,297.5C 224.291,296.914 223.957,296.414 223.5,296C 228.823,295.501 234.156,295.334 239.5,295.5C 239.5,293.833 239.5,292.167 239.5,290.5C 244.833,290.5 250.167,290.5 255.5,290.5C 255.5,292.167 255.5,293.833 255.5,295.5C 265.833,295.5 276.167,295.5 286.5,295.5C 286.281,294.325 286.614,293.325 287.5,292.5C 288.934,294.22 289.767,296.22 290,298.5C 290.708,299.381 291.542,300.047 292.5,300.5C 291.489,303.018 290.156,303.018 288.5,300.5C 287.139,302.028 285.972,303.695 285,305.5C 284.667,304.833 284.333,304.167 284,303.5C 283.481,304.516 282.647,305.182 281.5,305.5C 279.014,305.35 276.347,305.184 273.5,305C 271.963,306.11 271.297,307.61 271.5,309.5C 270.167,309.5 268.833,309.5 267.5,309.5C 266.932,316.005 265.599,322.338 263.5,328.5C 259.116,328.826 254.783,328.492 250.5,327.5C 248.093,322.512 246.926,317.179 247,311.5C 244.99,310.152 242.99,308.818 241,307.5C 239.97,307.836 239.47,308.503 239.5,309.5C 237.095,309.134 234.762,308.467 232.5,307.5C 226.718,309.891 221.051,312.557 215.5,315.5C 214.817,315.137 214.15,314.804 213.5,314.5C 212.5,312.833 211.167,311.5 209.5,310.5C 207.317,309.15 205.65,307.316 204.5,305C 206.473,300.083 208.639,295.25 211,290.5C 211.51,285.362 210.01,280.862 206.5,277C 201.419,275.648 196.419,274.148 191.5,272.5C 190.508,272.672 189.842,272.338 189.5,271.5 Z"/></g>
<g><path style="opacity:1" fill="#3db4d1" d="M 307.5,275.5 C 306.359,276.339 305.026,277.006 303.5,277.5C 301.838,280.824 300.171,284.158 298.5,287.5C 299.608,290.059 300.941,292.392 302.5,294.5C 304.254,297.652 305.087,300.985 305,304.5C 302.167,307.333 299.333,310.167 296.5,313C 291.306,312.253 286.306,310.587 281.5,308C 277.13,307.928 273.297,309.428 270,312.5C 267.867,317.732 266.034,323.066 264.5,328.5C 259.208,329.495 253.875,329.828 248.5,329.5C 247.012,321.989 244.012,315.323 239.5,309.5C 239.47,308.503 239.97,307.836 241,307.5C 242.99,308.818 244.99,310.152 247,311.5C 246.926,317.179 248.093,322.512 250.5,327.5C 254.783,328.492 259.116,328.826 263.5,328.5C 265.599,322.338 266.932,316.005 267.5,309.5C 268.833,309.5 270.167,309.5 271.5,309.5C 271.297,307.61 271.963,306.11 273.5,305C 276.347,305.184 279.014,305.35 281.5,305.5C 282.647,305.182 283.481,304.516 284,303.5C 284.333,304.167 284.667,304.833 285,305.5C 285.972,303.695 287.139,302.028 288.5,300.5C 290.156,303.018 291.489,303.018 292.5,300.5C 294.132,300.175 295.132,299.175 295.5,297.5C 294.063,295.423 293.396,293.09 293.5,290.5C 294.833,290.5 296.167,290.5 297.5,290.5C 297.19,287.287 297.523,284.287 298.5,281.5C 300.31,280.586 301.31,278.586 301.5,275.5C 303.5,275.5 305.5,275.5 307.5,275.5 Z"/></g>
<g><path style="opacity:1" fill="#0275ce" d="M 175.5,324.5 C 172.22,325.712 168.887,326.712 165.5,327.5C 165.167,327.5 164.833,327.5 164.5,327.5C 155.494,327.666 146.494,327.5 137.5,327C 135.129,325.121 132.462,323.955 129.5,323.5C 127.618,322.249 125.618,321.082 123.5,320C 126.811,320.215 130.144,320.215 133.5,320C 132.234,317.617 131.568,314.95 131.5,312C 131.096,305.146 132.763,298.979 136.5,293.5C 137.735,294.34 138.735,295.34 139.5,296.5C 140.167,296.833 140.833,297.167 141.5,297.5C 146.833,290.167 152.167,282.833 157.5,275.5C 158.5,275.5 159.5,275.5 160.5,275.5C 162.27,271.34 164.27,267.173 166.5,263C 168.453,261.367 170.62,260.201 173,259.5C 176.295,262.273 177.962,261.273 178,256.5C 180.899,260.937 181.232,265.603 179,270.5C 177.868,268.661 177.035,266.661 176.5,264.5C 175.641,263.226 174.974,263.392 174.5,265C 175.215,282.768 175.382,300.601 175,318.5C 172.527,319.12 170.027,319.786 167.5,320.5C 172.467,321.329 177.467,321.829 182.5,322C 179.809,322.156 177.476,322.989 175.5,324.5 Z"/></g>
<g><path style="opacity:1" fill="#1f6597" d="M 209.5,310.5 C 211.167,311.5 212.5,312.833 213.5,314.5C 206.488,318.282 199.155,321.282 191.5,323.5C 194.835,320.708 198.835,319.041 203.5,318.5C 203.5,317.5 203.5,316.5 203.5,315.5C 205.989,315.702 208.323,315.202 210.5,314C 209.663,312.989 209.33,311.822 209.5,310.5 Z"/></g>
<g><path style="opacity:1" fill="#2874b3" d="M 89.5,321.5 C 96.8972,322.634 104.231,323.634 111.5,324.5C 116.945,324.569 122.278,325.236 127.5,326.5C 127.285,324.821 127.952,323.821 129.5,323.5C 132.462,323.955 135.129,325.121 137.5,327C 146.494,327.5 155.494,327.666 164.5,327.5C 143.552,330.22 122.552,329.553 101.5,325.5C 97.3194,324.461 93.3194,323.128 89.5,321.5 Z"/></g>
<g><path style="opacity:1" fill="#266da2" d="M 183.5,323.5 C 185.167,323.5 186.833,323.5 188.5,323.5C 187.791,324.404 186.791,324.737 185.5,324.5C 178.942,326.148 172.275,327.148 165.5,327.5C 168.887,326.712 172.22,325.712 175.5,324.5C 178.206,324.425 180.873,324.092 183.5,323.5 Z"/></g>
<g><path style="opacity:1" fill="#dffcfe" d="M 185.5,324.5 C 184.942,325.79 183.942,326.623 182.5,327C 155.754,330.983 129.087,331.316 102.5,328C 101.748,327.329 101.414,326.496 101.5,325.5C 122.552,329.553 143.552,330.22 164.5,327.5C 164.833,327.5 165.167,327.5 165.5,327.5C 172.275,327.148 178.942,326.148 185.5,324.5 Z"/></g>
</svg>
