<?xml version="1.0" encoding="UTF-8"?>
<!DOCTYPE svg PUBLIC "-//W3C//DTD SVG 1.1//EN" "http://www.w3.org/Graphics/SVG/1.1/DTD/svg11.dtd">
<svg xmlns="http://www.w3.org/2000/svg" version="1.1" width="512px" height="512px" style="shape-rendering:geometricPrecision; text-rendering:geometricPrecision; image-rendering:optimizeQuality; fill-rule:evenodd; clip-rule:evenodd" xmlns:xlink="http://www.w3.org/1999/xlink">
<g><path style="opacity:1" fill="#da3238" d="M -0.5,-0.5 C 170.167,-0.5 340.833,-0.5 511.5,-0.5C 511.5,84.8333 511.5,170.167 511.5,255.5C 505.167,250.167 498.833,244.833 492.5,239.5C 475.147,225.144 457.814,210.81 440.5,196.5C 411.917,170.885 382.583,146.218 352.5,122.5C 327.379,94.1184 295.712,80.7851 257.5,82.5C 252.138,82.4724 246.805,82.8058 241.5,83.5C 232.682,82.5067 223.682,82.1734 214.5,82.5C 213.5,197.999 213.167,313.665 213.5,429.5C 209.5,429.5 205.5,429.5 201.5,429.5C 201.833,313.665 201.5,197.999 200.5,82.5C 191.5,82.5 182.5,82.5 173.5,82.5C 172.5,197.999 172.167,313.665 172.5,429.5C 168.167,429.5 163.833,429.5 159.5,429.5C 159.5,313.833 159.5,198.167 159.5,82.5C 150.5,82.5 141.5,82.5 132.5,82.5C 132.5,198.167 132.5,313.833 132.5,429.5C 133.5,429.5 134.5,429.5 135.5,429.5C 167.193,453.853 199.193,477.853 231.5,501.5C 235.5,504.833 239.5,508.167 243.5,511.5C 162.167,511.5 80.8333,511.5 -0.5,511.5C -0.5,340.833 -0.5,170.167 -0.5,-0.5 Z"/></g>
<g><path style="opacity:1" fill="#fefefe" d="M 159.5,429.5 C 151.5,429.5 143.5,429.5 135.5,429.5C 134.5,429.5 133.5,429.5 132.5,429.5C 132.5,313.833 132.5,198.167 132.5,82.5C 141.5,82.5 150.5,82.5 159.5,82.5C 159.5,198.167 159.5,313.833 159.5,429.5 Z"/></g>
<g><path style="opacity:1" fill="#fefefe" d="M 214.5,82.5 C 223.682,82.1734 232.682,82.5067 241.5,83.5C 241.5,93.8333 241.5,104.167 241.5,114.5C 241.5,118.5 241.5,122.5 241.5,126.5C 241.5,136.5 241.5,146.5 241.5,156.5C 241.5,162.167 241.5,167.833 241.5,173.5C 241.5,188.5 241.5,203.5 241.5,218.5C 241.5,224.167 241.5,229.833 241.5,235.5C 241.5,245.5 241.5,255.5 241.5,265.5C 241.5,270.167 241.5,274.833 241.5,279.5C 241.5,298.833 241.5,318.167 241.5,337.5C 241.5,343.167 241.5,348.833 241.5,354.5C 241.5,364.5 241.5,374.5 241.5,384.5C 241.5,389.167 241.5,393.833 241.5,398.5C 241.5,408.167 241.5,417.833 241.5,427.5C 232.895,429.471 223.895,430.138 214.5,429.5C 214.5,313.833 214.5,198.167 214.5,82.5 Z"/></g>
<g><path style="opacity:1" fill="#f0aeb0" d="M 257.5,82.5 C 257.5,92.1667 257.5,101.833 257.5,111.5C 252.115,112.244 246.782,113.244 241.5,114.5C 241.5,104.167 241.5,93.8333 241.5,83.5C 246.805,82.8058 252.138,82.4724 257.5,82.5 Z"/></g>
<g><path style="opacity:1" fill="#fefdfd" d="M 257.5,82.5 C 295.712,80.7851 327.379,94.1184 352.5,122.5C 380.373,158.438 386.206,197.772 370,240.5C 367.487,245.527 364.987,250.527 362.5,255.5C 356.934,264.401 350.267,272.401 342.5,279.5C 339.167,282.5 335.833,285.5 332.5,288.5C 324.985,293.671 316.985,298.004 308.5,301.5C 304.018,302.99 299.684,304.657 295.5,306.5C 287.231,308.205 278.898,309.538 270.5,310.5C 266.833,310.5 263.167,310.5 259.5,310.5C 257.528,301.56 256.861,292.227 257.5,282.5C 297.203,284.243 326.036,267.577 344,232.5C 360.194,187.756 349.028,151.59 310.5,124C 294.063,114.704 276.396,110.537 257.5,111.5C 257.5,101.833 257.5,92.1667 257.5,82.5 Z"/></g>
<g><path style="opacity:1" fill="#da373b" d="M 257.5,111.5 C 276.396,110.537 294.063,114.704 310.5,124C 349.028,151.59 360.194,187.756 344,232.5C 326.036,267.577 297.203,284.243 257.5,282.5C 251.993,282.265 246.66,281.265 241.5,279.5C 241.5,274.833 241.5,270.167 241.5,265.5C 246.645,267.452 251.978,268.452 257.5,268.5C 262.5,269.833 267.5,269.833 272.5,268.5C 309.431,262.736 330.931,241.402 337,204.5C 339.001,164.168 320.834,137.668 282.5,125C 274.208,123.816 265.875,123.316 257.5,123.5C 252.018,123.858 246.685,124.858 241.5,126.5C 241.5,122.5 241.5,118.5 241.5,114.5C 246.782,113.244 252.115,112.244 257.5,111.5 Z"/></g>
<g><path style="opacity:1" fill="#f0adaf" d="M 257.5,123.5 C 257.5,132.5 257.5,141.5 257.5,150.5C 251.94,151.909 246.607,153.909 241.5,156.5C 241.5,146.5 241.5,136.5 241.5,126.5C 246.685,124.858 252.018,123.858 257.5,123.5 Z"/></g>
<g><path style="opacity:1" fill="#fefdfd" d="M 257.5,123.5 C 265.875,123.316 274.208,123.816 282.5,125C 320.834,137.668 339.001,164.168 337,204.5C 330.931,241.402 309.431,262.736 272.5,268.5C 267.833,268.5 263.167,268.5 258.5,268.5C 258.5,259.5 258.5,250.5 258.5,241.5C 290.186,241.978 307.519,226.478 310.5,195C 308.933,174.445 298.6,160.445 279.5,153C 272.32,150.892 264.987,150.058 257.5,150.5C 257.5,141.5 257.5,132.5 257.5,123.5 Z"/></g>
<g><path style="opacity:1" fill="#da373b" d="M 257.5,150.5 C 264.987,150.058 272.32,150.892 279.5,153C 298.6,160.445 308.933,174.445 310.5,195C 307.519,226.478 290.186,241.978 258.5,241.5C 258.167,241.5 257.833,241.5 257.5,241.5C 251.785,240.484 246.452,238.484 241.5,235.5C 241.5,229.833 241.5,224.167 241.5,218.5C 245.921,223.046 251.254,226.046 257.5,227.5C 280.517,229.311 293.517,218.811 296.5,196C 293.489,172.804 280.489,162.637 257.5,165.5C 251.352,166.574 246.019,169.24 241.5,173.5C 241.5,167.833 241.5,162.167 241.5,156.5C 246.607,153.909 251.94,151.909 257.5,150.5 Z"/></g>
<g><path style="opacity:1" fill="#bf3035" d="M 352.5,122.5 C 382.583,146.218 411.917,170.885 440.5,196.5C 439.047,197.825 439.381,198.658 441.5,199C 441,199.5 440.5,200 440,200.5C 439.28,198.745 438.113,197.911 436.5,198C 437.765,199.337 438.265,200.837 438,202.5C 437.667,202.167 437.333,201.833 437,201.5C 436.333,205.5 435.667,205.5 435,201.5C 434.25,202.126 433.416,202.626 432.5,203C 433.956,203.423 434.456,204.256 434,205.5C 433,205.5 432,205.5 431,205.5C 431,206.833 431,208.167 431,209.5C 428.118,210.358 425.618,211.858 423.5,214C 425.929,214.451 426.096,215.285 424,216.5C 423.28,214.745 422.113,213.911 420.5,214C 421.257,215.512 422.257,216.846 423.5,218C 422.551,218.617 421.718,218.451 421,217.5C 420.333,221.5 419.667,221.5 419,217.5C 418.25,218.126 417.416,218.626 416.5,219C 417.956,219.423 418.456,220.256 418,221.5C 417,221.5 416,221.5 415,221.5C 415,222.833 415,224.167 415,225.5C 412.118,226.358 409.618,227.858 407.5,230C 409.929,230.451 410.096,231.285 408,232.5C 407.28,230.745 406.113,229.911 404.5,230C 405.257,231.512 406.257,232.846 407.5,234C 406.551,234.617 405.718,234.451 405,233.5C 404.333,237.5 403.667,237.5 403,233.5C 402.25,234.126 401.416,234.626 400.5,235C 401.956,235.423 402.456,236.256 402,237.5C 401,237.5 400,237.5 399,237.5C 399,238.833 399,240.167 399,241.5C 396.118,242.358 393.618,243.858 391.5,246C 393.929,246.451 394.096,247.285 392,248.5C 391.28,246.745 390.113,245.911 388.5,246C 389.257,247.512 390.257,248.846 391.5,250C 390.551,250.617 389.718,250.451 389,249.5C 388.544,250.744 389.044,251.577 390.5,252C 389.552,252.483 388.552,252.649 387.5,252.5C 387.875,249.093 386.875,248.593 384.5,251C 385.308,251.308 385.975,251.808 386.5,252.5C 385.282,252.109 384.448,252.776 384,254.5C 383.667,254.167 383.333,253.833 383,253.5C 384.301,256.714 383.134,258.548 379.5,259C 381.795,259.984 381.461,260.817 378.5,261.5C 377.325,260.145 376.325,260.312 375.5,262C 376.167,262.333 376.833,262.667 377.5,263C 376.529,264.204 375.529,264.704 374.5,264.5C 374.709,265.086 375.043,265.586 375.5,266C 374.262,265.923 373.262,266.089 372.5,266.5C 374.762,268.508 374.262,268.841 371,267.5C 370.517,268.448 370.351,269.448 370.5,270.5C 370.167,270.5 369.833,270.5 369.5,270.5C 367.974,265.115 365.64,260.115 362.5,255.5C 364.987,250.527 367.487,245.527 370,240.5C 386.206,197.772 380.373,158.438 352.5,122.5 Z"/></g>
<g><path style="opacity:1" fill="#fefcfc" d="M 257.5,227.5 C 257.173,217.652 257.506,207.986 258.5,198.5C 261.511,202.976 265.344,203.642 270,200.5C 272.99,192.317 270.156,188.817 261.5,190C 260.29,191.039 259.29,192.206 258.5,193.5C 257.506,184.348 257.173,175.015 257.5,165.5C 280.489,162.637 293.489,172.804 296.5,196C 293.517,218.811 280.517,229.311 257.5,227.5 Z"/></g>
<g><path style="opacity:1" fill="#f0adaf" d="M 257.5,165.5 C 257.173,175.015 257.506,184.348 258.5,193.5C 258.5,195.167 258.5,196.833 258.5,198.5C 257.506,207.986 257.173,217.652 257.5,227.5C 251.254,226.046 245.921,223.046 241.5,218.5C 241.5,203.5 241.5,188.5 241.5,173.5C 246.019,169.24 251.352,166.574 257.5,165.5 Z"/></g>
<g><path style="opacity:1" fill="#db383c" d="M 258.5,198.5 C 258.5,196.833 258.5,195.167 258.5,193.5C 259.29,192.206 260.29,191.039 261.5,190C 270.156,188.817 272.99,192.317 270,200.5C 265.344,203.642 261.511,202.976 258.5,198.5 Z"/></g>
<g><path style="opacity:1" fill="#c53035" d="M 440.5,196.5 C 457.814,210.81 475.147,225.144 492.5,239.5C 491.272,240.025 490.438,241.358 490,243.5C 489.396,241.314 488.23,241.148 486.5,243C 487.672,243.419 488.672,244.085 489.5,245C 487.905,244.383 486.572,244.716 485.5,246C 486.167,246.333 486.833,246.667 487.5,247C 484.644,248.484 482.311,250.484 480.5,253C 475.999,252.067 475.666,252.734 479.5,255C 478.216,255.684 477.049,255.517 476,254.5C 475.138,256.087 474.471,257.754 474,259.5C 473.396,257.314 472.23,257.148 470.5,259C 471.672,259.419 472.672,260.085 473.5,261C 471.905,260.383 470.572,260.716 469.5,262C 470.167,262.333 470.833,262.667 471.5,263C 468.644,264.484 466.311,266.484 464.5,269C 459.999,268.067 459.666,268.734 463.5,271C 462.216,271.684 461.049,271.517 460,270.5C 459.138,272.087 458.471,273.754 458,275.5C 457.396,273.314 456.23,273.148 454.5,275C 455.672,275.419 456.672,276.085 457.5,277C 455.905,276.383 454.572,276.716 453.5,278C 454.167,278.333 454.833,278.667 455.5,279C 452.644,280.484 450.311,282.484 448.5,285C 443.999,284.067 443.666,284.734 447.5,287C 446.216,287.684 445.049,287.517 444,286.5C 443.138,288.087 442.471,289.754 442,291.5C 441.396,289.314 440.23,289.148 438.5,291C 442.578,292.299 443.078,294.132 440,296.5C 439.586,296.043 439.086,295.709 438.5,295.5C 437.41,296.727 436.076,297.56 434.5,298C 433.833,300 432.5,301.333 430.5,302C 431.517,303.049 431.684,304.216 431,305.5C 428.213,301.502 426.546,302.169 426,307.5C 425.396,305.314 424.23,305.148 422.5,307C 426.578,308.299 427.078,310.132 424,312.5C 423.586,312.043 423.086,311.709 422.5,311.5C 421.416,312.665 420.583,313.998 420,315.5C 419.667,314.833 419.333,314.167 419,313.5C 417.139,315.888 415.806,318.554 415,321.5C 412.213,317.502 410.546,318.169 410,323.5C 409.396,321.314 408.23,321.148 406.5,323C 410.578,324.299 411.078,326.132 408,328.5C 407.586,328.043 407.086,327.709 406.5,327.5C 405.243,329.97 403.743,332.303 402,334.5C 401.333,335.833 400.667,335.833 400,334.5C 399.667,335.5 399.333,336.5 399,337.5C 396.301,334.736 394.634,335.403 394,339.5C 392.951,338.483 391.784,338.316 390.5,339C 392.087,339.862 393.754,340.529 395.5,341C 394.333,342.167 393.167,343.333 392,344.5C 391.586,344.043 391.086,343.709 390.5,343.5C 389.243,345.97 387.743,348.303 386,350.5C 385.333,351.833 384.667,351.833 384,350.5C 383.667,351.5 383.333,352.5 383,353.5C 382.275,351.842 381.108,351.342 379.5,352C 378.833,353.333 378.167,354.667 377.5,356C 378.167,356.333 378.833,356.667 379.5,357C 375.338,357.829 372.838,360.329 372,364.5C 371.667,363.5 371.333,362.5 371,361.5C 369.837,363.285 369.17,365.285 369,367.5C 368.667,367.167 368.333,366.833 368,366.5C 367.925,368.935 367.092,369.602 365.5,368.5C 376.664,346.504 380.831,323.17 378,298.5C 376.412,288.905 373.912,279.572 370.5,270.5C 370.351,269.448 370.517,268.448 371,267.5C 374.262,268.841 374.762,268.508 372.5,266.5C 373.262,266.089 374.262,265.923 375.5,266C 375.043,265.586 374.709,265.086 374.5,264.5C 375.529,264.704 376.529,264.204 377.5,263C 376.833,262.667 376.167,262.333 375.5,262C 376.325,260.312 377.325,260.145 378.5,261.5C 381.461,260.817 381.795,259.984 379.5,259C 383.134,258.548 384.301,256.714 383,253.5C 383.333,253.833 383.667,254.167 384,254.5C 384.448,252.776 385.282,252.109 386.5,252.5C 385.975,251.808 385.308,251.308 384.5,251C 386.875,248.593 387.875,249.093 387.5,252.5C 388.552,252.649 389.552,252.483 390.5,252C 389.044,251.577 388.544,250.744 389,249.5C 389.718,250.451 390.551,250.617 391.5,250C 390.257,248.846 389.257,247.512 388.5,246C 390.113,245.911 391.28,246.745 392,248.5C 394.096,247.285 393.929,246.451 391.5,246C 393.618,243.858 396.118,242.358 399,241.5C 399,240.167 399,238.833 399,237.5C 400,237.5 401,237.5 402,237.5C 402.456,236.256 401.956,235.423 400.5,235C 401.416,234.626 402.25,234.126 403,233.5C 403.667,237.5 404.333,237.5 405,233.5C 405.718,234.451 406.551,234.617 407.5,234C 406.257,232.846 405.257,231.512 404.5,230C 406.113,229.911 407.28,230.745 408,232.5C 410.096,231.285 409.929,230.451 407.5,230C 409.618,227.858 412.118,226.358 415,225.5C 415,224.167 415,222.833 415,221.5C 416,221.5 417,221.5 418,221.5C 418.456,220.256 417.956,219.423 416.5,219C 417.416,218.626 418.25,218.126 419,217.5C 419.667,221.5 420.333,221.5 421,217.5C 421.718,218.451 422.551,218.617 423.5,218C 422.257,216.846 421.257,215.512 420.5,214C 422.113,213.911 423.28,214.745 424,216.5C 426.096,215.285 425.929,214.451 423.5,214C 425.618,211.858 428.118,210.358 431,209.5C 431,208.167 431,206.833 431,205.5C 432,205.5 433,205.5 434,205.5C 434.456,204.256 433.956,203.423 432.5,203C 433.416,202.626 434.25,202.126 435,201.5C 435.667,205.5 436.333,205.5 437,201.5C 437.333,201.833 437.667,202.167 438,202.5C 438.265,200.837 437.765,199.337 436.5,198C 438.113,197.911 439.28,198.745 440,200.5C 440.5,200 441,199.5 441.5,199C 439.381,198.658 439.047,197.825 440.5,196.5 Z"/></g>
<g><path style="opacity:1" fill="#f0adaf" d="M 241.5,235.5 C 246.452,238.484 251.785,240.484 257.5,241.5C 257.5,250.5 257.5,259.5 257.5,268.5C 251.978,268.452 246.645,267.452 241.5,265.5C 241.5,255.5 241.5,245.5 241.5,235.5 Z"/></g>
<g><path style="opacity:1" fill="#ca3035" d="M 492.5,239.5 C 498.833,244.833 505.167,250.167 511.5,255.5C 511.5,279.5 511.5,303.5 511.5,327.5C 509.862,329.301 508.029,330.967 506,332.5C 505.667,332.167 505.333,331.833 505,331.5C 505.973,332.974 506.473,334.474 506.5,336C 504.702,337.505 502.868,337.672 501,336.5C 499.08,339.339 497.413,342.339 496,345.5C 495.667,344.833 495.333,344.167 495,343.5C 493.5,345.667 491.667,347.5 489.5,349C 489.833,350 490.167,351 490.5,352C 488.702,353.505 486.868,353.672 485,352.5C 483.08,355.339 481.413,358.339 480,361.5C 479.667,360.833 479.333,360.167 479,359.5C 477.5,361.667 475.667,363.5 473.5,365C 473.833,366 474.167,367 474.5,368C 472.702,369.505 470.868,369.672 469,368.5C 467.08,371.339 465.413,374.339 464,377.5C 463.667,376.833 463.333,376.167 463,375.5C 461.045,377.911 459.211,380.411 457.5,383C 457.833,383.333 458.167,383.667 458.5,384C 456.975,385.009 455.308,385.509 453.5,385.5C 453.688,387.103 453.188,388.437 452,389.5C 451.667,388.833 451.333,388.167 451,387.5C 450,389.5 449,391.5 448,393.5C 447.667,392.833 447.333,392.167 447,391.5C 444.173,393.254 444.006,395.088 446.5,397C 443.128,398.198 440.128,399.698 437.5,401.5C 437.688,403.103 437.188,404.437 436,405.5C 435.667,404.833 435.333,404.167 435,403.5C 433.169,406.974 431.669,410.141 430.5,413C 429.192,413.824 427.692,414.324 426,414.5C 424.632,415.993 424.465,417.493 425.5,419C 424.333,419.5 423.5,420.333 423,421.5C 422.316,420.216 422.483,419.049 423.5,418C 423.167,417.833 422.833,417.667 422.5,417.5C 421.757,418.908 420.923,420.241 420,421.5C 419.667,420.833 419.333,420.167 419,419.5C 417.169,422.974 415.669,426.141 414.5,429C 413.192,429.824 411.692,430.324 410,430.5C 408.632,431.993 408.465,433.493 409.5,435C 408.333,435.5 407.5,436.333 407,437.5C 406.667,436.833 406.333,436.167 406,435.5C 404.615,436.551 403.615,437.884 403,439.5C 402.667,438.833 402.333,438.167 402,437.5C 401.104,440.14 399.604,442.307 397.5,444C 397.833,444.333 398.167,444.667 398.5,445C 397.192,445.824 395.692,446.324 394,446.5C 392.632,447.993 392.465,449.493 393.5,451C 391.741,452.008 390.574,453.508 390,455.5C 388.192,455.112 386.525,455.112 385,455.5C 384.426,457.492 383.259,458.992 381.5,460C 382.654,460.914 382.487,461.747 381,462.5C 379.984,461.366 379.317,461.699 379,463.5C 378.667,463.167 378.333,462.833 378,462.5C 376.632,463.993 376.465,465.493 377.5,467C 375.5,467.667 373.5,468.333 371.5,469C 372.624,469.249 373.624,469.749 374.5,470.5C 374.333,470.833 374.167,471.167 374,471.5C 372.192,471.112 370.525,471.112 369,471.5C 368.426,473.492 367.259,474.992 365.5,476C 366.654,476.914 366.487,477.747 365,478.5C 363.984,477.366 363.317,477.699 363,479.5C 362.667,479.167 362.333,478.833 362,478.5C 360.632,479.993 360.465,481.493 361.5,483C 359.5,483.667 357.5,484.333 355.5,485C 356.624,485.249 357.624,485.749 358.5,486.5C 356.405,486.063 354.738,487.063 353.5,489.5C 353.709,490.086 354.043,490.586 354.5,491C 353.256,491.456 352.423,490.956 352,489.5C 349.877,490.883 348.877,492.55 349,494.5C 348,494.5 347,494.5 346,494.5C 345,496.5 344,498.5 343,500.5C 341.927,499.72 340.76,499.887 339.5,501C 340.624,501.249 341.624,501.749 342.5,502.5C 342.333,502.833 342.167,503.167 342,503.5C 341.282,502.549 340.449,502.383 339.5,503C 337.699,504.387 337.032,505.887 337.5,507.5C 336.808,506.975 336.308,506.308 336,505.5C 335.315,508.323 333.815,510.323 331.5,511.5C 302.167,511.5 272.833,511.5 243.5,511.5C 239.5,508.167 235.5,504.833 231.5,501.5C 233.144,501.714 234.644,501.38 236,500.5C 236.333,501.5 236.667,502.5 237,503.5C 237.72,501.888 237.554,500.388 236.5,499C 238.723,498.348 239.89,496.848 240,494.5C 240.333,495.833 240.667,497.167 241,498.5C 241.465,497.069 242.299,495.903 243.5,495C 241.936,492.256 242.436,491.423 245,492.5C 246.762,492.056 246.595,491.556 244.5,491C 245.833,490.667 247.167,490.333 248.5,490C 247.692,489.692 247.025,489.192 246.5,488.5C 247.529,488.704 248.529,488.204 249.5,487C 248.833,486.667 248.167,486.333 247.5,486C 249.101,485.727 250.601,485.227 252,484.5C 252.333,485.5 252.667,486.5 253,487.5C 253.72,485.888 253.554,484.388 252.5,483C 254.723,482.348 255.89,480.848 256,478.5C 256.333,479.833 256.667,481.167 257,482.5C 257.465,481.069 258.299,479.903 259.5,479C 257.936,476.256 258.436,475.423 261,476.5C 261.5,476.333 262,476.167 262.5,476C 261.044,475.577 260.544,474.744 261,473.5C 264.262,474.841 264.762,474.508 262.5,472.5C 263.529,472.704 264.529,472.204 265.5,471C 264.833,470.667 264.167,470.333 263.5,470C 265.101,469.727 266.601,469.227 268,468.5C 269.666,469.34 269.833,468.84 268.5,467C 270.723,466.348 271.89,464.848 272,462.5C 273.085,464.657 274.251,464.824 275.5,463C 273.9,461.029 273.734,459.196 275,457.5C 275.483,458.448 275.649,459.448 275.5,460.5C 276.552,460.649 277.552,460.483 278.5,460C 277.044,459.577 276.544,458.744 277,457.5C 278.049,458.517 279.216,458.684 280.5,458C 279.328,457.581 278.328,456.915 277.5,456C 279.095,456.617 280.428,456.284 281.5,455C 280.833,454.667 280.167,454.333 279.5,454C 284.067,453.333 286.9,450.833 288,446.5C 289.085,448.657 290.251,448.824 291.5,447C 289.9,445.029 289.734,443.196 291,441.5C 291.483,442.448 291.649,443.448 291.5,444.5C 292.552,444.649 293.552,444.483 294.5,444C 293.044,443.577 292.544,442.744 293,441.5C 294.049,442.517 295.216,442.684 296.5,442C 295.328,441.581 294.328,440.915 293.5,440C 295.095,440.617 296.428,440.284 297.5,439C 296.833,438.667 296.167,438.333 295.5,438C 296.833,437.667 298.167,437.333 299.5,437C 298.833,436.667 298.167,436.333 297.5,436C 301.039,435.664 303.206,433.831 304,430.5C 305.085,432.657 306.251,432.824 307.5,431C 305.9,429.029 305.734,427.196 307,425.5C 307.667,429.5 308.333,429.5 309,425.5C 310.049,426.517 311.216,426.684 312.5,426C 311.328,425.581 310.328,424.915 309.5,424C 311.095,424.617 312.428,424.284 313.5,423C 312.833,422.667 312.167,422.333 311.5,422C 312.833,421.667 314.167,421.333 315.5,421C 314.244,420.583 313.577,419.75 313.5,418.5C 336.072,407.226 353.405,390.56 365.5,368.5C 367.092,369.602 367.925,368.935 368,366.5C 368.333,366.833 368.667,367.167 369,367.5C 369.17,365.285 369.837,363.285 371,361.5C 371.333,362.5 371.667,363.5 372,364.5C 372.838,360.329 375.338,357.829 379.5,357C 378.833,356.667 378.167,356.333 377.5,356C 378.167,354.667 378.833,353.333 379.5,352C 381.108,351.342 382.275,351.842 383,353.5C 383.333,352.5 383.667,351.5 384,350.5C 384.667,351.833 385.333,351.833 386,350.5C 387.743,348.303 389.243,345.97 390.5,343.5C 391.086,343.709 391.586,344.043 392,344.5C 393.167,343.333 394.333,342.167 395.5,341C 393.754,340.529 392.087,339.862 390.5,339C 391.784,338.316 392.951,338.483 394,339.5C 394.634,335.403 396.301,334.736 399,337.5C 399.333,336.5 399.667,335.5 400,334.5C 400.667,335.833 401.333,335.833 402,334.5C 403.743,332.303 405.243,329.97 406.5,327.5C 407.086,327.709 407.586,328.043 408,328.5C 411.078,326.132 410.578,324.299 406.5,323C 408.23,321.148 409.396,321.314 410,323.5C 410.546,318.169 412.213,317.502 415,321.5C 415.806,318.554 417.139,315.888 419,313.5C 419.333,314.167 419.667,314.833 420,315.5C 420.583,313.998 421.416,312.665 422.5,311.5C 423.086,311.709 423.586,312.043 424,312.5C 427.078,310.132 426.578,308.299 422.5,307C 424.23,305.148 425.396,305.314 426,307.5C 426.546,302.169 428.213,301.502 431,305.5C 431.684,304.216 431.517,303.049 430.5,302C 432.5,301.333 433.833,300 434.5,298C 436.076,297.56 437.41,296.727 438.5,295.5C 439.086,295.709 439.586,296.043 440,296.5C 443.078,294.132 442.578,292.299 438.5,291C 440.23,289.148 441.396,289.314 442,291.5C 442.471,289.754 443.138,288.087 444,286.5C 445.049,287.517 446.216,287.684 447.5,287C 443.666,284.734 443.999,284.067 448.5,285C 450.311,282.484 452.644,280.484 455.5,279C 454.833,278.667 454.167,278.333 453.5,278C 454.572,276.716 455.905,276.383 457.5,277C 456.672,276.085 455.672,275.419 454.5,275C 456.23,273.148 457.396,273.314 458,275.5C 458.471,273.754 459.138,272.087 460,270.5C 461.049,271.517 462.216,271.684 463.5,271C 459.666,268.734 459.999,268.067 464.5,269C 466.311,266.484 468.644,264.484 471.5,263C 470.833,262.667 470.167,262.333 469.5,262C 470.572,260.716 471.905,260.383 473.5,261C 472.672,260.085 471.672,259.419 470.5,259C 472.23,257.148 473.396,257.314 474,259.5C 474.471,257.754 475.138,256.087 476,254.5C 477.049,255.517 478.216,255.684 479.5,255C 475.666,252.734 475.999,252.067 480.5,253C 482.311,250.484 484.644,248.484 487.5,247C 486.833,246.667 486.167,246.333 485.5,246C 486.572,244.716 487.905,244.383 489.5,245C 488.672,244.085 487.672,243.419 486.5,243C 488.23,241.148 489.396,241.314 490,243.5C 490.438,241.358 491.272,240.025 492.5,239.5 Z"/></g>
<g><path style="opacity:1" fill="#f8d7d8" d="M 257.5,241.5 C 257.833,241.5 258.167,241.5 258.5,241.5C 258.5,250.5 258.5,259.5 258.5,268.5C 263.167,268.5 267.833,268.5 272.5,268.5C 267.5,269.833 262.5,269.833 257.5,268.5C 257.5,259.5 257.5,250.5 257.5,241.5 Z"/></g>
<g><path style="opacity:1" fill="#efadaf" d="M 362.5,255.5 C 365.64,260.115 367.974,265.115 369.5,270.5C 363.23,278.439 356.23,285.772 348.5,292.5C 347.25,287.72 345.25,283.387 342.5,279.5C 350.267,272.401 356.934,264.401 362.5,255.5 Z"/></g>
<g><path style="opacity:1" fill="#fefcfc" d="M 369.5,270.5 C 369.833,270.5 370.167,270.5 370.5,270.5C 373.912,279.572 376.412,288.905 378,298.5C 380.831,323.17 376.664,346.504 365.5,368.5C 353.405,390.56 336.072,407.226 313.5,418.5C 295.569,426.89 276.902,430.223 257.5,428.5C 257.5,419.5 257.5,410.5 257.5,401.5C 295.216,403.233 323.383,387.9 342,355.5C 351.891,335.266 354.057,314.266 348.5,292.5C 356.23,285.772 363.23,278.439 369.5,270.5 Z"/></g>
<g><path style="opacity:1" fill="#f0adaf" d="M 241.5,279.5 C 246.66,281.265 251.993,282.265 257.5,282.5C 256.861,292.227 257.528,301.56 259.5,310.5C 255.991,316.361 257.657,320.028 264.5,321.5C 270.901,320.371 272.901,316.704 270.5,310.5C 278.898,309.538 287.231,308.205 295.5,306.5C 296.802,311.933 296.802,317.266 295.5,322.5C 295.38,321.414 294.713,320.747 293.5,320.5C 281.658,323.161 269.658,324.161 257.5,323.5C 257.5,330.833 257.5,338.167 257.5,345.5C 251.352,344.426 246.019,341.76 241.5,337.5C 241.5,318.167 241.5,298.833 241.5,279.5 Z"/></g>
<g><path style="opacity:1" fill="#da373b" d="M 342.5,279.5 C 345.25,283.387 347.25,287.72 348.5,292.5C 354.057,314.266 351.891,335.266 342,355.5C 323.383,387.9 295.216,403.233 257.5,401.5C 252.062,401.012 246.729,400.012 241.5,398.5C 241.5,393.833 241.5,389.167 241.5,384.5C 246.633,386.449 251.966,387.449 257.5,387.5C 295.85,388.746 321.684,371.413 335,335.5C 337.503,324.439 338.003,313.439 336.5,302.5C 336.095,297.544 334.762,292.877 332.5,288.5C 335.833,285.5 339.167,282.5 342.5,279.5 Z"/></g>
<g><path style="opacity:1" fill="#f0adaf" d="M 332.5,288.5 C 334.762,292.877 336.095,297.544 336.5,302.5C 328.139,307.347 319.472,311.681 310.5,315.5C 310.65,310.7 309.984,306.033 308.5,301.5C 316.985,298.004 324.985,293.671 332.5,288.5 Z"/></g>
<g><path style="opacity:1" fill="#da373b" d="M 308.5,301.5 C 309.984,306.033 310.65,310.7 310.5,315.5C 308.504,340.001 295.504,354.834 271.5,360C 266.845,360.499 262.179,360.666 257.5,360.5C 251.94,359.091 246.607,357.091 241.5,354.5C 241.5,348.833 241.5,343.167 241.5,337.5C 246.019,341.76 251.352,344.426 257.5,345.5C 276.578,348.621 289.244,340.955 295.5,322.5C 296.802,317.266 296.802,311.933 295.5,306.5C 299.684,304.657 304.018,302.99 308.5,301.5 Z"/></g>
<g><path style="opacity:1" fill="#fefdfd" d="M 336.5,302.5 C 338.003,313.439 337.503,324.439 335,335.5C 321.684,371.413 295.85,388.746 257.5,387.5C 257.5,378.5 257.5,369.5 257.5,360.5C 262.179,360.666 266.845,360.499 271.5,360C 295.504,354.834 308.504,340.001 310.5,315.5C 319.472,311.681 328.139,307.347 336.5,302.5 Z"/></g>
<g><path style="opacity:1" fill="#da373c" d="M 259.5,310.5 C 263.167,310.5 266.833,310.5 270.5,310.5C 272.901,316.704 270.901,320.371 264.5,321.5C 257.657,320.028 255.991,316.361 259.5,310.5 Z"/></g>
<g><path style="opacity:1" fill="#fefcfc" d="M 295.5,322.5 C 289.244,340.955 276.578,348.621 257.5,345.5C 257.5,338.167 257.5,330.833 257.5,323.5C 269.658,324.161 281.658,323.161 293.5,320.5C 294.713,320.747 295.38,321.414 295.5,322.5 Z"/></g>
<g><path style="opacity:1" fill="#d03036" d="M 511.5,327.5 C 511.5,359.833 511.5,392.167 511.5,424.5C 509.914,425.148 508.247,425.648 506.5,426C 507.5,426.333 508.5,426.667 509.5,427C 508.234,427.309 507.067,427.809 506,428.5C 505.667,428.167 505.333,427.833 505,427.5C 504.154,429.847 502.654,431.68 500.5,433C 501.517,434.049 501.684,435.216 501,436.5C 500.667,435.833 500.333,435.167 500,434.5C 499.167,436 498,437.167 496.5,438C 496.833,438.333 497.167,438.667 497.5,439C 495.51,440.751 493.177,441.751 490.5,442C 491.5,442.333 492.5,442.667 493.5,443C 492.234,443.309 491.067,443.809 490,444.5C 489.667,444.167 489.333,443.833 489,443.5C 488.544,444.744 489.044,445.577 490.5,446C 488.249,445.787 486.249,446.787 484.5,449C 485.517,450.049 485.684,451.216 485,452.5C 484.667,451.833 484.333,451.167 484,450.5C 481.281,454.552 477.948,457.886 474,460.5C 473.667,460.167 473.333,459.833 473,459.5C 472.544,460.744 473.044,461.577 474.5,462C 473.428,463.284 472.095,463.617 470.5,463C 467.917,465.575 466.25,468.242 465.5,471C 463.833,472 462.167,473 460.5,474C 460.833,474.333 461.167,474.667 461.5,475C 460.234,475.309 459.067,475.809 458,476.5C 457.667,476.167 457.333,475.833 457,475.5C 456.544,476.744 457.044,477.577 458.5,478C 457.428,479.284 456.095,479.617 454.5,479C 451.917,481.575 450.25,484.242 449.5,487C 447.833,488 446.167,489 444.5,490C 444.833,490.333 445.167,490.667 445.5,491C 444.234,491.309 443.067,491.809 442,492.5C 441.667,492.167 441.333,491.833 441,491.5C 441.973,492.974 442.473,494.474 442.5,496C 441.167,495.667 439.833,495.333 438.5,495C 435.544,498.491 433.377,501.991 432,505.5C 430.927,504.72 429.76,504.887 428.5,506C 428.833,506.333 429.167,506.667 429.5,507C 428.234,507.309 427.067,507.809 426,508.5C 425.667,508.167 425.333,507.833 425,507.5C 424.544,508.744 425.044,509.577 426.5,510C 425.944,510.383 425.611,510.883 425.5,511.5C 394.167,511.5 362.833,511.5 331.5,511.5C 333.815,510.323 335.315,508.323 336,505.5C 336.308,506.308 336.808,506.975 337.5,507.5C 337.032,505.887 337.699,504.387 339.5,503C 340.449,502.383 341.282,502.549 342,503.5C 342.167,503.167 342.333,502.833 342.5,502.5C 341.624,501.749 340.624,501.249 339.5,501C 340.76,499.887 341.927,499.72 343,500.5C 344,498.5 345,496.5 346,494.5C 347,494.5 348,494.5 349,494.5C 348.877,492.55 349.877,490.883 352,489.5C 352.423,490.956 353.256,491.456 354.5,491C 354.043,490.586 353.709,490.086 353.5,489.5C 354.738,487.063 356.405,486.063 358.5,486.5C 357.624,485.749 356.624,485.249 355.5,485C 357.5,484.333 359.5,483.667 361.5,483C 360.465,481.493 360.632,479.993 362,478.5C 362.333,478.833 362.667,479.167 363,479.5C 363.317,477.699 363.984,477.366 365,478.5C 366.487,477.747 366.654,476.914 365.5,476C 367.259,474.992 368.426,473.492 369,471.5C 370.525,471.112 372.192,471.112 374,471.5C 374.167,471.167 374.333,470.833 374.5,470.5C 373.624,469.749 372.624,469.249 371.5,469C 373.5,468.333 375.5,467.667 377.5,467C 376.465,465.493 376.632,463.993 378,462.5C 378.333,462.833 378.667,463.167 379,463.5C 379.317,461.699 379.984,461.366 381,462.5C 382.487,461.747 382.654,460.914 381.5,460C 383.259,458.992 384.426,457.492 385,455.5C 386.525,455.112 388.192,455.112 390,455.5C 390.574,453.508 391.741,452.008 393.5,451C 392.465,449.493 392.632,447.993 394,446.5C 395.692,446.324 397.192,445.824 398.5,445C 398.167,444.667 397.833,444.333 397.5,444C 399.604,442.307 401.104,440.14 402,437.5C 402.333,438.167 402.667,438.833 403,439.5C 403.615,437.884 404.615,436.551 406,435.5C 406.333,436.167 406.667,436.833 407,437.5C 407.5,436.333 408.333,435.5 409.5,435C 408.465,433.493 408.632,431.993 410,430.5C 411.692,430.324 413.192,429.824 414.5,429C 415.669,426.141 417.169,422.974 419,419.5C 419.333,420.167 419.667,420.833 420,421.5C 420.923,420.241 421.757,418.908 422.5,417.5C 422.833,417.667 423.167,417.833 423.5,418C 422.483,419.049 422.316,420.216 423,421.5C 423.5,420.333 424.333,419.5 425.5,419C 424.465,417.493 424.632,415.993 426,414.5C 427.692,414.324 429.192,413.824 430.5,413C 431.669,410.141 433.169,406.974 435,403.5C 435.333,404.167 435.667,404.833 436,405.5C 437.188,404.437 437.688,403.103 437.5,401.5C 440.128,399.698 443.128,398.198 446.5,397C 444.006,395.088 444.173,393.254 447,391.5C 447.333,392.167 447.667,392.833 448,393.5C 449,391.5 450,389.5 451,387.5C 451.333,388.167 451.667,388.833 452,389.5C 453.188,388.437 453.688,387.103 453.5,385.5C 455.308,385.509 456.975,385.009 458.5,384C 458.167,383.667 457.833,383.333 457.5,383C 459.211,380.411 461.045,377.911 463,375.5C 463.333,376.167 463.667,376.833 464,377.5C 465.413,374.339 467.08,371.339 469,368.5C 470.868,369.672 472.702,369.505 474.5,368C 474.167,367 473.833,366 473.5,365C 475.667,363.5 477.5,361.667 479,359.5C 479.333,360.167 479.667,360.833 480,361.5C 481.413,358.339 483.08,355.339 485,352.5C 486.868,353.672 488.702,353.505 490.5,352C 490.167,351 489.833,350 489.5,349C 491.667,347.5 493.5,345.667 495,343.5C 495.333,344.167 495.667,344.833 496,345.5C 497.413,342.339 499.08,339.339 501,336.5C 502.868,337.672 504.702,337.505 506.5,336C 506.473,334.474 505.973,332.974 505,331.5C 505.333,331.833 505.667,332.167 506,332.5C 508.029,330.967 509.862,329.301 511.5,327.5 Z"/></g>
<g><path style="opacity:1" fill="#f0adaf" d="M 241.5,354.5 C 246.607,357.091 251.94,359.091 257.5,360.5C 257.5,369.5 257.5,378.5 257.5,387.5C 251.966,387.449 246.633,386.449 241.5,384.5C 241.5,374.5 241.5,364.5 241.5,354.5 Z"/></g>
<g><path style="opacity:1" fill="#f0adaf" d="M 241.5,398.5 C 246.729,400.012 252.062,401.012 257.5,401.5C 257.5,410.5 257.5,419.5 257.5,428.5C 252.138,428.528 246.805,428.194 241.5,427.5C 241.5,417.833 241.5,408.167 241.5,398.5 Z"/></g>
<g><path style="opacity:1" fill="#c83439" d="M 173.5,82.5 C 173.5,198.167 173.5,313.833 173.5,429.5C 182.5,429.5 191.5,429.5 200.5,429.5C 200.5,313.833 200.5,198.167 200.5,82.5C 201.5,197.999 201.833,313.665 201.5,429.5C 205.5,429.5 209.5,429.5 213.5,429.5C 213.167,313.665 213.5,197.999 214.5,82.5C 214.5,198.167 214.5,313.833 214.5,429.5C 223.895,430.138 232.895,429.471 241.5,427.5C 246.805,428.194 252.138,428.528 257.5,428.5C 276.902,430.223 295.569,426.89 313.5,418.5C 313.577,419.75 314.244,420.583 315.5,421C 314.167,421.333 312.833,421.667 311.5,422C 312.167,422.333 312.833,422.667 313.5,423C 312.428,424.284 311.095,424.617 309.5,424C 310.328,424.915 311.328,425.581 312.5,426C 311.216,426.684 310.049,426.517 309,425.5C 308.333,429.5 307.667,429.5 307,425.5C 305.734,427.196 305.9,429.029 307.5,431C 306.251,432.824 305.085,432.657 304,430.5C 303.206,433.831 301.039,435.664 297.5,436C 298.167,436.333 298.833,436.667 299.5,437C 298.167,437.333 296.833,437.667 295.5,438C 296.167,438.333 296.833,438.667 297.5,439C 296.428,440.284 295.095,440.617 293.5,440C 294.328,440.915 295.328,441.581 296.5,442C 295.216,442.684 294.049,442.517 293,441.5C 292.544,442.744 293.044,443.577 294.5,444C 293.552,444.483 292.552,444.649 291.5,444.5C 291.649,443.448 291.483,442.448 291,441.5C 289.734,443.196 289.9,445.029 291.5,447C 290.251,448.824 289.085,448.657 288,446.5C 286.9,450.833 284.067,453.333 279.5,454C 280.167,454.333 280.833,454.667 281.5,455C 280.428,456.284 279.095,456.617 277.5,456C 278.328,456.915 279.328,457.581 280.5,458C 279.216,458.684 278.049,458.517 277,457.5C 276.544,458.744 277.044,459.577 278.5,460C 277.552,460.483 276.552,460.649 275.5,460.5C 275.649,459.448 275.483,458.448 275,457.5C 273.734,459.196 273.9,461.029 275.5,463C 274.251,464.824 273.085,464.657 272,462.5C 271.89,464.848 270.723,466.348 268.5,467C 269.833,468.84 269.666,469.34 268,468.5C 266.601,469.227 265.101,469.727 263.5,470C 264.167,470.333 264.833,470.667 265.5,471C 264.529,472.204 263.529,472.704 262.5,472.5C 264.762,474.508 264.262,474.841 261,473.5C 260.544,474.744 261.044,475.577 262.5,476C 262,476.167 261.5,476.333 261,476.5C 258.436,475.423 257.936,476.256 259.5,479C 258.299,479.903 257.465,481.069 257,482.5C 256.667,481.167 256.333,479.833 256,478.5C 255.89,480.848 254.723,482.348 252.5,483C 253.554,484.388 253.72,485.888 253,487.5C 252.667,486.5 252.333,485.5 252,484.5C 250.601,485.227 249.101,485.727 247.5,486C 248.167,486.333 248.833,486.667 249.5,487C 248.529,488.204 247.529,488.704 246.5,488.5C 247.025,489.192 247.692,489.692 248.5,490C 247.167,490.333 245.833,490.667 244.5,491C 246.595,491.556 246.762,492.056 245,492.5C 242.436,491.423 241.936,492.256 243.5,495C 242.299,495.903 241.465,497.069 241,498.5C 240.667,497.167 240.333,495.833 240,494.5C 239.89,496.848 238.723,498.348 236.5,499C 237.554,500.388 237.72,501.888 237,503.5C 236.667,502.5 236.333,501.5 236,500.5C 234.644,501.38 233.144,501.714 231.5,501.5C 199.193,477.853 167.193,453.853 135.5,429.5C 143.5,429.5 151.5,429.5 159.5,429.5C 163.833,429.5 168.167,429.5 172.5,429.5C 172.167,313.665 172.5,197.999 173.5,82.5 Z"/></g>
<g><path style="opacity:1" fill="#fefefe" d="M 173.5,82.5 C 182.5,82.5 191.5,82.5 200.5,82.5C 200.5,198.167 200.5,313.833 200.5,429.5C 191.5,429.5 182.5,429.5 173.5,429.5C 173.5,313.833 173.5,198.167 173.5,82.5 Z"/></g>
<g><path style="opacity:1" fill="#d63137" d="M 511.5,424.5 C 511.5,453.5 511.5,482.5 511.5,511.5C 482.833,511.5 454.167,511.5 425.5,511.5C 425.611,510.883 425.944,510.383 426.5,510C 425.044,509.577 424.544,508.744 425,507.5C 425.333,507.833 425.667,508.167 426,508.5C 427.067,507.809 428.234,507.309 429.5,507C 429.167,506.667 428.833,506.333 428.5,506C 429.76,504.887 430.927,504.72 432,505.5C 433.377,501.991 435.544,498.491 438.5,495C 439.833,495.333 441.167,495.667 442.5,496C 442.473,494.474 441.973,492.974 441,491.5C 441.333,491.833 441.667,492.167 442,492.5C 443.067,491.809 444.234,491.309 445.5,491C 445.167,490.667 444.833,490.333 444.5,490C 446.167,489 447.833,488 449.5,487C 450.25,484.242 451.917,481.575 454.5,479C 456.095,479.617 457.428,479.284 458.5,478C 457.044,477.577 456.544,476.744 457,475.5C 457.333,475.833 457.667,476.167 458,476.5C 459.067,475.809 460.234,475.309 461.5,475C 461.167,474.667 460.833,474.333 460.5,474C 462.167,473 463.833,472 465.5,471C 466.25,468.242 467.917,465.575 470.5,463C 472.095,463.617 473.428,463.284 474.5,462C 473.044,461.577 472.544,460.744 473,459.5C 473.333,459.833 473.667,460.167 474,460.5C 477.948,457.886 481.281,454.552 484,450.5C 484.333,451.167 484.667,451.833 485,452.5C 485.684,451.216 485.517,450.049 484.5,449C 486.249,446.787 488.249,445.787 490.5,446C 489.044,445.577 488.544,444.744 489,443.5C 489.333,443.833 489.667,444.167 490,444.5C 491.067,443.809 492.234,443.309 493.5,443C 492.5,442.667 491.5,442.333 490.5,442C 493.177,441.751 495.51,440.751 497.5,439C 497.167,438.667 496.833,438.333 496.5,438C 498,437.167 499.167,436 500,434.5C 500.333,435.167 500.667,435.833 501,436.5C 501.684,435.216 501.517,434.049 500.5,433C 502.654,431.68 504.154,429.847 505,427.5C 505.333,427.833 505.667,428.167 506,428.5C 507.067,427.809 508.234,427.309 509.5,427C 508.5,426.667 507.5,426.333 506.5,426C 508.247,425.648 509.914,425.148 511.5,424.5 Z"/></g>
</svg>
