<svg width="265" height="266" viewBox="0 0 265 266" fill="none" xmlns="http://www.w3.org/2000/svg">
<g clip-path="url(#clip0_1_18)">
<path d="M192.166 0.946045H72.0622C32.2633 0.946045 0 33.2094 0 73.0082V193.112C0 232.911 32.2633 265.174 72.0622 265.174H192.166C231.965 265.174 264.228 232.911 264.228 193.112V73.0082C264.228 33.2094 231.965 0.946045 192.166 0.946045Z" fill="#2EA1F2"/>
<path d="M192.166 3.94864H72.0622C33.9216 3.94864 3.00259 34.8677 3.00259 73.0082V193.112C3.00259 231.253 33.9216 262.172 72.0622 262.172H192.166C230.307 262.172 261.226 231.253 261.226 193.112V73.0082C261.226 34.8677 230.307 3.94864 192.166 3.94864Z" stroke="white" stroke-opacity="0.15" stroke-width="6.00518"/>
<path d="M97.8848 98.8306C80.524 98.8306 66.1819 85.9061 63.9554 69.1541C63.6233 66.6555 65.6986 64.6011 68.2192 64.6011H97.8848V98.8306Z" fill="white"/>
<path fill-rule="evenodd" clip-rule="evenodd" d="M132.114 98.8306H97.8848H68.2192C65.6986 98.8306 63.6233 100.885 63.9554 103.384C66.1819 120.136 80.524 133.06 97.8848 133.06H68.2192C65.6986 133.06 63.6233 135.115 63.9554 137.613C66.1819 154.365 80.524 167.29 97.8848 167.29C80.524 167.29 66.1819 180.214 63.9554 196.966C63.6233 199.465 65.6986 201.519 68.2192 201.519H132.114C169.923 201.519 200.573 170.869 200.573 133.06C200.573 114.156 185.248 98.8306 166.344 98.8306C175.796 98.8306 183.459 91.1681 183.459 81.7158V88.4477C183.459 90.9682 185.583 93.0968 187.9 92.1048C190.567 90.9631 192.706 88.8245 193.848 86.1576C194.84 83.8404 192.711 81.7158 190.19 81.7158H183.459C188.12 81.7158 192.122 78.8921 193.848 74.8618C194.84 72.5446 192.711 70.4201 190.19 70.4201H188.023C185.502 70.4201 183.459 72.4634 183.459 74.984V81.7158C183.459 72.2636 175.796 64.6011 166.344 64.6011C156.892 64.6011 149.229 72.2636 149.229 81.7158C149.229 91.1681 156.892 98.8306 166.344 98.8306C147.439 98.8306 132.114 114.156 132.114 133.06V98.8306ZM132.114 133.06C113.21 133.06 97.8848 117.735 97.8848 98.8306V133.06C97.8848 150.421 110.809 164.763 127.561 166.99C130.06 167.322 132.114 165.246 132.114 162.726V133.06Z" fill="white"/>
<path d="M132.114 98.8306V69.165C132.114 66.6444 130.071 64.6011 127.55 64.6011H97.8848C97.8848 83.5055 113.21 98.8306 132.114 98.8306Z" fill="white"/>
</g>
<defs>
<clipPath id="clip0_1_18">
<rect width="265" height="266" fill="white"/>
</clipPath>
</defs>
</svg>
