<?xml version="1.0" encoding="UTF-8"?>
<!DOCTYPE svg PUBLIC "-//W3C//DTD SVG 1.1//EN" "http://www.w3.org/Graphics/SVG/1.1/DTD/svg11.dtd">
<svg xmlns="http://www.w3.org/2000/svg" version="1.1" width="2048px" height="2048px" style="shape-rendering:geometricPrecision; text-rendering:geometricPrecision; image-rendering:optimizeQuality; fill-rule:evenodd; clip-rule:evenodd" xmlns:xlink="http://www.w3.org/1999/xlink">
<g><path style="opacity:0.994" fill="#22d78f" d="M 1182.5,-0.5 C 1184.17,-0.5 1185.83,-0.5 1187.5,-0.5C 1429.72,105.775 1672.05,211.775 1914.5,317.5C 1913.5,317.5 1912.5,317.5 1911.5,317.5C 1855.21,308.508 1798.88,299.841 1742.5,291.5C 1733.52,289.704 1724.52,288.037 1715.5,286.5C 1715.42,285.25 1714.76,284.417 1713.5,284C 1517.17,205.392 1320.84,126.892 1124.5,48.5C 1143.83,32.1667 1163.17,15.8333 1182.5,-0.5 Z"/></g>
<g><path style="opacity:0.999" fill="#22d88f" d="M -0.5,13.5 C 46.1302,21.0495 92.7969,28.3828 139.5,35.5C 139.167,354.501 139.5,673.501 140.5,992.5C 145.396,994.591 150.729,996.591 156.5,998.5C 159.673,999.042 162.673,1000.04 165.5,1001.5C 175.156,1004.83 184.822,1008.16 194.5,1011.5C 202.106,1014.32 209.773,1016.99 217.5,1019.5C 221.783,1020.99 226.116,1022.32 230.5,1023.5C 240.694,1027.34 251.027,1031.01 261.5,1034.5C 266.646,1036.74 271.979,1038.4 277.5,1039.5C 284.087,1042.36 290.754,1045.03 297.5,1047.5C 280.758,1077.31 264.258,1107.31 248,1137.5C 247.241,1139.06 246.074,1140.06 244.5,1140.5C 163.016,1075.26 81.3489,1010.26 -0.5,945.5C -0.5,634.833 -0.5,324.167 -0.5,13.5 Z"/></g>
<g><path style="opacity:1" fill="#24d690" d="M 139.5,35.5 C 145.115,36.6028 150.782,37.6028 156.5,38.5C 156.5,358.5 156.5,678.5 156.5,998.5C 150.729,996.591 145.396,994.591 140.5,992.5C 139.5,673.501 139.167,354.501 139.5,35.5 Z"/></g>
<g><path style="opacity:1" fill="#26d591" d="M 156.5,38.5 C 159.455,39.1587 162.455,39.4921 165.5,39.5C 165.5,360.167 165.5,680.833 165.5,1001.5C 162.673,1000.04 159.673,999.042 156.5,998.5C 156.5,678.5 156.5,358.5 156.5,38.5 Z"/></g>
<g><path style="opacity:1" fill="#29d293" d="M 165.5,39.5 C 174.482,41.2747 183.482,42.9414 192.5,44.5C 193.167,366.833 193.833,689.167 194.5,1011.5C 184.822,1008.16 175.156,1004.83 165.5,1001.5C 165.5,680.833 165.5,360.167 165.5,39.5 Z"/></g>
<g><path style="opacity:1" fill="#2dcf96" d="M 192.5,44.5 C 201.221,45.5552 209.888,46.8886 218.5,48.5C 217.168,210.126 216.501,371.959 216.5,534C 216.501,695.903 216.834,857.736 217.5,1019.5C 209.773,1016.99 202.106,1014.32 194.5,1011.5C 193.833,689.167 193.167,366.833 192.5,44.5 Z"/></g>
<g><path style="opacity:1" fill="#30cd98" d="M 218.5,48.5 C 222.582,48.8918 226.582,49.5584 230.5,50.5C 230.5,374.833 230.5,699.167 230.5,1023.5C 226.116,1022.32 221.783,1020.99 217.5,1019.5C 216.834,857.736 216.501,695.903 216.5,534C 216.501,371.959 217.168,210.126 218.5,48.5 Z"/></g>
<g><path style="opacity:0.999" fill="#24d591" d="M 1124.5,48.5 C 1320.84,126.892 1517.17,205.392 1713.5,284C 1714.76,284.417 1715.42,285.25 1715.5,286.5C 1712.19,285.949 1708.86,285.616 1705.5,285.5C 1695.67,283.604 1685.67,281.937 1675.5,280.5C 1671.52,279.705 1667.52,279.038 1663.5,278.5C 1480.85,204.276 1297.85,130.609 1114.5,57.5C 1117.41,54.0413 1120.75,51.0413 1124.5,48.5 Z"/></g>
<g><path style="opacity:1" fill="#34cb9a" d="M 230.5,50.5 C 240.699,51.7553 250.699,53.422 260.5,55.5C 260.167,381.903 260.501,708.236 261.5,1034.5C 251.027,1031.01 240.694,1027.34 230.5,1023.5C 230.5,699.167 230.5,374.833 230.5,50.5 Z"/></g>
<g><path style="opacity:1" fill="#37c89d" d="M 260.5,55.5 C 266.511,56.0731 272.511,56.7397 278.5,57.5C 277.501,384.764 277.167,712.097 277.5,1039.5C 271.979,1038.4 266.646,1036.74 261.5,1034.5C 260.501,708.236 260.167,381.903 260.5,55.5 Z"/></g>
<g><path style="opacity:1" fill="#28d294" d="M 1114.5,57.5 C 1297.85,130.609 1480.85,204.276 1663.5,278.5C 1648.23,275.841 1632.89,273.507 1617.5,271.5C 1616.43,270.566 1615.1,270.232 1613.5,270.5C 1612.43,268.716 1610.76,267.549 1608.5,267C 1440.58,199.537 1272.58,132.37 1104.5,65.5C 1107.54,62.4602 1110.87,59.7935 1114.5,57.5 Z"/></g>
<g><path style="opacity:1" fill="#3bc5a0" d="M 278.5,57.5 C 289.276,59.4164 299.943,61.4164 310.5,63.5C 310.5,392.833 310.5,722.167 310.5,1051.5C 306.303,1049.77 301.969,1048.43 297.5,1047.5C 290.754,1045.03 284.087,1042.36 277.5,1039.5C 277.167,712.097 277.501,384.764 278.5,57.5 Z"/></g>
<g><path style="opacity:1" fill="#40c2a2" d="M 310.5,63.5 C 316.526,63.9488 322.526,64.6155 328.5,65.5C 328.5,396.167 328.5,726.833 328.5,1057.5C 322.421,1055.7 316.421,1053.7 310.5,1051.5C 310.5,722.167 310.5,392.833 310.5,63.5 Z"/></g>
<g><path style="opacity:1" fill="#43c0a4" d="M 328.5,65.5 C 334.746,66.8185 341.079,67.8185 347.5,68.5C 346.581,400.122 346.248,731.788 346.5,1063.5C 343.167,1062.5 339.833,1061.5 336.5,1060.5C 333.838,1059.5 331.172,1058.5 328.5,1057.5C 328.5,726.833 328.5,396.167 328.5,65.5 Z"/></g>
<g><path style="opacity:1" fill="#46bda7" d="M 347.5,68.5 C 355.419,70.1082 363.419,71.4416 371.5,72.5C 372.499,405.764 372.833,739.097 372.5,1072.5C 371.391,1072.44 370.391,1072.11 369.5,1071.5C 361.62,1069.21 353.954,1066.54 346.5,1063.5C 346.248,731.788 346.581,400.122 347.5,68.5 Z"/></g>
<g><path style="opacity:1" fill="#2ccf97" d="M 1104.5,65.5 C 1272.58,132.37 1440.58,199.537 1608.5,267C 1610.76,267.549 1612.43,268.716 1613.5,270.5C 1592.5,267.167 1571.5,263.833 1550.5,260.5C 1550.42,259.25 1549.76,258.417 1548.5,258C 1397.25,197.197 1245.92,136.697 1094.5,76.5C 1094.5,75.5 1094.5,74.5 1094.5,73.5C 1097.52,70.4838 1100.85,67.8171 1104.5,65.5 Z"/></g>
<g><path style="opacity:1" fill="#49bba9" d="M 371.5,72.5 C 375.477,73.2588 379.477,73.9254 383.5,74.5C 383.5,408.5 383.5,742.5 383.5,1076.5C 379.721,1075.44 376.054,1074.11 372.5,1072.5C 372.833,739.097 372.499,405.764 371.5,72.5 Z"/></g>
<g><path style="opacity:0.999" fill="#4db9ab" d="M 383.5,74.5 C 397.859,76.7265 412.192,79.0598 426.5,81.5C 426.5,184.833 426.5,288.167 426.5,391.5C 414.833,391.5 403.167,391.5 391.5,391.5C 391.5,620.833 391.5,850.167 391.5,1079.5C 388.833,1078.5 386.167,1077.5 383.5,1076.5C 383.5,742.5 383.5,408.5 383.5,74.5 Z"/></g>
<g><path style="opacity:0.999" fill="#2fcc9a" d="M 1094.5,73.5 C 1094.5,74.5 1094.5,75.5 1094.5,76.5C 1245.92,136.697 1397.25,197.197 1548.5,258C 1549.76,258.417 1550.42,259.25 1550.5,260.5C 1548.14,260.326 1545.81,259.993 1543.5,259.5C 1527.45,257.113 1511.45,254.446 1495.5,251.5C 1358.26,196.22 1220.92,140.887 1083.5,85.5C 1082.7,85.0431 1082.37,84.3764 1082.5,83.5C 1086.18,79.8197 1090.18,76.4864 1094.5,73.5 Z"/></g>
<g><path style="opacity:0.999" fill="#54b3b0" d="M 426.5,81.5 C 438.698,83.0886 450.698,85.0886 462.5,87.5C 463.498,188.763 463.831,290.096 463.5,391.5C 451.167,391.5 438.833,391.5 426.5,391.5C 426.5,288.167 426.5,184.833 426.5,81.5 Z"/></g>
<g><path style="opacity:0.999" fill="#33c99e" d="M 1082.5,83.5 C 1082.37,84.3764 1082.7,85.0431 1083.5,85.5C 1220.92,140.887 1358.26,196.22 1495.5,251.5C 1485.83,250.167 1476.17,248.833 1466.5,247.5C 1452.63,245.178 1438.63,242.844 1424.5,240.5C 1423.94,239.21 1422.94,238.377 1421.5,238C 1303.59,190.544 1185.59,143.377 1067.5,96.5C 1072.18,91.8223 1077.18,87.489 1082.5,83.5 Z"/></g>
<g><path style="opacity:0.999" fill="#59b0b3" d="M 462.5,87.5 C 471.269,88.4064 479.935,89.7397 488.5,91.5C 490.494,191.288 491.161,291.288 490.5,391.5C 481.5,391.5 472.5,391.5 463.5,391.5C 463.831,290.096 463.498,188.763 462.5,87.5 Z"/></g>
<g><path style="opacity:1" fill="#5caeb5" d="M 488.5,91.5 C 492.387,91.6459 496.054,92.3126 499.5,93.5C 498.501,192.665 498.167,291.999 498.5,391.5C 495.833,391.5 493.167,391.5 490.5,391.5C 491.161,291.288 490.494,191.288 488.5,91.5 Z"/></g>
<g><path style="opacity:0.999" fill="#60abb8" d="M 499.5,93.5 C 511.215,94.8414 522.881,96.508 534.5,98.5C 533.503,196.096 533.169,293.763 533.5,391.5C 521.833,391.5 510.167,391.5 498.5,391.5C 498.167,291.999 498.501,192.665 499.5,93.5 Z"/></g>
<g><path style="opacity:1" fill="#37c6a1" d="M 1067.5,96.5 C 1185.59,143.377 1303.59,190.544 1421.5,238C 1422.94,238.377 1423.94,239.21 1424.5,240.5C 1417.55,239.175 1410.55,238.175 1403.5,237.5C 1395.97,236.077 1388.3,234.744 1380.5,233.5C 1274.47,190.204 1168.13,147.371 1061.5,105C 1060.24,104.583 1059.58,103.75 1059.5,102.5C 1061.88,100.122 1064.55,98.1223 1067.5,96.5 Z"/></g>
<g><path style="opacity:0.999" fill="#64a8ba" d="M 534.5,98.5 C 537.689,98.8583 540.689,99.525 543.5,100.5C 544.497,197.43 544.831,294.43 544.5,391.5C 540.833,391.5 537.167,391.5 533.5,391.5C 533.169,293.763 533.503,196.096 534.5,98.5 Z"/></g>
<g><path style="opacity:0.999" fill="#68a5bd" d="M 543.5,100.5 C 553.846,101.724 564.179,103.058 574.5,104.5C 573.503,200.096 573.169,295.763 573.5,391.5C 563.833,391.5 554.167,391.5 544.5,391.5C 544.831,294.43 544.497,197.43 543.5,100.5 Z"/></g>
<g><path style="opacity:0.999" fill="#3bc3a5" d="M 1059.5,102.5 C 1059.58,103.75 1060.24,104.583 1061.5,105C 1168.13,147.371 1274.47,190.204 1380.5,233.5C 1359.48,230.248 1338.48,226.915 1317.5,223.5C 1227.05,187.11 1136.72,150.443 1046.5,113.5C 1050.51,109.487 1054.85,105.821 1059.5,102.5 Z"/></g>
<g><path style="opacity:0.999" fill="#6ba3bf" d="M 574.5,104.5 C 578.076,105.485 581.742,106.152 585.5,106.5C 585.5,201.5 585.5,296.5 585.5,391.5C 581.5,391.5 577.5,391.5 573.5,391.5C 573.169,295.763 573.503,200.096 574.5,104.5 Z"/></g>
<g><path style="opacity:0.999" fill="#6ea0c1" d="M 585.5,106.5 C 592.674,107.526 599.674,108.86 606.5,110.5C 607.497,204.096 607.831,297.763 607.5,391.5C 600.167,391.5 592.833,391.5 585.5,391.5C 585.5,296.5 585.5,201.5 585.5,106.5 Z"/></g>
<g><path style="opacity:0.999" fill="#729ec4" d="M 606.5,110.5 C 615.615,111.298 624.615,112.631 633.5,114.5C 633.5,206.833 633.5,299.167 633.5,391.5C 624.833,391.5 616.167,391.5 607.5,391.5C 607.831,297.763 607.497,204.096 606.5,110.5 Z"/></g>
<g><path style="opacity:0.999" fill="#3ec0a7" d="M 1046.5,113.5 C 1136.72,150.443 1227.05,187.11 1317.5,223.5C 1316.17,223.5 1314.83,223.5 1313.5,223.5C 1304.38,221.353 1295.05,219.687 1285.5,218.5C 1284.94,217.21 1283.94,216.377 1282.5,216C 1201.63,183.723 1120.96,151.223 1040.5,118.5C 1042.09,116.367 1044.09,114.701 1046.5,113.5 Z"/></g>
<g><path style="opacity:1" fill="#769bc6" d="M 633.5,114.5 C 639.386,114.98 645.052,115.98 650.5,117.5C 648.502,208.494 647.836,299.827 648.5,391.5C 643.5,391.5 638.5,391.5 633.5,391.5C 633.5,299.167 633.5,206.833 633.5,114.5 Z"/></g>
<g><path style="opacity:0.999" fill="#7a98c9" d="M 650.5,117.5 C 659.393,118.206 668.059,119.539 676.5,121.5C 676.5,211.5 676.5,301.5 676.5,391.5C 667.167,391.5 657.833,391.5 648.5,391.5C 647.836,299.827 648.502,208.494 650.5,117.5 Z"/></g>
<g><path style="opacity:0.998" fill="#42bdab" d="M 1040.5,118.5 C 1120.96,151.223 1201.63,183.723 1282.5,216C 1283.94,216.377 1284.94,217.21 1285.5,218.5C 1279.15,217.608 1272.81,216.608 1266.5,215.5C 1240.86,211.394 1215.2,207.394 1189.5,203.5C 1188.39,203.443 1187.39,203.11 1186.5,202.5C 1131.92,180.554 1077.26,158.554 1022.5,136.5C 1021.7,136.043 1021.37,135.376 1021.5,134.5C 1027.24,128.464 1033.57,123.13 1040.5,118.5 Z"/></g>
<g><path style="opacity:0.999" fill="#7d96cb" d="M 676.5,121.5 C 680.733,121.539 684.733,122.205 688.5,123.5C 688.5,212.833 688.5,302.167 688.5,391.5C 684.5,391.5 680.5,391.5 676.5,391.5C 676.5,301.5 676.5,211.5 676.5,121.5 Z"/></g>
<g><path style="opacity:0.999" fill="#8094cd" d="M 688.5,123.5 C 695.589,123.959 702.589,124.959 709.5,126.5C 709.5,214.833 709.5,303.167 709.5,391.5C 702.5,391.5 695.5,391.5 688.5,391.5C 688.5,302.167 688.5,212.833 688.5,123.5 Z"/></g>
<g><path style="opacity:0.999" fill="#8491d0" d="M 709.5,126.5 C 718.516,127.725 727.516,129.058 736.5,130.5C 736.5,217.5 736.5,304.5 736.5,391.5C 727.5,391.5 718.5,391.5 709.5,391.5C 709.5,303.167 709.5,214.833 709.5,126.5 Z"/></g>
<g><path style="opacity:0.999" fill="#888ed2" d="M 736.5,130.5 C 744.816,131.942 753.15,133.275 761.5,134.5C 761.5,220.167 761.5,305.833 761.5,391.5C 753.167,391.5 744.833,391.5 736.5,391.5C 736.5,304.5 736.5,217.5 736.5,130.5 Z"/></g>
<g><path style="opacity:0.999" fill="#8d8ad5" d="M 761.5,134.5 C 769.508,135.835 777.508,137.168 785.5,138.5C 785.5,222.833 785.5,307.167 785.5,391.5C 777.5,391.5 769.5,391.5 761.5,391.5C 761.5,305.833 761.5,220.167 761.5,134.5 Z"/></g>
<g><path style="opacity:0.997" fill="#48b7b1" d="M 1021.5,134.5 C 1021.37,135.376 1021.7,136.043 1022.5,136.5C 1077.26,158.554 1131.92,180.554 1186.5,202.5C 1165.83,199.5 1145.16,196.5 1124.5,193.5C 1117.66,191.93 1110.66,190.596 1103.5,189.5C 1071.7,176.444 1039.7,163.61 1007.5,151C 1006.06,150.623 1005.06,149.79 1004.5,148.5C 1009.56,143.108 1015.23,138.441 1021.5,134.5 Z"/></g>
<g><path style="opacity:0.999" fill="#9187d8" d="M 785.5,138.5 C 795.373,139.716 805.039,141.383 814.5,143.5C 813.501,225.998 813.167,308.665 813.5,391.5C 804.167,391.5 794.833,391.5 785.5,391.5C 785.5,307.167 785.5,222.833 785.5,138.5 Z"/></g>
<g><path style="opacity:0.999" fill="#9684db" d="M 814.5,143.5 C 821.078,143.764 827.411,144.764 833.5,146.5C 831.503,227.827 830.836,309.493 831.5,391.5C 829.5,391.5 827.5,391.5 825.5,391.5C 821.5,391.5 817.5,391.5 813.5,391.5C 813.167,308.665 813.501,225.998 814.5,143.5 Z"/></g>
<g><path style="opacity:0.999" fill="#9a81de" d="M 833.5,146.5 C 842.592,147.293 851.592,148.627 860.5,150.5C 860.5,230.833 860.5,311.167 860.5,391.5C 850.833,391.5 841.167,391.5 831.5,391.5C 830.836,309.493 831.503,227.827 833.5,146.5 Z"/></g>
<g><path style="opacity:0.998" fill="#4eb3b6" d="M 1004.5,148.5 C 1005.06,149.79 1006.06,150.623 1007.5,151C 1039.7,163.61 1071.7,176.444 1103.5,189.5C 1087.85,187.037 1072.19,184.704 1056.5,182.5C 1040.07,179.219 1023.4,176.552 1006.5,174.5C 998.373,172.68 990.04,171.346 981.5,170.5C 980.508,170.672 979.842,170.338 979.5,169.5C 987.516,162.154 995.849,155.154 1004.5,148.5 Z"/></g>
<g><path style="opacity:0.999" fill="#9f7de1" d="M 860.5,150.5 C 872.153,152.26 883.819,153.927 895.5,155.5C 894.503,234.096 894.17,312.763 894.5,391.5C 883.167,391.5 871.833,391.5 860.5,391.5C 860.5,311.167 860.5,230.833 860.5,150.5 Z"/></g>
<g><path style="opacity:0.999" fill="#a579e5" d="M 895.5,155.5 C 905.429,157.377 915.429,159.044 925.5,160.5C 926.497,237.429 926.83,314.429 926.5,391.5C 915.833,391.5 905.167,391.5 894.5,391.5C 894.17,312.763 894.503,234.096 895.5,155.5 Z"/></g>
<g><path style="opacity:0.999" fill="#ab75e9" d="M 925.5,160.5 C 937.816,162.608 950.15,164.608 962.5,166.5C 963.497,241.429 963.83,316.429 963.5,391.5C 951.167,391.5 938.833,391.5 926.5,391.5C 926.83,314.429 926.497,237.429 925.5,160.5 Z"/></g>
<g><path style="opacity:0.999" fill="#b071ec" d="M 962.5,166.5 C 968.247,167.225 973.914,168.225 979.5,169.5C 979.842,170.338 980.508,170.672 981.5,170.5C 981.5,244.167 981.5,317.833 981.5,391.5C 975.5,391.5 969.5,391.5 963.5,391.5C 963.83,316.429 963.497,241.429 962.5,166.5 Z"/></g>
<g><path style="opacity:1" fill="#b36fef" d="M 981.5,170.5 C 990.04,171.346 998.373,172.68 1006.5,174.5C 1005.5,174.5 1004.5,174.5 1003.5,174.5C 1003.5,246.833 1003.5,319.167 1003.5,391.5C 996.167,391.5 988.833,391.5 981.5,391.5C 981.5,317.833 981.5,244.167 981.5,170.5 Z"/></g>
<g><path style="opacity:1" fill="#b86bf1" d="M 1006.5,174.5 C 1023.4,176.552 1040.07,179.219 1056.5,182.5C 1056.5,252.167 1056.5,321.833 1056.5,391.5C 1038.83,391.5 1021.17,391.5 1003.5,391.5C 1003.5,319.167 1003.5,246.833 1003.5,174.5C 1004.5,174.5 1005.5,174.5 1006.5,174.5 Z"/></g>
<g><path style="opacity:1" fill="#be6af0" d="M 1056.5,182.5 C 1072.19,184.704 1087.85,187.037 1103.5,189.5C 1110.66,190.596 1117.66,191.93 1124.5,193.5C 1122.5,259.158 1121.84,325.158 1122.5,391.5C 1100.5,391.5 1078.5,391.5 1056.5,391.5C 1056.5,321.833 1056.5,252.167 1056.5,182.5 Z"/></g>
<g><path style="opacity:1" fill="#c468ef" d="M 1124.5,193.5 C 1145.16,196.5 1165.83,199.5 1186.5,202.5C 1187.39,203.11 1188.39,203.443 1189.5,203.5C 1189.5,266.167 1189.5,328.833 1189.5,391.5C 1167.17,391.5 1144.83,391.5 1122.5,391.5C 1121.84,325.158 1122.5,259.158 1124.5,193.5 Z"/></g>
<g><path style="opacity:1" fill="#ca66ee" d="M 1189.5,203.5 C 1215.2,207.394 1240.86,211.394 1266.5,215.5C 1266.5,274.167 1266.5,332.833 1266.5,391.5C 1240.83,391.5 1215.17,391.5 1189.5,391.5C 1189.5,328.833 1189.5,266.167 1189.5,203.5 Z"/></g>
<g><path style="opacity:1" fill="#d065ed" d="M 1266.5,215.5 C 1272.81,216.608 1279.15,217.608 1285.5,218.5C 1295.05,219.687 1304.38,221.353 1313.5,223.5C 1312.5,279.331 1312.17,335.331 1312.5,391.5C 1297.17,391.5 1281.83,391.5 1266.5,391.5C 1266.5,332.833 1266.5,274.167 1266.5,215.5 Z"/></g>
<g><path style="opacity:1" fill="#d663ec" d="M 1313.5,223.5 C 1314.83,223.5 1316.17,223.5 1317.5,223.5C 1338.48,226.915 1359.48,230.248 1380.5,233.5C 1388.3,234.744 1395.97,236.077 1403.5,237.5C 1402.17,237.5 1400.83,237.5 1399.5,237.5C 1399.5,288.833 1399.5,340.167 1399.5,391.5C 1370.5,391.5 1341.5,391.5 1312.5,391.5C 1312.17,335.331 1312.5,279.331 1313.5,223.5 Z"/></g>
<g><path style="opacity:1" fill="#dd62eb" d="M 1403.5,237.5 C 1410.55,238.175 1417.55,239.175 1424.5,240.5C 1438.63,242.844 1452.63,245.178 1466.5,247.5C 1465.5,295.33 1465.17,343.33 1465.5,391.5C 1443.5,391.5 1421.5,391.5 1399.5,391.5C 1399.5,340.167 1399.5,288.833 1399.5,237.5C 1400.83,237.5 1402.17,237.5 1403.5,237.5 Z"/></g>
<g><path style="opacity:1" fill="#e360ea" d="M 1466.5,247.5 C 1476.17,248.833 1485.83,250.167 1495.5,251.5C 1511.45,254.446 1527.45,257.113 1543.5,259.5C 1543.5,303.5 1543.5,347.5 1543.5,391.5C 1517.5,391.5 1491.5,391.5 1465.5,391.5C 1465.17,343.33 1465.5,295.33 1466.5,247.5 Z"/></g>
<g><path style="opacity:1" fill="#ea5ee9" d="M 1543.5,259.5 C 1545.81,259.993 1548.14,260.326 1550.5,260.5C 1571.5,263.833 1592.5,267.167 1613.5,270.5C 1615.1,270.232 1616.43,270.566 1617.5,271.5C 1617.5,311.5 1617.5,351.5 1617.5,391.5C 1592.83,391.5 1568.17,391.5 1543.5,391.5C 1543.5,347.5 1543.5,303.5 1543.5,259.5 Z"/></g>
<g><path style="opacity:1" fill="#f25ce8" d="M 1617.5,271.5 C 1632.89,273.507 1648.23,275.841 1663.5,278.5C 1667.52,279.038 1671.52,279.705 1675.5,280.5C 1675.17,694.236 1675.5,1107.9 1676.5,1521.5C 1669.57,1518.97 1662.57,1516.64 1655.5,1514.5C 1655.5,1514.17 1655.5,1513.83 1655.5,1513.5C 1655.5,1139.5 1655.5,765.5 1655.5,391.5C 1642.83,391.5 1630.17,391.5 1617.5,391.5C 1617.5,351.5 1617.5,311.5 1617.5,271.5 Z"/></g>
<g><path style="opacity:1" fill="#f45be7" d="M 1675.5,280.5 C 1685.67,281.937 1695.67,283.604 1705.5,285.5C 1704.5,700.666 1704.17,1116 1704.5,1531.5C 1695.24,1527.97 1685.91,1524.64 1676.5,1521.5C 1675.5,1107.9 1675.17,694.236 1675.5,280.5 Z"/></g>
<g><path style="opacity:1" fill="#f75ae6" d="M 1705.5,285.5 C 1708.86,285.616 1712.19,285.949 1715.5,286.5C 1724.52,288.037 1733.52,289.704 1742.5,291.5C 1742.17,709.236 1742.5,1126.9 1743.5,1544.5C 1730.57,1539.97 1717.57,1535.64 1704.5,1531.5C 1704.17,1116 1704.5,700.666 1705.5,285.5 Z"/></g>
<g><path style="opacity:0.999" fill="#fd59e6" d="M 1742.5,291.5 C 1798.88,299.841 1855.21,308.508 1911.5,317.5C 1912.57,318.434 1913.9,318.768 1915.5,318.5C 1879.65,644.182 1843.65,969.849 1807.5,1295.5C 1798.18,1381.85 1788.68,1468.18 1779,1554.5C 1778.69,1555.31 1778.19,1555.97 1777.5,1556.5C 1766.21,1552.29 1754.88,1548.29 1743.5,1544.5C 1742.5,1126.9 1742.17,709.236 1742.5,291.5 Z"/></g>
<g><path style="opacity:0.997" fill="#9774f7" d="M 1911.5,317.5 C 1912.5,317.5 1913.5,317.5 1914.5,317.5C 1915.65,317.791 1916.32,318.624 1916.5,320C 1959.95,596.342 2003.62,872.509 2047.5,1148.5C 2047.5,1151.17 2047.5,1153.83 2047.5,1156.5C 1967.52,1202.81 1887.52,1249.14 1807.5,1295.5C 1843.65,969.849 1879.65,644.182 1915.5,318.5C 1913.9,318.768 1912.57,318.434 1911.5,317.5 Z"/></g>
<g><path style="opacity:1" fill="#000000" d="M 426.5,391.5 C 438.833,391.5 451.167,391.5 463.5,391.5C 472.5,391.5 481.5,391.5 490.5,391.5C 493.167,391.5 495.833,391.5 498.5,391.5C 510.167,391.5 521.833,391.5 533.5,391.5C 537.167,391.5 540.833,391.5 544.5,391.5C 554.167,391.5 563.833,391.5 573.5,391.5C 577.5,391.5 581.5,391.5 585.5,391.5C 592.833,391.5 600.167,391.5 607.5,391.5C 616.167,391.5 624.833,391.5 633.5,391.5C 638.5,391.5 643.5,391.5 648.5,391.5C 657.833,391.5 667.167,391.5 676.5,391.5C 680.5,391.5 684.5,391.5 688.5,391.5C 695.5,391.5 702.5,391.5 709.5,391.5C 718.5,391.5 727.5,391.5 736.5,391.5C 744.833,391.5 753.167,391.5 761.5,391.5C 769.5,391.5 777.5,391.5 785.5,391.5C 794.833,391.5 804.167,391.5 813.5,391.5C 817.5,391.5 821.5,391.5 825.5,391.5C 1101.67,392.5 1378,392.833 1654.5,392.5C 1654.17,766.334 1654.5,1140 1655.5,1513.5C 1655.5,1513.83 1655.5,1514.17 1655.5,1514.5C 1655.5,1561.5 1655.5,1608.5 1655.5,1655.5C 1601.17,1655.5 1546.83,1655.5 1492.5,1655.5C 1475.83,1655.5 1459.17,1655.5 1442.5,1655.5C 1428.5,1655.5 1414.5,1655.5 1400.5,1655.5C 1389.83,1655.5 1379.17,1655.5 1368.5,1655.5C 1362.5,1655.5 1356.5,1655.5 1350.5,1655.5C 1338.17,1655.5 1325.83,1655.5 1313.5,1655.5C 1305.83,1655.5 1298.17,1655.5 1290.5,1655.5C 1274.83,1655.5 1259.17,1655.5 1243.5,1655.5C 1233.5,1655.5 1223.5,1655.5 1213.5,1655.5C 1193.17,1655.5 1172.83,1655.5 1152.5,1655.5C 1142.5,1655.5 1132.5,1655.5 1122.5,1655.5C 1101.83,1655.5 1081.17,1655.5 1060.5,1655.5C 1053.83,1655.5 1047.17,1655.5 1040.5,1655.5C 1016.83,1655.5 993.167,1655.5 969.5,1655.5C 943.833,1655.5 918.167,1655.5 892.5,1655.5C 844.167,1655.5 795.833,1655.5 747.5,1655.5C 700.833,1655.5 654.167,1655.5 607.5,1655.5C 591.5,1655.5 575.5,1655.5 559.5,1655.5C 514.833,1655.5 470.167,1655.5 425.5,1655.5C 414.167,1655.5 402.833,1655.5 391.5,1655.5C 391.5,1650.83 391.5,1646.17 391.5,1641.5C 391.5,1636.17 391.5,1630.83 391.5,1625.5C 391.5,1617.17 391.5,1608.83 391.5,1600.5C 391.5,1590.5 391.5,1580.5 391.5,1570.5C 391.5,1564.5 391.5,1558.5 391.5,1552.5C 391.5,1542.5 391.5,1532.5 391.5,1522.5C 391.5,1518.83 391.5,1515.17 391.5,1511.5C 391.5,1500.17 391.5,1488.83 391.5,1477.5C 391.5,1475.83 391.5,1474.17 391.5,1472.5C 391.5,1462.5 391.5,1452.5 391.5,1442.5C 391.5,1438.83 391.5,1435.17 391.5,1431.5C 391.5,1423.17 391.5,1414.83 391.5,1406.5C 391.5,1403.17 391.5,1399.83 391.5,1396.5C 391.5,1389.17 391.5,1381.83 391.5,1374.5C 391.5,1370.17 391.5,1365.83 391.5,1361.5C 391.5,1355.5 391.5,1349.5 391.5,1343.5C 391.5,1338.17 391.5,1332.83 391.5,1327.5C 391.5,1322.5 391.5,1317.5 391.5,1312.5C 391.5,1305.5 391.5,1298.5 391.5,1291.5C 391.5,1286.83 391.5,1282.17 391.5,1277.5C 391.5,1270.5 391.5,1263.5 391.5,1256.5C 391.5,1213.5 391.5,1170.5 391.5,1127.5C 391.5,1111.5 391.5,1095.5 391.5,1079.5C 391.5,850.167 391.5,620.833 391.5,391.5C 403.167,391.5 414.833,391.5 426.5,391.5 Z"/></g>
<g><path style="opacity:1" fill="#09040a" d="M 825.5,391.5 C 827.5,391.5 829.5,391.5 831.5,391.5C 841.167,391.5 850.833,391.5 860.5,391.5C 871.833,391.5 883.167,391.5 894.5,391.5C 905.167,391.5 915.833,391.5 926.5,391.5C 938.833,391.5 951.167,391.5 963.5,391.5C 969.5,391.5 975.5,391.5 981.5,391.5C 988.833,391.5 996.167,391.5 1003.5,391.5C 1021.17,391.5 1038.83,391.5 1056.5,391.5C 1078.5,391.5 1100.5,391.5 1122.5,391.5C 1144.83,391.5 1167.17,391.5 1189.5,391.5C 1215.17,391.5 1240.83,391.5 1266.5,391.5C 1281.83,391.5 1297.17,391.5 1312.5,391.5C 1341.5,391.5 1370.5,391.5 1399.5,391.5C 1421.5,391.5 1443.5,391.5 1465.5,391.5C 1491.5,391.5 1517.5,391.5 1543.5,391.5C 1568.17,391.5 1592.83,391.5 1617.5,391.5C 1630.17,391.5 1642.83,391.5 1655.5,391.5C 1655.5,765.5 1655.5,1139.5 1655.5,1513.5C 1654.5,1140 1654.17,766.334 1654.5,392.5C 1378,392.833 1101.67,392.5 825.5,391.5 Z"/></g>
<g><path style="opacity:1" fill="#fefefe" d="M 1409.5,877.5 C 1371,876.501 1332.34,876.168 1293.5,876.5C 1293.5,843.833 1293.5,811.167 1293.5,778.5C 1369.17,778.5 1444.83,778.5 1520.5,778.5C 1520.5,854.5 1520.5,930.5 1520.5,1006.5C 1464.56,1054.45 1399.56,1081.28 1325.5,1087C 1254,1093.46 1188.67,1076.79 1129.5,1037C 1068.11,990.075 1033.27,927.909 1025,850.5C 1016.43,758.536 1045.26,680.703 1111.5,617C 1172.24,564.532 1242.91,541.199 1323.5,547C 1392.64,549.691 1452.64,574.024 1503.5,620C 1479,649.167 1454.5,678.333 1430,707.5C 1377.39,660.139 1316.56,644.972 1247.5,662C 1201.99,679.18 1170.82,710.68 1154,756.5C 1139.98,799.581 1140.31,842.581 1155,885.5C 1175.81,938.982 1214.31,971.482 1270.5,983C 1320.51,990.531 1366.68,980.698 1409,953.5C 1409.5,928.169 1409.67,902.836 1409.5,877.5 Z"/></g>
<g><path style="opacity:1" fill="#fefefe" d="M 520.5,555.5 C 594.501,555.333 668.501,555.5 742.5,556C 824.331,559.338 892.164,591.505 946,652.5C 992.027,711.247 1010.36,777.914 1001,852.5C 983.368,959.465 923.201,1030.3 820.5,1065C 799.213,1071.18 777.546,1075.52 755.5,1078C 677.181,1079.45 598.848,1079.95 520.5,1079.5C 520.5,904.833 520.5,730.167 520.5,555.5 Z"/></g>
<g><path style="opacity:1" fill="#000000" d="M 634.5,660.5 C 670.522,660.076 706.522,660.576 742.5,662C 817.613,672.114 862.78,714.281 878,788.5C 884.755,831.982 877.088,872.649 855,910.5C 829.083,947.394 793.583,968.894 748.5,975C 710.525,976.443 672.525,976.943 634.5,976.5C 634.5,871.167 634.5,765.833 634.5,660.5 Z"/></g>
<g><path style="opacity:1" fill="#a5a5a5" d="M 1520.5,1006.5 C 1520.5,930.5 1520.5,854.5 1520.5,778.5C 1444.83,778.5 1369.17,778.5 1293.5,778.5C 1293.5,811.167 1293.5,843.833 1293.5,876.5C 1332.34,876.168 1371,876.501 1409.5,877.5C 1370.5,877.5 1331.5,877.5 1292.5,877.5C 1292.5,844.167 1292.5,810.833 1292.5,777.5C 1368.83,777.5 1445.17,777.5 1521.5,777.5C 1521.83,854.002 1521.5,930.335 1520.5,1006.5 Z"/></g>
<g><path style="opacity:1" fill="#24d591" d="M 297.5,1047.5 C 301.969,1048.43 306.303,1049.77 310.5,1051.5C 316.421,1053.7 322.421,1055.7 328.5,1057.5C 331.172,1058.5 333.838,1059.5 336.5,1060.5C 317.198,1095.78 297.531,1130.78 277.5,1165.5C 267.098,1157.09 256.431,1149.09 245.5,1141.5C 244.833,1141.5 244.5,1141.17 244.5,1140.5C 246.074,1140.06 247.241,1139.06 248,1137.5C 264.258,1107.31 280.758,1077.31 297.5,1047.5 Z"/></g>
<g><path style="opacity:1" fill="#27d394" d="M 336.5,1060.5 C 339.833,1061.5 343.167,1062.5 346.5,1063.5C 353.954,1066.54 361.62,1069.21 369.5,1071.5C 365.893,1080.05 361.726,1088.38 357,1096.5C 340.312,1127.22 323.146,1157.55 305.5,1187.5C 296.901,1181.57 288.568,1175.24 280.5,1168.5C 279.167,1167.83 278.167,1166.83 277.5,1165.5C 297.531,1130.78 317.198,1095.78 336.5,1060.5 Z"/></g>
<g><path style="opacity:1" fill="#2bd097" d="M 369.5,1071.5 C 370.391,1072.11 371.391,1072.44 372.5,1072.5C 376.054,1074.11 379.721,1075.44 383.5,1076.5C 386.167,1077.5 388.833,1078.5 391.5,1079.5C 391.5,1095.5 391.5,1111.5 391.5,1127.5C 374.833,1157.17 358.167,1186.83 341.5,1216.5C 338.888,1215.22 336.555,1213.55 334.5,1211.5C 325.015,1203.59 315.349,1195.93 305.5,1188.5C 305.5,1188.17 305.5,1187.83 305.5,1187.5C 323.146,1157.55 340.312,1127.22 357,1096.5C 361.726,1088.38 365.893,1080.05 369.5,1071.5 Z"/></g>
<g><path style="opacity:1" fill="#2fcc9a" d="M 391.5,1127.5 C 391.5,1170.5 391.5,1213.5 391.5,1256.5C 389.5,1255.17 387.5,1253.83 385.5,1252.5C 377.903,1245.7 369.903,1239.36 361.5,1233.5C 354.833,1227.83 348.167,1222.17 341.5,1216.5C 358.167,1186.83 374.833,1157.17 391.5,1127.5 Z"/></g>
<g><path style="opacity:0.992" fill="#8b7eee" d="M 245.5,1141.5 C 256.431,1149.09 267.098,1157.09 277.5,1165.5C 278.167,1166.83 279.167,1167.83 280.5,1168.5C 264.582,1172.48 248.582,1176.48 232.5,1180.5C 236.637,1167.42 240.971,1154.42 245.5,1141.5 Z"/></g>
<g><path style="opacity:0.995" fill="#8682e9" d="M 280.5,1168.5 C 288.568,1175.24 296.901,1181.57 305.5,1187.5C 305.5,1187.83 305.5,1188.17 305.5,1188.5C 278.459,1195.58 251.126,1201.91 223.5,1207.5C 226.304,1198.42 229.304,1189.42 232.5,1180.5C 248.582,1176.48 264.582,1172.48 280.5,1168.5 Z"/></g>
<g><path style="opacity:0.997" fill="#7f88e3" d="M 305.5,1188.5 C 315.349,1195.93 325.015,1203.59 334.5,1211.5C 334.389,1212.12 334.056,1212.62 333.5,1213C 293.194,1222.36 252.861,1231.53 212.5,1240.5C 215.971,1229.42 219.637,1218.42 223.5,1207.5C 251.126,1201.91 278.459,1195.58 305.5,1188.5 Z"/></g>
<g><path style="opacity:0.998" fill="#798ddd" d="M 334.5,1211.5 C 336.555,1213.55 338.888,1215.22 341.5,1216.5C 348.167,1222.17 354.833,1227.83 361.5,1233.5C 361.389,1234.12 361.056,1234.62 360.5,1235C 307.794,1247.18 255.128,1259.34 202.5,1271.5C 205.435,1261.03 208.769,1250.69 212.5,1240.5C 252.861,1231.53 293.194,1222.36 333.5,1213C 334.056,1212.62 334.389,1212.12 334.5,1211.5 Z"/></g>
<g><path style="opacity:0.997" fill="#7392d7" d="M 361.5,1233.5 C 369.903,1239.36 377.903,1245.7 385.5,1252.5C 321.811,1268.04 257.811,1282.71 193.5,1296.5C 196.325,1288.02 199.325,1279.69 202.5,1271.5C 255.128,1259.34 307.794,1247.18 360.5,1235C 361.056,1234.62 361.389,1234.12 361.5,1233.5 Z"/></g>
<g><path style="opacity:0.999" fill="#6d97d2" d="M 385.5,1252.5 C 387.5,1253.83 389.5,1255.17 391.5,1256.5C 391.5,1263.5 391.5,1270.5 391.5,1277.5C 322.627,1293.63 253.627,1309.3 184.5,1324.5C 187.5,1315.17 190.5,1305.83 193.5,1296.5C 257.811,1282.71 321.811,1268.04 385.5,1252.5 Z"/></g>
<g><path style="opacity:0.999" fill="#699bcf" d="M 391.5,1277.5 C 391.5,1282.17 391.5,1286.83 391.5,1291.5C 321.852,1307.5 252.185,1323.5 182.5,1339.5C 181.287,1339.25 180.62,1338.59 180.5,1337.5C 181.435,1333.03 182.768,1328.7 184.5,1324.5C 253.627,1309.3 322.627,1293.63 391.5,1277.5 Z"/></g>
<g><path style="opacity:0.998" fill="#659ecb" d="M 391.5,1291.5 C 391.5,1298.5 391.5,1305.5 391.5,1312.5C 318.522,1328.62 245.688,1345.29 173,1362.5C 172.601,1362.27 172.435,1361.94 172.5,1361.5C 174.595,1353.22 177.261,1345.22 180.5,1337.5C 180.62,1338.59 181.287,1339.25 182.5,1339.5C 252.185,1323.5 321.852,1307.5 391.5,1291.5 Z"/></g>
<g><path style="opacity:0.997" fill="#62a1c8" d="M 391.5,1312.5 C 391.5,1317.5 391.5,1322.5 391.5,1327.5C 316.443,1344.68 241.443,1362.01 166.5,1379.5C 167.928,1373.22 169.928,1367.22 172.5,1361.5C 172.435,1361.94 172.601,1362.27 173,1362.5C 245.688,1345.29 318.522,1328.62 391.5,1312.5 Z"/></g>
<g><path style="opacity:0.999" fill="#5fa3c5" d="M 391.5,1327.5 C 391.5,1332.83 391.5,1338.17 391.5,1343.5C 316.478,1360.51 241.478,1377.67 166.5,1395C 164.613,1395.78 162.946,1395.61 161.5,1394.5C 162.595,1389.22 164.261,1384.22 166.5,1379.5C 241.443,1362.01 316.443,1344.68 391.5,1327.5 Z"/></g>
<g><path style="opacity:0.999" fill="#5ba6c3" d="M 391.5,1343.5 C 391.5,1349.5 391.5,1355.5 391.5,1361.5C 312.538,1379.66 233.538,1397.66 154.5,1415.5C 156.261,1408.22 158.595,1401.22 161.5,1394.5C 162.946,1395.61 164.613,1395.78 166.5,1395C 241.478,1377.67 316.478,1360.51 391.5,1343.5 Z"/></g>
<g><path style="opacity:0.999" fill="#58a9c0" d="M 391.5,1361.5 C 391.5,1365.83 391.5,1370.17 391.5,1374.5C 310.783,1393.04 230.116,1411.71 149.5,1430.5C 150.595,1425.22 152.261,1420.22 154.5,1415.5C 233.538,1397.66 312.538,1379.66 391.5,1361.5 Z"/></g>
<g><path style="opacity:0.998" fill="#55acbd" d="M 391.5,1374.5 C 391.5,1381.83 391.5,1389.17 391.5,1396.5C 308.998,1415.42 226.498,1434.42 144,1453.5C 143.098,1453.26 142.265,1452.92 141.5,1452.5C 143.991,1445.02 146.658,1437.69 149.5,1430.5C 230.116,1411.71 310.783,1393.04 391.5,1374.5 Z"/></g>
<g><path style="opacity:0.999" fill="#52aeba" d="M 391.5,1396.5 C 391.5,1399.83 391.5,1403.17 391.5,1406.5C 307.963,1425.26 224.463,1444.26 141,1463.5C 140.098,1463.26 139.265,1462.92 138.5,1462.5C 139.5,1459.17 140.5,1455.83 141.5,1452.5C 142.265,1452.92 143.098,1453.26 144,1453.5C 226.498,1434.42 308.998,1415.42 391.5,1396.5 Z"/></g>
<g><path style="opacity:0.999" fill="#4fb1b7" d="M 391.5,1406.5 C 391.5,1414.83 391.5,1423.17 391.5,1431.5C 304.055,1451.87 216.722,1471.53 129.5,1490.5C 132.102,1481.03 135.102,1471.69 138.5,1462.5C 139.265,1462.92 140.098,1463.26 141,1463.5C 224.463,1444.26 307.963,1425.26 391.5,1406.5 Z"/></g>
<g><path style="opacity:1" fill="#fefefe" d="M 508.5,1418.5 C 666.5,1418.5 824.5,1418.5 982.5,1418.5C 982.5,1444.83 982.5,1471.17 982.5,1497.5C 824.5,1497.5 666.5,1497.5 508.5,1497.5C 508.5,1471.17 508.5,1444.83 508.5,1418.5 Z"/></g>
<g><path style="opacity:0.999" fill="#4bb4b4" d="M 391.5,1431.5 C 391.5,1435.17 391.5,1438.83 391.5,1442.5C 303.518,1462.66 215.518,1482.83 127.5,1503C 126.309,1503.7 125.309,1504.53 124.5,1505.5C 125.595,1500.22 127.261,1495.22 129.5,1490.5C 216.722,1471.53 304.055,1451.87 391.5,1431.5 Z"/></g>
<g><path style="opacity:0.999" fill="#47b8b1" d="M 391.5,1442.5 C 391.5,1452.5 391.5,1462.5 391.5,1472.5C 299.5,1493.5 207.5,1514.5 115.5,1535.5C 115.5,1534.5 115.5,1533.5 115.5,1532.5C 117.928,1523.22 120.928,1514.22 124.5,1505.5C 125.309,1504.53 126.309,1503.7 127.5,1503C 215.518,1482.83 303.518,1462.66 391.5,1442.5 Z"/></g>
<g><path style="opacity:0.999" fill="#44bbad" d="M 391.5,1472.5 C 391.5,1474.17 391.5,1475.83 391.5,1477.5C 298.631,1499.3 205.631,1520.63 112.5,1541.5C 112.928,1538.22 113.928,1535.22 115.5,1532.5C 115.5,1533.5 115.5,1534.5 115.5,1535.5C 207.5,1514.5 299.5,1493.5 391.5,1472.5 Z"/></g>
<g><path style="opacity:0.998" fill="#41bdab" d="M 391.5,1477.5 C 391.5,1488.83 391.5,1500.17 391.5,1511.5C 294.47,1533.34 197.47,1555.34 100.5,1577.5C 103.928,1565.22 107.928,1553.22 112.5,1541.5C 205.631,1520.63 298.631,1499.3 391.5,1477.5 Z"/></g>
<g><path style="opacity:1" fill="#3dc0a8" d="M 391.5,1511.5 C 391.5,1515.17 391.5,1518.83 391.5,1522.5C 292.833,1545.17 194.167,1567.83 95.5,1590.5C 96.9904,1586.02 98.6571,1581.68 100.5,1577.5C 197.47,1555.34 294.47,1533.34 391.5,1511.5 Z"/></g>
<g><path style="opacity:0.999" fill="#3ac3a5" d="M 391.5,1522.5 C 391.5,1532.5 391.5,1542.5 391.5,1552.5C 289.467,1575.71 187.467,1599.04 85.5,1622.5C 88.6311,1611.77 91.9645,1601.11 95.5,1590.5C 194.167,1567.83 292.833,1545.17 391.5,1522.5 Z"/></g>
<g><path style="opacity:0.999" fill="#37c6a1" d="M 391.5,1552.5 C 391.5,1558.5 391.5,1564.5 391.5,1570.5C 286.964,1593.74 182.63,1617.74 78.5,1642.5C 80.4625,1635.61 82.7958,1628.94 85.5,1622.5C 187.467,1599.04 289.467,1575.71 391.5,1552.5 Z"/></g>
<g><path style="opacity:0.998" fill="#33c99e" d="M 391.5,1570.5 C 391.5,1580.5 391.5,1590.5 391.5,1600.5C 283.574,1625.48 175.574,1650.15 67.5,1674.5C 71.1667,1663.83 74.8333,1653.17 78.5,1642.5C 182.63,1617.74 286.964,1593.74 391.5,1570.5 Z"/></g>
<g><path style="opacity:0.999" fill="#2fcc9b" d="M 391.5,1600.5 C 391.5,1608.83 391.5,1617.17 391.5,1625.5C 281.295,1650.59 171.129,1675.93 61,1701.5C 60.2352,1701.43 59.7352,1701.1 59.5,1700.5C 61.9643,1691.77 64.631,1683.11 67.5,1674.5C 175.574,1650.15 283.574,1625.48 391.5,1600.5 Z"/></g>
<g><path style="opacity:1" fill="#2ccf98" d="M 391.5,1625.5 C 391.5,1630.83 391.5,1636.17 391.5,1641.5C 278.753,1667.98 166.086,1693.64 53.5,1718.5C 54.928,1712.22 56.928,1706.22 59.5,1700.5C 59.7352,1701.1 60.2352,1701.43 61,1701.5C 171.129,1675.93 281.295,1650.59 391.5,1625.5 Z"/></g>
<g><path style="opacity:0.999" fill="#2ad196" d="M 391.5,1641.5 C 391.5,1646.17 391.5,1650.83 391.5,1655.5C 402.833,1655.5 414.167,1655.5 425.5,1655.5C 298.765,1685.19 172.098,1714.19 45.5,1742.5C 47.5946,1734.22 50.2613,1726.22 53.5,1718.5C 166.086,1693.64 278.753,1667.98 391.5,1641.5 Z"/></g>
<g><path style="opacity:1" fill="#27d394" d="M 425.5,1655.5 C 470.167,1655.5 514.833,1655.5 559.5,1655.5C 385.078,1695.75 210.578,1736.09 36,1776.5C 35.6174,1775.94 35.1174,1775.61 34.5,1775.5C 37.5946,1764.22 41.2613,1753.22 45.5,1742.5C 172.098,1714.19 298.765,1685.19 425.5,1655.5 Z"/></g>
<g><path style="opacity:0.999" fill="#26d492" d="M 559.5,1655.5 C 575.5,1655.5 591.5,1655.5 607.5,1655.5C 415.013,1700.12 222.346,1744.45 29.5,1788.5C 30.9904,1784.02 32.6571,1779.68 34.5,1775.5C 35.1174,1775.61 35.6174,1775.94 36,1776.5C 210.578,1736.09 385.078,1695.75 559.5,1655.5 Z"/></g>
<g><path style="opacity:0.999" fill="#23d690" d="M 607.5,1655.5 C 654.167,1655.5 700.833,1655.5 747.5,1655.5C 504.622,1711.63 261.622,1767.63 18.5,1823.5C 21.9645,1811.77 25.6312,1800.11 29.5,1788.5C 222.346,1744.45 415.013,1700.12 607.5,1655.5 Z"/></g>
<g><path style="opacity:0.999" fill="#22d78f" d="M 747.5,1655.5 C 795.833,1655.5 844.167,1655.5 892.5,1655.5C 909.852,1670.18 927.519,1684.52 945.5,1698.5C 962.185,1711.52 978.852,1724.52 995.5,1737.5C 999.847,1741.85 1004.51,1745.85 1009.5,1749.5C 1023.83,1760.83 1038.17,1772.17 1052.5,1783.5C 1059.28,1789.4 1066.28,1795.06 1073.5,1800.5C 1087.5,1811.5 1101.5,1822.5 1115.5,1833.5C 1122.19,1839.52 1129.19,1845.18 1136.5,1850.5C 1147.28,1859.4 1158.28,1868.06 1169.5,1876.5C 1174.79,1880.82 1180.13,1885.16 1185.5,1889.5C 1193.81,1896.14 1202.14,1902.8 1210.5,1909.5C 1214.61,1913.06 1218.95,1916.4 1223.5,1919.5C 1230.52,1925.85 1237.85,1931.85 1245.5,1937.5C 1254.98,1945.41 1264.65,1953.07 1274.5,1960.5C 1310.5,1989.5 1346.5,2018.5 1382.5,2047.5C 1380.5,2047.5 1378.5,2047.5 1376.5,2047.5C 926.374,1974.59 476.041,1902.09 25.5,1830C 22.2979,1829.8 19.2979,1828.97 16.5,1827.5C 16.9943,1825.97 17.661,1824.64 18.5,1823.5C 261.622,1767.63 504.622,1711.63 747.5,1655.5 Z"/></g>
<g><path style="opacity:1" fill="#6e97d3" d="M 892.5,1655.5 C 918.167,1655.5 943.833,1655.5 969.5,1655.5C 961.246,1669.67 953.246,1684.01 945.5,1698.5C 927.519,1684.52 909.852,1670.18 892.5,1655.5 Z"/></g>
<g><path style="opacity:1" fill="#7392d8" d="M 969.5,1655.5 C 993.167,1655.5 1016.83,1655.5 1040.5,1655.5C 1025.5,1682.83 1010.5,1710.17 995.5,1737.5C 978.852,1724.52 962.185,1711.52 945.5,1698.5C 953.246,1684.01 961.246,1669.67 969.5,1655.5 Z"/></g>
<g><path style="opacity:1" fill="#7690db" d="M 1040.5,1655.5 C 1047.17,1655.5 1053.83,1655.5 1060.5,1655.5C 1043.5,1686.83 1026.5,1718.17 1009.5,1749.5C 1004.51,1745.85 999.847,1741.85 995.5,1737.5C 1010.5,1710.17 1025.5,1682.83 1040.5,1655.5 Z"/></g>
<g><path style="opacity:1" fill="#7a8dde" d="M 1060.5,1655.5 C 1081.17,1655.5 1101.83,1655.5 1122.5,1655.5C 1099.6,1698.4 1076.26,1741.07 1052.5,1783.5C 1038.17,1772.17 1023.83,1760.83 1009.5,1749.5C 1026.5,1718.17 1043.5,1686.83 1060.5,1655.5 Z"/></g>
<g><path style="opacity:1" fill="#7d8ae1" d="M 1122.5,1655.5 C 1132.5,1655.5 1142.5,1655.5 1152.5,1655.5C 1125.37,1703.42 1099.04,1751.76 1073.5,1800.5C 1066.28,1795.06 1059.28,1789.4 1052.5,1783.5C 1076.26,1741.07 1099.6,1698.4 1122.5,1655.5 Z"/></g>
<g><path style="opacity:1" fill="#8187e4" d="M 1152.5,1655.5 C 1172.83,1655.5 1193.17,1655.5 1213.5,1655.5C 1180.83,1714.83 1148.17,1774.17 1115.5,1833.5C 1101.5,1822.5 1087.5,1811.5 1073.5,1800.5C 1099.04,1751.76 1125.37,1703.42 1152.5,1655.5 Z"/></g>
<g><path style="opacity:1" fill="#8484e7" d="M 1213.5,1655.5 C 1223.5,1655.5 1233.5,1655.5 1243.5,1655.5C 1208.1,1720.63 1172.43,1785.63 1136.5,1850.5C 1129.19,1845.18 1122.19,1839.52 1115.5,1833.5C 1148.17,1774.17 1180.83,1714.83 1213.5,1655.5 Z"/></g>
<g><path style="opacity:1" fill="#8781ea" d="M 1243.5,1655.5 C 1259.17,1655.5 1274.83,1655.5 1290.5,1655.5C 1249.91,1729.01 1209.58,1802.67 1169.5,1876.5C 1158.28,1868.06 1147.28,1859.4 1136.5,1850.5C 1172.43,1785.63 1208.1,1720.63 1243.5,1655.5 Z"/></g>
<g><path style="opacity:1" fill="#8a7fec" d="M 1290.5,1655.5 C 1298.17,1655.5 1305.83,1655.5 1313.5,1655.5C 1270.83,1733.5 1228.17,1811.5 1185.5,1889.5C 1180.13,1885.16 1174.79,1880.82 1169.5,1876.5C 1209.58,1802.67 1249.91,1729.01 1290.5,1655.5 Z"/></g>
<g><path style="opacity:1" fill="#8c7dee" d="M 1313.5,1655.5 C 1325.83,1655.5 1338.17,1655.5 1350.5,1655.5C 1303.85,1740.14 1257.18,1824.81 1210.5,1909.5C 1202.14,1902.8 1193.81,1896.14 1185.5,1889.5C 1228.17,1811.5 1270.83,1733.5 1313.5,1655.5 Z"/></g>
<g><path style="opacity:1" fill="#8e7bf0" d="M 1350.5,1655.5 C 1356.5,1655.5 1362.5,1655.5 1368.5,1655.5C 1319.65,1743.21 1271.31,1831.21 1223.5,1919.5C 1218.95,1916.4 1214.61,1913.06 1210.5,1909.5C 1257.18,1824.81 1303.85,1740.14 1350.5,1655.5 Z"/></g>
<g><path style="opacity:1" fill="#907af2" d="M 1368.5,1655.5 C 1379.17,1655.5 1389.83,1655.5 1400.5,1655.5C 1348.31,1749.21 1296.65,1843.21 1245.5,1937.5C 1237.85,1931.85 1230.52,1925.85 1223.5,1919.5C 1271.31,1831.21 1319.65,1743.21 1368.5,1655.5 Z"/></g>
<g><path style="opacity:1" fill="#9377f4" d="M 1400.5,1655.5 C 1414.5,1655.5 1428.5,1655.5 1442.5,1655.5C 1386.23,1757.03 1330.23,1858.7 1274.5,1960.5C 1264.65,1953.07 1254.98,1945.41 1245.5,1937.5C 1296.65,1843.21 1348.31,1749.21 1400.5,1655.5 Z"/></g>
<g><path style="opacity:0.996" fill="#9675f7" d="M 1442.5,1655.5 C 1459.17,1655.5 1475.83,1655.5 1492.5,1655.5C 1456.19,1786.07 1420.19,1916.74 1384.5,2047.5C 1383.83,2047.5 1383.17,2047.5 1382.5,2047.5C 1346.5,2018.5 1310.5,1989.5 1274.5,1960.5C 1330.23,1858.7 1386.23,1757.03 1442.5,1655.5 Z"/></g>
</svg>
