<svg width="512" height="512" viewBox="0 0 512 512" fill="none" xmlns="http://www.w3.org/2000/svg">
<g clip-path="url(#clip0_1_2)">
<path d="M270.09 157.92H231.465V119.296H270.09V157.92Z" fill="#00A0DC"/>
<path d="M270.09 206.477H231.465V167.853H270.09V206.477Z" fill="#00A0DC"/>
<path d="M270.09 255.034H231.465V216.409H270.09V255.034Z" fill="#00A0DC"/>
<path d="M223.188 206.477H184.563V167.853H223.188V206.477Z" fill="#00A0DC"/>
<path d="M223.188 255.034H184.563V216.409H223.188V255.034Z" fill="#00A0DC"/>
<path d="M176.286 206.477H137.661V167.853H176.286V206.477Z" fill="#00A0DC"/>
<path d="M176.286 255.034H137.661V216.409H176.286V255.034Z" fill="#00A0DC"/>
<path d="M129.936 255.034H91.311V216.409H129.936V255.034Z" fill="#00A0DC"/>
<path d="M316.992 255.034H278.366V216.409H316.992V255.034Z" fill="#00A0DC"/>
<mask id="mask0_1_2" style="mask-type:luminance" maskUnits="userSpaceOnUse" x="50" y="50" width="412" height="412">
<path d="M50 50H462V462H50V50Z" fill="white"/>
</mask>
<g mask="url(#mask0_1_2)">
<path d="M195.769 392.705C53.5137 392.705 70.0673 267.449 70.0673 267.449H307.563C347.616 267.449 360.858 254.758 360.858 254.758C360.858 254.758 338.235 225.514 364.721 190.199C394.517 207.305 393.414 232.687 393.414 232.687C393.414 232.687 423.762 222.755 442.523 239.86C432.039 274.071 385.689 271.864 385.689 271.864C385.689 271.864 342.649 392.705 195.769 392.705Z" fill="#00A0DC"/>
</g>
</g>
<defs>
<clipPath id="clip0_1_2">
<rect width="412" height="412" fill="white" transform="translate(50 50)"/>
</clipPath>
</defs>
</svg>
