<svg width="512" height="512" viewBox="0 0 512 512" fill="none" xmlns="http://www.w3.org/2000/svg">
<g clip-path="url(#clip0_1_2)">
<path d="M178.016 490C221.063 490 256 455.056 256 412V334H178.016C134.968 334 100.031 368.944 100.031 412C100.031 455.056 134.968 490 178.016 490Z" fill="#0ACF83"/>
<path d="M100.031 256C100.031 212.944 134.968 178 178.016 178H256V334H178.016C134.968 334 100.031 299.056 100.031 256Z" fill="#A259FF"/>
<path d="M100.031 100C100.031 56.944 134.968 22 178.016 22H256V178H178.016C134.968 178 100.031 143.056 100.031 100Z" fill="#F24E1E"/>
<path d="M256 22H333.984C377.032 22 411.969 56.944 411.969 100C411.969 143.056 377.032 178 333.984 178H256V22Z" fill="#FF7262"/>
<path d="M411.969 256C411.969 299.056 377.032 334 333.984 334C290.937 334 256 299.056 256 256C256 212.944 290.937 178 333.984 178C377.032 178 411.969 212.944 411.969 256Z" fill="#1ABCFE"/>
</g>
<defs>
<clipPath id="clip0_1_2">
<rect width="312" height="468" fill="white" transform="translate(100 22)"/>
</clipPath>
</defs>
</svg>
