<svg width="512" height="512" viewBox="0 0 512 512" fill="none" xmlns="http://www.w3.org/2000/svg">
<g clip-path="url(#clip0_1_2)">
<path d="M256.075 374.075L303.179 229.104H208.971L256.075 374.075Z" fill="#E24329"/>
<path d="M256.075 374.074L208.971 229.104H142.956L256.075 374.074Z" fill="#FC6D26"/>
<path d="M142.956 229.104L128.642 273.16C127.336 277.178 128.766 281.58 132.184 284.063L256.075 374.075L142.956 229.104Z" fill="#FCA326"/>
<path d="M142.956 229.105H208.971L180.6 141.79C179.141 137.297 172.785 137.298 171.326 141.79L142.956 229.105Z" fill="#E24329"/>
<path d="M256.075 374.074L303.179 229.104H369.194L256.075 374.074Z" fill="#FC6D26"/>
<path d="M369.194 229.104L383.508 273.16C384.814 277.178 383.384 281.58 379.965 284.063L256.075 374.075L369.194 229.104Z" fill="#FCA326"/>
<path d="M369.194 229.105H303.179L331.55 141.79C333.009 137.297 339.365 137.298 340.824 141.79L369.194 229.105Z" fill="#E24329"/>
</g>
<defs>
<clipPath id="clip0_1_2">
<rect width="256" height="236" fill="white" transform="translate(128 138)"/>
</clipPath>
</defs>
</svg>
