<svg width="512" height="512" viewBox="0 0 512 512" fill="none" xmlns="http://www.w3.org/2000/svg">
<path d="M393.244 248.716C393.244 326.335 331.721 389.317 255.787 389.317C179.853 389.317 118.33 326.335 118.33 248.716C118.33 171.097 179.853 108.114 255.787 108.114C331.721 108.114 393.244 171.097 393.244 248.716Z" fill="#D33833"/>
<path d="M123.983 283.533C123.983 283.533 114.006 136.944 249.136 132.731L239.713 116.985L166.44 141.601L145.489 165.663L127.198 200.703L116.778 241.508L119.882 268.786" fill="#EF3D3A"/>
<path d="M161.673 152.801C137.618 177.528 122.653 211.569 122.653 249.27C122.653 286.971 137.618 321.012 161.673 345.739C185.839 370.467 218.984 385.658 255.787 385.658C292.59 385.658 325.735 370.467 349.901 345.739C373.956 321.012 388.921 286.971 388.921 249.27C388.921 211.569 373.956 177.528 349.901 152.801C325.735 128.184 292.59 112.882 255.787 112.882C219.095 112.882 185.839 128.073 161.673 152.801ZM155.576 351.616C129.969 325.448 114.117 289.188 114.117 249.27C114.117 209.352 129.969 173.092 155.576 146.813C181.183 120.644 216.656 104.344 255.787 104.344C294.918 104.344 330.391 120.644 355.998 146.813C381.605 172.982 397.457 209.241 397.457 249.27C397.457 289.188 381.605 325.448 355.998 351.616C330.391 377.896 294.918 394.085 255.787 394.085C216.656 394.085 181.183 377.896 155.576 351.616Z" fill="#231F20"/>
<path d="M313.652 249.492L292.701 252.597L264.433 255.812L246.143 256.256L228.295 255.701L214.661 251.488L202.578 238.403L193.155 211.68L191.049 205.914L178.523 201.701L171.206 189.614L165.996 172.316L171.761 157.125L185.395 152.357L196.37 157.569L201.58 169.101L207.899 168.103L210.005 165.441L207.899 153.355L207.344 138.164L210.448 117.207L210.337 105.231L219.871 89.9292L236.609 77.8429L265.875 65.3129L298.354 70.081L326.622 90.4837L339.702 111.441L348.127 126.632L350.233 164.333L343.915 196.822L332.386 225.652L321.523 241.065" fill="#F0D6B7"/>
<path d="M295.916 340.084L221.09 343.189V355.719L227.409 399.74L224.305 403.399L171.982 385.547L168.324 379.226L163.114 320.014L150.809 284.531L148.149 276.104L190.051 247.274L203.132 242.062L214.661 256.256L224.637 265.126L236.166 268.786L241.376 270.338L247.695 297.616L252.461 303.382L264.544 299.168L256.12 315.468L301.569 336.979L295.916 340.084Z" fill="#335061"/>
<path d="M171.761 157.347L185.395 152.579L196.37 157.79L201.58 169.322L207.899 168.324L209.451 162.004L206.347 149.918L209.451 121.088L206.79 105.342L216.213 94.3646L236.609 78.1755L230.845 70.3027L202.023 84.4959L189.94 93.921L183.178 108.558L172.758 122.751L169.654 139.494L171.761 157.347Z" fill="#6D6B6D"/>
<path d="M193.266 108.114C193.266 108.114 201.137 88.7095 232.508 79.2843C263.879 69.8592 234.06 72.5204 234.06 72.5204L200.028 85.6047L186.947 98.6891L181.183 109.112L193.266 108.114Z" fill="#DCD9D8"/>
<path d="M177.525 153.688C177.525 153.688 166.551 116.985 208.453 111.773L206.901 105.453L178.079 112.217L169.654 139.495L171.761 157.347L177.525 153.688Z" fill="#DCD9D8"/>
<path d="M194.264 202.366L201.137 195.713C201.137 195.713 204.24 196.046 204.795 199.705C205.349 203.364 206.901 236.407 229.404 254.149C231.51 255.812 212.665 251.488 212.665 251.488L195.926 225.319" fill="#F7E4CD"/>
<path d="M290.595 192.386C290.595 192.386 291.814 176.53 296.137 177.75C300.461 178.969 300.461 183.294 300.461 183.294C300.461 183.294 290.04 189.947 290.595 192.386Z" fill="#F7E4CD"/>
<path d="M334.049 134.283C334.049 134.283 325.402 136.057 324.626 143.708C323.851 151.359 334.049 145.26 335.601 144.706" fill="#F7E4CD"/>
<path d="M270.752 134.837C270.752 134.837 259.223 136.39 259.223 143.708C259.223 151.026 272.304 150.472 275.962 147.367" fill="#F7E4CD"/>
<path d="M199.585 168.879C199.585 168.879 179.742 156.792 177.636 168.324C175.53 179.856 170.874 188.173 180.74 200.259L173.978 198.152L167.659 181.963L165.553 166.218L177.636 153.688L191.271 154.686L199.141 161.006L199.585 168.879Z" fill="#F7E4CD"/>
<path d="M209.007 135.835C209.007 135.835 217.875 89.7075 262.882 80.8367C299.906 73.5184 319.416 82.3891 326.733 90.8163C326.733 90.8163 293.699 51.5633 262.327 63.5388C230.956 75.6252 207.899 97.5803 208.453 111.663C209.34 135.835 209.007 135.835 209.007 135.835Z" fill="#F7E4CD"/>
<path d="M330.391 96.0279C330.391 96.0279 315.204 95.4734 314.65 109.112C314.65 109.112 314.65 111.219 315.647 113.326C315.647 113.326 327.73 99.687 335.047 107.005" fill="#F7E4CD"/>
<path d="M263.99 114.767C263.99 114.767 261.33 93.9211 243.593 106.007C232.064 113.88 233.173 124.858 235.168 126.965C237.275 129.071 236.72 133.285 238.272 130.402C239.824 127.519 239.381 118.094 245.145 115.433C250.799 112.771 260.332 109.888 263.99 114.767Z" fill="#F7E4CD"/>
<path d="M214.771 256.256L165.553 278.211C165.553 278.211 185.95 359.378 175.53 384.549L168.213 381.888L167.659 350.951L154.024 292.404L148.26 276.215L199.585 241.619L214.771 256.256Z" fill="#49728B"/>
<path d="M219.76 301.164L226.744 309.702V341.082H218.43C218.43 341.082 217.432 319.127 217.432 316.466C217.432 313.805 218.43 304.38 218.43 304.38" fill="#49728B"/>
<path d="M219.982 345.85L196.37 346.848L203.132 351.616L219.871 354.277" fill="#49728B"/>
<path d="M300.571 340.639L319.971 340.084L324.737 388.208L304.895 390.869L300.571 340.639Z" fill="#335061"/>
<path d="M305.782 340.639L335.047 339.086C335.047 339.086 347.13 308.704 347.13 307.152C347.13 305.599 357.55 263.131 357.55 263.131L333.938 238.514L329.171 234.301L316.645 246.831V295.509L305.782 340.639Z" fill="#335061"/>
<path d="M318.862 336.979L300.571 340.639L303.232 355.275C309.994 358.38 321.523 350.064 321.523 350.064" fill="#49728B"/>
<path d="M319.416 245.278L356.109 272.556L357.106 260.026L329.393 234.411L319.416 245.278Z" fill="#49728B"/>
<path d="M238.161 443.761L227.298 399.74L221.866 367.251L220.979 343.189L270.087 340.528H300.571L297.8 395.526L302.567 437.995L302.013 445.868L262.216 448.973L238.161 443.761Z" fill="white"/>
<path d="M293.809 340.084C293.809 340.084 291.149 394.528 299.02 433.338C299.02 433.338 283.278 443.318 260.332 445.868L304.34 444.315L309.551 441.211L303.232 355.386L301.569 336.979" fill="#DCD9D8"/>
<path d="M325.513 384.105L345.91 378.339L384.598 376.232L390.362 358.38L379.942 327.443L367.859 325.891L351.12 331.103L335.158 338.975L326.622 337.423L319.971 340.084" fill="white"/>
<path d="M325.181 373.571C325.181 373.571 338.816 367.251 340.922 367.805L335.158 338.975L341.92 336.314C341.92 336.314 346.686 363.592 346.686 366.696C346.686 366.696 375.951 368.249 378.612 368.249C378.612 368.249 384.93 356.162 383.378 343.633L389.143 360.376L389.697 369.801L381.272 382.331L371.85 384.438L356.109 383.884L350.899 377.12L332.608 379.781L326.844 381.888" fill="#DCD9D8"/>
<path d="M304.562 336.425L293.033 307.152L280.951 289.854C280.951 289.854 283.611 282.535 287.269 282.535H299.352L310.881 286.749L309.883 306.154L304.562 336.425Z" fill="white"/>
<path d="M306.89 326.445C306.89 326.445 292.258 298.17 292.258 293.956C292.258 293.956 294.918 287.636 298.576 289.188C302.234 290.741 310.105 294.954 310.105 294.954V284.975L292.258 281.316L280.175 282.868L300.571 331.213L304.784 331.768" fill="#DCD9D8"/>
<path d="M242.817 257.365L228.295 255.812L214.661 251.599V256.367L221.312 263.685L242.263 273.11" fill="white"/>
<path d="M219.427 258.917C219.427 258.917 235.612 265.681 240.933 264.128L241.487 270.449L226.854 267.344L217.986 261.024L219.427 258.917Z" fill="#DCD9D8"/>
<path d="M325.513 284.309C316.645 284.088 308.553 282.979 301.569 280.983C302.013 278.1 301.126 275.328 301.902 273.221C303.897 271.779 307.112 271.779 310.105 271.447C307.555 270.227 303.897 269.673 301.015 270.449C300.904 268.453 300.017 267.233 299.463 265.681C304.451 263.907 316.202 252.264 322.853 256.034C326.068 257.919 327.398 268.342 327.62 273.554C327.841 277.767 327.176 281.981 325.513 284.309Z" fill="#D33833"/>
<path d="M325.513 284.309C316.645 284.088 308.553 282.979 301.569 280.983C302.013 278.1 301.126 275.328 301.902 273.221C303.897 271.779 307.112 271.779 310.105 271.447C307.555 270.227 303.897 269.673 301.015 270.449C300.904 268.453 300.017 267.233 299.463 265.681C304.451 263.907 316.202 252.264 322.853 256.034C326.068 257.919 327.398 268.342 327.62 273.554C327.841 277.767 327.176 281.981 325.513 284.309Z" fill="black" stroke="#D33833" stroke-width="2"/>
<path d="M283.057 269.784C283.057 270.449 283.057 271.114 282.946 271.779C280.175 273.554 275.74 273.554 272.637 275.106C277.071 275.328 280.618 276.437 283.722 277.878C283.611 279.541 283.611 281.316 283.5 282.979C278.401 286.416 273.745 291.628 267.759 294.954C264.877 296.507 255.011 300.499 252.018 299.722C250.355 299.279 250.133 297.172 249.468 295.176C248.027 290.962 244.702 284.088 244.369 277.656C244.037 269.562 243.15 255.923 251.907 257.586C259.002 258.917 267.205 262.133 272.637 265.126C276.073 267.122 277.957 269.34 283.057 269.784Z" fill="#D33833"/>
<path d="M283.057 269.784C283.057 270.449 283.057 271.114 282.946 271.779C280.175 273.554 275.74 273.554 272.637 275.106C277.071 275.328 280.618 276.437 283.722 277.878C283.611 279.541 283.611 281.316 283.5 282.979C278.401 286.416 273.745 291.628 267.759 294.954C264.877 296.507 255.011 300.499 252.018 299.722C250.355 299.279 250.133 297.172 249.468 295.176C248.027 290.962 244.702 284.088 244.369 277.656C244.037 269.562 243.15 255.923 251.907 257.586C259.002 258.917 267.205 262.133 272.637 265.126C276.073 267.122 277.957 269.34 283.057 269.784Z" fill="black" stroke="#D33833" stroke-width="2"/>
<path d="M288.045 279.43C287.269 274.995 286.382 273.775 286.715 269.894C298.576 262.022 300.682 283.422 288.045 279.43Z" fill="#D33833"/>
<path d="M288.045 279.43C287.269 274.995 286.382 273.775 286.715 269.894C298.576 262.022 300.682 283.422 288.045 279.43Z" fill="black" stroke="#D33833" stroke-width="2"/>
<path d="M305.116 282.979C305.116 282.979 301.458 277.767 304.119 276.215C306.779 274.662 309.329 276.215 310.881 273.554C312.433 270.892 310.881 269.34 311.435 266.235C311.989 263.131 314.539 262.576 317.199 262.022C319.86 261.467 327.176 260.469 328.174 263.02L325.07 253.594L318.751 251.488L298.909 263.02L297.911 268.786V280.318" fill="#EF3D3A"/>
<path d="M250.133 300.277C249.468 292.071 248.803 283.977 248.138 275.771C247.03 263.574 251.02 265.681 261.662 265.681C263.325 265.681 271.639 267.566 272.193 268.786C275.075 274.663 267.426 273.332 275.519 277.767C282.281 281.426 294.364 275.55 291.592 267.233C290.04 265.348 283.611 266.679 281.283 265.459C277.182 263.352 273.08 261.245 268.978 259.139C263.768 256.477 251.796 252.486 246.254 256.256C232.175 265.792 247.14 289.743 252.129 299.722" fill="#EF3D3A"/>
<path d="M263.99 114.767C249.69 111.441 242.595 120.755 238.272 130.402C234.392 129.515 235.944 124.192 236.942 121.531C239.492 114.546 249.801 105.12 258.226 106.451C261.773 106.895 266.651 110.221 263.99 114.767Z" fill="#231F20"/>
<path d="M333.495 130.956H334.16C337.375 137.609 340.146 144.706 344.247 150.694C341.476 157.125 323.629 162.669 323.851 151.359C327.73 149.696 334.382 151.026 337.818 148.809C335.823 143.375 333.051 138.718 333.495 130.956Z" fill="#231F20"/>
<path d="M271.195 131.178C274.299 136.833 275.297 142.71 279.62 146.924C281.616 148.809 285.385 151.137 283.5 156.46C283.057 157.68 279.842 160.452 277.957 161.006C271.195 163.002 255.344 161.45 260.664 152.912C266.318 153.133 273.856 156.571 278.068 152.468C274.854 147.367 269.089 137.166 271.195 131.178Z" fill="#231F20"/>
<path d="M330.945 188.173C320.747 194.715 309.329 201.922 292.479 200.259C288.932 197.154 287.491 190.169 291.038 185.622C292.812 188.727 291.703 194.493 296.802 195.38C306.336 197.043 317.421 189.503 324.294 186.953C328.506 179.746 323.961 177.195 320.082 172.538C312.211 163.113 301.791 151.359 302.123 137.277C305.338 134.948 305.56 140.825 306.003 141.823C310.105 151.359 320.414 163.667 327.841 171.873C329.726 173.869 332.719 175.865 333.051 177.195C334.049 180.965 330.502 185.622 330.945 188.173Z" fill="#231F20"/>
<path d="M195.926 181.298C192.712 179.413 191.936 171.429 188.167 171.207C182.735 170.875 183.733 181.631 183.733 187.951C180.075 184.624 179.409 174.201 182.07 168.879C178.966 167.326 177.636 170.542 175.862 171.651C178.19 155.573 199.474 164.222 195.926 181.298Z" fill="#231F20"/>
<path d="M337.375 194.937C332.608 204.029 325.846 214.009 311.878 214.341C311.546 211.458 311.324 206.912 311.878 205.138C322.631 204.029 329.282 198.596 337.375 194.937Z" fill="#231F20"/>
<path d="M270.42 200.814C279.288 205.471 295.694 206.025 307.888 205.692C308.553 208.354 308.553 211.68 308.553 214.896C292.923 215.561 274.521 211.68 270.42 200.814Z" fill="#231F20"/>
<path d="M268.757 209.462C274.964 224.986 296.137 223.212 313.985 222.769C313.209 224.765 311.546 227.204 309.329 227.98C303.564 230.309 287.823 232.083 279.842 227.869C274.854 225.208 271.528 219.109 268.757 215.561C267.537 213.898 260.886 209.573 268.757 209.462Z" fill="#231F20"/>
<path d="M330.169 294.954C322.964 307.373 315.98 320.125 307.444 330.992C310.992 320.458 312.544 302.716 313.098 289.188C320.636 285.64 327.065 289.965 330.169 294.954Z" fill="#81B0C4"/>
<path d="M369.078 339.53C360.986 341.193 355.333 349.066 347.351 348.511C351.785 342.413 359.323 339.752 369.078 339.53Z" fill="#231F20"/>
<path d="M372.626 352.171C365.975 352.836 358.215 353.945 351.564 353.39C354.778 348.511 366.972 350.286 372.626 352.171Z" fill="#231F20"/>
<path d="M374.954 363.148C367.526 363.259 358.326 363.148 351.231 362.594C355.444 358.047 370.187 360.93 374.954 363.148Z" fill="#231F20"/>
<path d="M316.202 393.087C317.31 402.401 320.968 411.826 320.525 422.028C316.423 423.358 314.095 424.578 308.553 424.578C308.22 415.929 307.001 402.623 307.333 394.307C309.994 394.528 313.985 392.422 316.202 393.087Z" fill="#DCD9D8"/>
<path d="M304.23 255.59C300.461 258.03 297.357 261.024 293.699 263.685C285.717 264.128 281.394 263.131 275.63 258.584C275.74 258.252 276.295 258.363 276.295 257.919C284.83 261.689 295.694 256.367 304.23 255.59Z" fill="#F0D6B7"/>
<path d="M259.667 313.583C261.995 303.492 271.195 298.17 279.509 292.626C288.045 303.492 293.255 317.464 299.02 330.992C285.385 326.889 271.528 320.347 259.667 313.583Z" fill="#81B0C4"/>
<path d="M307.333 394.418C307.001 402.734 308.109 415.929 308.553 424.689C314.095 424.689 316.423 423.469 320.525 422.139C320.968 411.937 317.31 402.512 316.202 393.198C313.985 392.422 309.994 394.528 307.333 394.418ZM221.755 347.403C225.413 380.779 230.623 408.722 240.268 438.328C261.662 444.87 287.38 445.424 306.336 439.547C302.899 422.915 304.34 402.623 302.345 384.771C300.793 371.354 301.569 357.937 299.463 344.298C276.516 339.53 244.147 343.189 221.755 347.403ZM304.895 344.52C304.673 358.824 305.56 373.017 306.668 387.321C312.211 386.545 315.869 385.99 320.968 384.771C319.306 371.021 319.527 355.386 316.091 343.189C312.211 343.3 308.775 343.189 304.895 344.52ZM332.719 342.191C330.058 341.637 327.065 342.191 324.626 342.191C325.846 353.834 328.617 366.696 329.615 379.005C333.495 379.116 335.601 377.231 338.816 376.676C339.037 365.92 337.929 351.062 332.719 342.191ZM374.954 380.779C383.157 378.783 388.256 368.803 385.928 358.491C384.376 351.616 381.716 338.532 378.723 334.096C376.616 330.881 370.741 326.556 365.975 329.55C358.326 334.429 344.913 335.871 339.37 341.748C342.141 351.062 343.028 363.703 344.137 375.456C353.67 376.011 365.309 372.795 373.291 376.233C367.748 378.007 360.654 378.007 355.887 380.668C359.878 382.553 368.968 382.22 374.954 380.779ZM298.909 330.992C293.144 317.464 287.934 303.492 279.399 292.626C271.085 298.17 261.995 303.492 259.556 313.583C271.528 320.347 285.385 326.889 298.909 330.992ZM313.098 289.188C312.544 302.716 310.992 320.458 307.444 330.992C315.98 320.014 322.964 307.373 330.169 294.954C327.065 289.965 320.636 285.64 313.098 289.188ZM297.024 283.533C293.809 283.201 291.038 287.303 286.826 285.529C285.828 286.638 284.941 287.747 283.944 288.856C293.255 300.166 297.578 316.133 304.784 329.328C308.664 316.577 308.22 302.716 309.107 288.856C303.786 289.077 300.793 283.866 297.024 283.533ZM286.715 269.894C286.382 273.775 287.269 274.995 288.045 279.431C300.682 283.422 298.576 262.022 286.715 269.894ZM272.637 265.237C267.205 262.243 259.002 259.028 251.907 257.697C243.15 256.034 244.037 269.673 244.369 277.767C244.702 284.199 248.027 290.962 249.468 295.287C250.133 297.283 250.355 299.39 252.018 299.833C255.011 300.499 264.988 296.618 267.759 295.065C273.745 291.85 278.401 286.638 283.5 283.09C283.611 281.426 283.611 279.652 283.722 277.989C280.618 276.437 277.182 275.439 272.637 275.217C275.63 273.665 280.175 273.665 282.946 271.89C282.946 271.225 282.946 270.56 283.057 269.894C277.958 269.34 276.073 267.122 272.637 265.237ZM220.536 255.812C215.991 260.469 233.284 266.679 238.716 267.011C238.716 264.128 240.378 261.356 240.046 259.25C233.506 258.141 224.97 258.917 220.536 255.812ZM276.406 257.919C276.406 258.363 275.851 258.252 275.74 258.584C281.616 263.131 285.939 264.128 293.809 263.685C297.357 261.135 300.571 258.03 304.34 255.59C295.694 256.367 284.83 261.689 276.406 257.919ZM327.62 273.443C327.398 268.342 326.068 257.808 322.853 255.923C316.202 252.042 304.451 263.796 299.463 265.57C300.017 267.122 300.904 268.342 301.015 270.338C304.008 269.562 307.555 270.116 310.105 271.336C307.112 271.669 303.897 271.669 301.902 273.11C301.237 275.217 302.123 277.989 301.569 280.872C308.553 282.868 316.645 283.866 325.513 284.199C327.176 281.981 327.841 277.767 327.62 273.443ZM212.887 260.248C211.446 259.25 201.802 246.72 200.471 247.274C183.068 254.149 166.772 266.014 152.251 277.324C166.107 307.152 171.761 343.633 172.758 378.783C188.61 386.212 202.578 396.968 224.194 398.077C221.644 380.446 219.427 364.59 217.986 347.957C212.554 345.628 204.795 348.068 199.695 347.292C199.695 341.193 207.455 344.63 208.12 340.528C208.564 337.423 203.797 337.201 205.349 332.322C209.34 333.764 211.446 336.979 215.658 338.199C219.538 329.772 215.658 314.803 216.213 307.706C216.323 306.375 216.878 300.388 219.871 301.386C222.531 302.273 219.76 317.464 219.982 324.117C220.203 330.326 219.206 336.203 221.755 340.084C242.595 337.201 263.768 335.427 286.382 334.762C281.394 332.655 275.519 330.659 269.089 327C265.542 325.004 254.568 320.901 253.57 317.575C251.907 312.252 257.782 309.48 258.78 304.934C248.249 310.7 246.254 299.39 243.704 291.517C241.487 284.309 240.157 278.876 239.602 274.773C230.402 270.116 220.647 265.792 212.887 260.248ZM318.419 248.716C332.94 241.73 335.601 274.995 329.837 285.751C330.723 288.967 333.716 290.186 334.936 293.069C326.844 307.595 317.864 321.123 309.551 335.427C315.647 331.546 324.516 334.762 331.721 331.879C334.382 330.881 336.266 324.782 338.261 319.903C343.804 306.597 349.568 289.743 352.118 277.102C352.672 274.219 354.335 267.899 353.892 265.348C353.226 260.691 347.019 257.254 343.804 254.482C337.929 249.159 334.271 244.613 328.063 239.623C325.735 243.282 320.414 245.722 318.419 248.716ZM179.742 119.979C172.869 127.63 174.31 141.823 175.086 152.024C187.613 144.152 204.13 152.69 204.019 165.996C210.005 165.885 206.236 158.567 205.127 153.799C201.58 138.386 211.113 121.753 205.571 107.671C194.818 108.558 186.061 112.882 179.742 119.979ZM229.182 75.736C213.552 80.1714 193.488 91.5925 187.058 105.675C192.047 104.899 195.483 102.459 200.361 102.126C202.245 102.016 204.684 102.903 206.79 102.348C211.002 101.239 214.661 91.7034 217.875 88.1551C220.979 84.7177 224.748 83.1653 227.298 80.0605C228.961 79.2843 231.399 79.2843 231.51 76.8449C230.845 76.0687 230.069 75.5143 229.182 75.736ZM310.659 79.9496C294.364 70.7462 266.872 63.8714 249.579 72.5204C235.612 79.5061 216.767 91.0381 210.337 105.564C216.323 119.646 208.564 132.509 208.009 146.813C207.788 154.464 211.557 161.006 211.889 169.322C209.783 172.76 203.575 173.092 199.252 172.871C197.811 165.552 195.261 157.347 187.723 156.46C177.082 155.24 169.211 164.111 168.768 173.314C168.213 184.181 177.082 202.144 189.719 200.924C194.596 200.481 195.816 195.602 201.137 195.602C204.019 201.368 196.702 203.142 195.926 207.245C195.705 208.354 196.481 212.456 197.035 214.452C199.363 223.877 204.462 236.186 209.451 243.393C215.88 252.597 228.406 253.927 241.93 254.814C244.369 249.603 253.237 250.046 259.002 251.377C252.018 248.605 245.589 241.952 240.268 236.075C234.171 229.311 227.963 222.103 227.63 213.233C239.27 229.311 248.803 243.393 269.865 250.49C285.828 255.812 304.451 248.05 316.756 239.401C321.855 235.853 324.848 230.087 328.506 224.986C342.03 205.471 348.349 177.75 347.019 150.805C346.464 139.716 346.464 128.628 342.695 121.199C338.816 113.437 325.624 106.34 317.864 113.437C316.423 105.786 324.294 101.129 333.495 103.901C326.954 95.3625 320.082 85.2721 310.659 79.9496ZM341.033 330.659C353.781 324.339 377.503 313.694 385.374 330.659C388.367 336.979 391.803 347.513 393.244 354.056C395.351 363.148 390.916 382.442 381.494 385.436C373.18 388.097 363.536 387.986 353.559 385.99C352.34 384.992 351.12 383.329 350.123 381.555C343.028 381.333 336.266 381.888 330.723 384.882C331.278 390.204 327.73 390.98 324.294 392.089C321.855 401.958 329.282 414.82 327.509 423.691C326.289 430.122 318.419 431.12 312.654 432.229C312.433 435.777 312.876 438.771 313.32 441.765C311.989 446.644 306.114 449.416 300.461 450.081C281.948 452.299 253.902 453.297 236.166 446.866C231.178 434.669 227.298 419.921 223.196 406.06C205.903 407.945 191.825 398.631 178.633 392.422C174.089 390.315 167.77 389.095 165.996 385.436C164.333 381.888 164.999 375.124 164.555 368.803C163.557 352.503 162.56 336.758 158.347 320.125C156.463 312.585 153.026 306.043 150.699 298.835C148.482 292.182 144.713 283.866 143.715 277.213C142.274 267.344 151.585 266.79 157.461 262.465C166.661 255.812 173.867 252.153 183.844 246.165C186.837 244.391 195.705 239.956 196.702 237.849C198.698 233.746 193.266 227.98 191.825 224.765C189.497 219.664 188.278 215.339 187.945 210.35C179.631 209.019 173.202 204.029 169.433 198.485C163.114 189.171 158.68 171.984 164.223 159.01C164.666 158.012 166.772 155.905 167.105 154.353C167.77 151.248 165.885 147.146 165.775 143.819C165.22 126.854 168.657 112.217 180.075 107.116C184.73 88.5986 201.358 82.5 216.989 73.2966C222.864 69.8592 229.293 67.6415 235.944 65.202C259.778 56.4421 296.47 58.1054 316.313 73.0748C324.737 79.3952 338.151 92.8122 342.917 102.57C355.665 128.184 354.668 171.097 345.799 202.366C344.58 206.58 342.917 212.678 340.478 217.779C338.816 221.327 333.606 228.313 334.16 231.418C334.825 234.633 346.132 243.171 348.571 245.5C352.894 249.714 361.208 255.258 361.873 260.58C362.649 266.235 359.434 273.997 357.771 279.431C352.451 297.616 347.13 314.359 341.033 330.659Z" fill="#231F20"/>
<path d="M256.23 204.694C256.895 203.807 260.664 202.366 265.985 204.916C265.985 204.916 259.667 205.914 260.221 216.448L257.561 215.894C257.671 216.005 254.9 206.469 256.23 204.694Z" fill="#F7E4CD"/>
<path d="M302.123 294.733C302.123 296.285 300.793 297.616 299.241 297.616C297.689 297.616 296.359 296.285 296.359 294.733C296.359 293.18 297.689 291.85 299.241 291.85C300.904 291.85 302.123 293.18 302.123 294.733Z" fill="#1D1919"/>
<path d="M305.006 308.15C305.006 309.702 303.675 311.033 302.123 311.033C300.571 311.033 299.241 309.702 299.241 308.15C299.241 306.597 300.571 305.267 302.123 305.267C303.786 305.267 305.006 306.486 305.006 308.15Z" fill="#1D1919"/>
</svg>
