<?xml version="1.0" encoding="UTF-8"?>
<!DOCTYPE svg PUBLIC "-//W3C//DTD SVG 1.1//EN" "http://www.w3.org/Graphics/SVG/1.1/DTD/svg11.dtd">
<svg xmlns="http://www.w3.org/2000/svg" version="1.1" width="256px" height="256px" style="shape-rendering:geometricPrecision; text-rendering:geometricPrecision; image-rendering:optimizeQuality; fill-rule:evenodd; clip-rule:evenodd" xmlns:xlink="http://www.w3.org/1999/xlink">
<g><path style="opacity:1" fill="#8d2851" d="M 248.5,-0.5 C 248.833,-0.5 249.167,-0.5 249.5,-0.5C 249.5,84.8333 249.5,170.167 249.5,255.5C 249.167,255.5 248.833,255.5 248.5,255.5C 248.667,233.164 248.5,210.831 248,188.5C 243.332,208.505 238.665,228.505 234,248.5C 233.293,250.081 232.46,251.581 231.5,253C 212.257,254.641 192.923,254.975 173.5,254C 171.714,253.215 170.214,252.049 169,250.5C 158.105,221.713 146.939,193.047 135.5,164.5C 130.379,166.228 125.379,168.228 120.5,170.5C 108,197.5 95.5,224.5 83,251.5C 81.5002,253.469 79.6669,254.802 77.5,255.5C 60.5,255.5 43.5,255.5 26.5,255.5C 22.0115,253.823 19.5115,250.49 19,245.5C 14.9326,231.132 10.7659,216.798 6.5,202.5C 7.09826,201.205 7.59826,199.872 8,198.5C 38.8545,165.265 69.3545,131.765 99.5,98C 96.7604,92.5208 93.7604,87.1874 90.5,82C 80.5,80 70.5,78 60.5,76C 58.9984,75.4169 57.6651,74.5836 56.5,73.5C 48.7052,53.6163 41.2052,33.6163 34,13.5C 31.875,5.72272 34.7084,1.38939 42.5,0.5C 66.8268,4.04669 91.1602,7.54669 115.5,11C 117.78,11.2326 119.78,12.066 121.5,13.5C 153.167,62.8298 184.334,112.497 215,162.5C 223.76,166.462 232.593,170.296 241.5,174C 244.102,174.883 246.269,176.383 248,178.5C 248.5,118.834 248.667,59.1676 248.5,-0.5 Z"/></g>
<g><path style="opacity:1" fill="#fefdfe" d="M 55.5,20.5 C 74.1111,22.6587 92.6111,25.3253 111,28.5C 141.333,77.1667 171.667,125.833 202,174.5C 203.167,175.667 204.333,176.833 205.5,178C 213.167,181.167 220.833,184.333 228.5,187.5C 229.238,191.129 229.071,194.796 228,198.5C 224.372,211.345 221.538,224.345 219.5,237.5C 207.149,237.832 194.815,237.499 182.5,236.5C 171.389,208.611 160.556,180.611 150,152.5C 148.543,148.04 145.543,145.374 141,144.5C 130.772,147.798 120.605,151.298 110.5,155C 109.333,156.167 108.167,157.333 107,158.5C 94.9618,184.742 82.7952,210.909 70.5,237C 58.5046,237.5 46.5046,237.667 34.5,237.5C 31.8928,226.907 28.8928,216.407 25.5,206C 52.9161,174.579 81.0828,143.746 110,113.5C 112.295,110.203 114.962,107.203 118,104.5C 119.422,101.97 119.755,99.3033 119,96.5C 113.544,86.4191 107.711,76.5858 101.5,67C 90.8093,64.4936 80.1426,61.9936 69.5,59.5C 64.4321,46.6287 59.7655,33.6287 55.5,20.5 Z"/></g>
</svg>
