<svg width="512" height="512" viewBox="0 0 512 512" fill="none" xmlns="http://www.w3.org/2000/svg">
<path d="M75.8989 58.5697L314.082 40.9786C343.339 38.4676 350.857 40.1607 369.252 53.5334L445.284 107.096C457.825 116.308 462 118.819 462 128.848V422.603C462 441.012 455.314 451.902 431.911 453.567L155.317 470.311C137.755 471.144 129.39 468.633 120.192 456.91L64.2049 384.106C54.161 370.705 50 360.675 50 348.953V87.8405C50 72.789 56.6864 60.2341 75.8989 58.5697Z" fill="white"/>
<path d="M314.082 40.9786L75.8989 58.5697C56.6864 60.2341 50 72.789 50 87.8405V348.953C50 360.675 54.161 370.705 64.2049 384.106L120.192 456.91C129.39 468.633 137.755 471.144 155.317 470.311L431.911 453.567C455.299 451.902 462 441.012 462 422.603V128.848C462 119.335 458.241 116.595 447.178 108.473C446.542 108.015 445.905 107.556 445.27 107.096L369.252 53.5334C350.857 40.1607 343.339 38.4676 314.082 40.9786ZM161.573 124.041C138.989 125.562 133.866 125.907 121.039 115.475L88.425 89.5336C85.1105 86.176 86.775 81.9863 95.1257 81.1541L324.098 64.4239C343.324 62.7451 353.34 69.4458 360.858 75.3L400.13 103.753C401.808 104.599 405.984 109.607 400.962 109.607L164.5 123.841L161.573 124.041ZM135.244 420.092V170.717C135.244 159.826 138.587 154.804 148.602 153.958L420.189 138.06C429.4 137.228 433.561 143.082 433.561 153.958V401.669C433.561 412.559 431.883 421.771 416.846 422.603L156.953 437.669C141.916 438.501 135.244 433.493 135.244 420.092ZM391.793 184.09C393.458 191.622 391.793 199.155 384.26 200.016L371.734 202.499V386.617C360.858 392.471 350.843 395.815 342.478 395.815C329.105 395.815 325.762 391.625 315.747 379.084L233.832 250.207V374.895L259.745 380.763C259.745 380.763 259.745 395.829 238.839 395.829L181.202 399.172C179.523 395.815 181.202 387.449 187.042 385.785L202.093 381.61V216.746L181.202 215.053C179.523 207.52 183.698 196.644 195.407 195.798L257.248 191.637L342.478 322.179V206.688L320.754 204.192C319.076 194.966 325.762 188.265 334.113 187.447L391.793 184.09Z" fill="black"/>
</svg>
