<svg width="512" height="512" viewBox="0 0 512 512" fill="none" xmlns="http://www.w3.org/2000/svg">
<path d="M170.444 237.031L104.673 260.963C105.517 271.508 107.331 281.924 109.888 292.129L172.359 269.378C170.357 258.833 169.641 247.941 170.459 237.029" fill="#DA2430"/>
<path d="M461.105 164.302C456.518 154.841 451.212 145.696 445.065 137.078L379.312 161.01C386.965 168.837 393.382 177.634 398.636 187.043L461.107 164.298L461.105 164.302Z" fill="#DA2430"/>
<path d="M344.436 163.914C336.162 156.735 326.819 150.54 316.419 145.689H316.414C255.353 117.222 182.501 143.706 154.034 204.788C152.429 208.235 151.008 211.718 149.763 215.229C146.21 225.566 144.134 236.135 143.34 246.686L143.109 246.772C143.103 246.849 143.097 246.926 143.091 247.004L103.507 261.407L78.0365 270.821C78.0328 270.774 78.0292 270.727 78.0256 270.68L77.3272 270.934C74.8545 239.655 80.1268 207.345 94.3111 176.928C96.1682 172.945 98.148 169.057 100.244 165.267C147.003 78.1738 253.399 41.77 343.129 84.2683C361.701 93.0683 378.169 104.606 392.305 118.183C401.816 126.98 410.304 136.671 417.703 147.056L351.946 170.992C351.607 170.646 351.267 170.302 350.924 169.959L350.742 170.027C348.717 167.923 346.614 165.884 344.436 163.914Z" fill="#DA2430"/>
<path d="M80.9987 377.052L80.895 377.09C67.2134 357.825 57.2552 336.182 51.5108 313.403L113.994 290.646L113.998 290.65C114.011 290.717 114.024 290.784 114.037 290.851L114.443 290.701L114.452 290.726C117.662 307.722 124.342 323.936 134.083 338.193C137.797 343.493 141.947 348.517 146.511 353.203L146.263 353.293C146.42 353.459 146.578 353.624 146.736 353.789L81.5764 377.883C81.3831 377.606 81.1905 377.33 80.9987 377.052Z" fill="#E82429"/>
<path d="M329.171 360.235C295.291 381.185 251.836 385.232 213.113 367.175C199.415 360.786 187.481 352.146 177.517 341.916L111.9 365.805C112.067 366.04 112.235 366.275 112.403 366.509L112.37 366.521C130.411 392.298 155.022 413.843 185.222 428.157C250.352 458.998 324.25 448.276 377.758 406.778C401.718 388.831 421.721 364.909 435.233 335.935C449.425 305.525 454.667 273.226 452.156 241.972L450.328 242.637C450.303 242.303 450.278 241.968 450.251 241.633L385.088 265.705L385.092 265.711C384.054 280.073 380.484 294.481 374.137 308.294C363.975 330.429 348.124 348.06 329.171 360.235Z" fill="#DA2430"/>
<path d="M401.733 185.911L402.71 185.555V185.553C412.989 206.704 419.263 229.694 421.143 253.236L355.524 277.109C355.536 276.946 355.548 276.783 355.56 276.62L354.319 277.079C356.105 252.797 350.658 228.647 339.136 207.678L401.174 184.744L401.177 184.738C401.364 185.128 401.549 185.519 401.733 185.911Z" fill="#E82429"/>
<path d="M170.527 236.646L105.217 260.781C106.054 271.419 107.856 281.922 110.398 292.215L172.433 269.268C170.427 258.612 169.706 247.642 170.552 236.64" fill="#C22035"/>
<path d="M459.146 163.305C454.592 153.764 449.32 144.543 443.218 135.852L377.923 159.986C385.521 167.881 391.893 176.751 397.109 186.242L459.137 163.299L459.146 163.305Z" fill="#C22035"/>
<path d="M105.215 260.785L170.365 236.92L170.099 250.009L107.243 273.745L105.206 260.769L105.215 260.785Z" fill="#AC223B"/>
<path d="M377.936 159.788L444.102 137.083L450.978 147.461L386.69 170.188L377.945 159.782L377.936 159.788Z" fill="#AC223B"/>
<path d="M112.386 366.277L177.614 342.54L197.342 361.152L128.938 386.832L112.389 366.27L112.386 366.277Z" fill="#B92135"/>
<path d="M451.347 241.809L385.097 265.698L380.216 292.218L450.855 267.043L451.356 241.812L451.347 241.809Z" fill="#B92135"/>
</svg>
