<svg width="512" height="512" viewBox="0 0 512 512" fill="none" xmlns="http://www.w3.org/2000/svg">
<path d="M384.046 157.73C364.541 132.472 337.983 113.565 307.731 103.401C277.48 93.2376 244.894 92.2734 214.094 100.63C183.295 108.988 155.665 126.291 134.7 150.351C113.735 174.412 100.376 204.15 96.3132 235.803C92.25 267.457 97.665 299.604 111.873 328.18C126.082 356.756 148.445 380.476 176.135 396.341C203.826 412.206 235.599 419.503 267.436 417.31C299.274 415.116 329.746 403.53 354.999 384.017C425.487 329.543 438.5 228.243 384.046 157.73Z" fill="#FF6C37"/>
<path d="M310.765 197.804L242.732 266.376L223.507 246.611C290.466 179.653 297.182 185.703 310.765 197.804Z" fill="white"/>
<path d="M242.732 268.252C242.13 268.237 241.555 267.998 241.119 267.581L221.758 248.22C221.322 247.768 221.078 247.166 221.078 246.538C221.078 245.911 221.322 245.308 221.758 244.857C287.773 178.841 296.783 181.932 312.378 196.05C312.639 196.258 312.848 196.525 312.988 196.829C313.128 197.133 313.196 197.465 313.185 197.799C313.286 198.455 313.034 199.125 312.514 199.549L244.482 267.586C244.005 268.024 243.38 268.258 242.732 268.252ZM226.865 246.606L242.732 262.474L307.271 197.935C305.042 195.143 301.863 193.27 298.34 192.674C294.817 192.079 291.199 192.803 288.176 194.708C276.479 199.952 257.657 215.95 226.865 246.606Z" fill="#FF6C37"/>
<path d="M262.23 285.334L243.675 266.376L311.708 199.145C329.995 217.029 302.834 246.883 262.23 285.334Z" fill="white"/>
<path d="M262.23 287.754C261.635 287.707 261.07 287.472 260.617 287.084L241.659 268.529C241.374 267.84 241.374 267.066 241.659 266.376C241.457 265.81 241.457 265.192 241.659 264.626L309.691 196.594C310.164 196.149 310.789 195.902 311.438 195.902C312.087 195.902 312.712 196.149 313.185 196.594C315.388 198.622 317.129 201.1 318.289 203.861C319.448 206.622 320 209.6 319.906 212.592C319.906 230.744 299.198 253.6 263.975 286.948C263.504 287.413 262.89 287.699 262.23 287.754ZM247.169 266.376L262.361 281.563C289.25 256.151 314.935 229.932 315.066 212.184C315.212 208.422 313.968 204.737 311.572 201.833L247.169 266.376Z" fill="#FF6C37"/>
<path d="M224.042 247.015L237.489 260.462C237.575 260.537 237.643 260.631 237.69 260.735C237.738 260.839 237.762 260.952 237.762 261.067C237.762 261.181 237.738 261.294 237.69 261.399C237.643 261.503 237.575 261.596 237.489 261.672L209.117 267.722C208.544 267.846 207.947 267.779 207.416 267.532C206.885 267.284 206.449 266.87 206.175 266.352C205.901 265.835 205.803 265.241 205.898 264.663C205.992 264.085 206.273 263.553 206.697 263.149L223.235 246.747C223.235 246.747 223.774 246.747 224.042 247.015Z" fill="white"/>
<path d="M208.447 270.41C207.55 270.398 206.672 270.158 205.895 269.71C205.118 269.262 204.469 268.623 204.01 267.853C203.493 266.878 203.305 265.762 203.475 264.671C203.645 263.581 204.163 262.575 204.952 261.803L221.354 245.265C221.946 244.736 222.711 244.444 223.505 244.444C224.298 244.444 225.064 244.736 225.655 245.265L239.102 258.712C239.899 259.468 240.211 260.613 239.909 261.672C239.606 262.731 238.719 263.573 237.625 263.825L209.253 269.875L208.447 270.41ZM223.507 249.974L208.315 265.166L233.46 259.786L223.507 249.974Z" fill="#FF6C37"/>
<path d="M346.937 160.019C337.205 150.631 321.918 150.237 311.713 159.096C301.508 167.955 299.763 183.162 307.709 194.103C315.656 205.045 330.636 208.11 342.232 201.162L323.945 182.875L346.937 160.019Z" fill="white"/>
<path d="M328.785 207.344C323.194 207.272 317.748 205.557 313.125 202.412C308.503 199.266 304.908 194.83 302.788 189.656C300.671 184.486 300.115 178.808 301.19 173.326C302.266 167.843 304.925 162.796 308.839 158.809C314.222 153.525 321.464 150.564 329.007 150.564C336.55 150.564 343.792 153.525 349.175 158.809C349.69 159.243 349.982 159.883 349.982 160.559C349.981 160.891 349.908 161.219 349.769 161.521C349.63 161.823 349.427 162.091 349.175 162.308L327.394 182.88L343.932 199.15C344.199 199.406 344.401 199.724 344.518 200.075C344.634 200.427 344.663 200.802 344.602 201.167C344.562 201.52 344.445 201.859 344.26 202.161C344.074 202.464 343.824 202.722 343.528 202.917C339.085 205.694 333.978 207.226 328.74 207.354L328.785 207.344ZM328.785 155.174C319.205 155.224 310.634 160.987 307.039 169.796C303.444 178.604 305.4 188.744 312.116 195.51C315.457 198.87 319.734 201.143 324.388 202.031C329.042 202.919 333.856 202.38 338.199 200.487L322.331 184.619C322.079 184.417 321.875 184.162 321.736 183.871C321.596 183.579 321.523 183.261 321.523 182.938C321.523 182.615 321.596 182.296 321.736 182.005C321.875 181.714 322.079 181.458 322.331 181.256L343.306 160.145C339.137 156.95 334.038 155.207 328.785 155.174Z" fill="#FF6C37"/>
<path d="M347.34 160.422L324.348 183.278L342.636 201.566C344.476 200.509 346.19 199.245 347.743 197.799C352.536 192.733 355.173 186.003 355.098 179.029C355.023 172.055 352.241 165.384 347.34 160.422Z" fill="white"/>
<path d="M342.227 203.582C341.925 203.599 341.623 203.547 341.344 203.431C341.065 203.315 340.815 203.137 340.614 202.912L322.326 184.624C322.074 184.423 321.87 184.167 321.73 183.876C321.591 183.584 321.518 183.266 321.518 182.943C321.518 182.62 321.591 182.301 321.73 182.01C321.87 181.719 322.074 181.463 322.326 181.261L345.182 158.809C345.403 158.476 345.702 158.203 346.054 158.014C346.406 157.825 346.799 157.727 347.199 157.727C347.598 157.727 347.991 157.825 348.343 158.014C348.695 158.203 348.995 158.476 349.216 158.809C351.899 161.438 354.03 164.576 355.486 168.039C356.941 171.502 357.69 175.221 357.69 178.977C357.69 182.734 356.941 186.452 355.486 189.915C354.03 193.378 351.899 196.516 349.216 199.145C347.633 200.824 345.822 202.272 343.836 203.446C343.336 203.698 342.763 203.747 342.227 203.582ZM327.439 182.88L342.631 198.071C343.676 197.339 344.665 196.53 345.59 195.651C350.056 191.197 352.572 185.153 352.584 178.846C352.594 173.202 350.537 167.749 346.8 163.518L327.439 182.88Z" fill="#FF6C37"/>
<path d="M313.588 200.628C311.767 198.918 309.363 197.966 306.865 197.966C304.367 197.966 301.962 198.918 300.141 200.628L239.238 261.395L249.322 271.615L313.725 215.144C314.707 214.202 315.486 213.07 316.014 211.816C316.542 210.563 316.808 209.214 316.795 207.854C316.782 206.493 316.491 205.15 315.94 203.907C315.388 202.663 314.588 201.55 313.588 200.628Z" fill="white"/>
<path d="M248.783 274.04C248.18 274.025 247.605 273.786 247.169 273.369L236.949 263.149C236.513 262.698 236.27 262.095 236.27 261.468C236.27 260.84 236.513 260.237 236.949 259.786L297.857 199.145C299.612 197.393 301.852 196.208 304.288 195.745C306.723 195.281 309.242 195.56 311.518 196.545C313.793 197.531 315.72 199.177 317.048 201.27C318.377 203.364 319.046 205.808 318.968 208.287C318.898 209.969 318.494 211.62 317.778 213.144C317.062 214.668 316.049 216.033 314.799 217.161L250.396 273.632C249.928 273.963 249.352 274.112 248.783 274.04ZM241.658 261.395L248.38 268.252L311.572 213.258C313.135 211.897 314.067 209.95 314.128 207.878C314.188 205.806 313.372 203.779 311.844 202.367C310.433 200.962 308.523 200.173 306.532 200.173C304.541 200.173 302.631 200.962 301.22 202.367L241.658 261.395Z" fill="#FF6C37"/>
<path d="M192.045 330.642C191.873 330.876 191.78 331.159 191.78 331.449C191.78 331.739 191.873 332.022 192.045 332.256L194.732 343.953C194.84 344.641 194.738 345.346 194.439 345.976C194.141 346.605 193.659 347.13 193.058 347.483C192.459 347.833 191.764 347.984 191.074 347.914C190.383 347.845 189.733 347.557 189.216 347.094L170.798 329.346L228.211 271.479H248.112L261.559 284.926C240.583 303.266 217.194 318.647 192.045 330.642Z" fill="white"/>
<path d="M190.835 350.407C189.312 350.377 187.809 349.751 186.801 348.657L169.189 331.045C168.937 330.844 168.733 330.588 168.593 330.297C168.453 330.006 168.381 329.687 168.381 329.364C168.381 329.041 168.453 328.722 168.593 328.431C168.733 328.14 168.937 327.884 169.189 327.682L227.001 269.734C227.325 269.39 227.748 269.156 228.211 269.063H248.243C248.765 268.879 249.335 268.879 249.857 269.063L263.304 282.511C263.56 282.746 263.754 283.041 263.871 283.368C263.988 283.696 264.023 284.047 263.975 284.391C263.984 284.725 263.916 285.057 263.776 285.361C263.636 285.664 263.428 285.931 263.168 286.141L262.094 287.084C241.033 304.642 217.862 319.501 193.119 331.318L195.675 342.209C195.873 343.049 195.88 343.922 195.697 344.766C195.514 345.609 195.145 346.401 194.617 347.084C194.089 347.766 193.415 348.323 192.645 348.712C191.874 349.101 191.027 349.313 190.164 349.333L190.835 350.407ZM174.433 329.296L190.295 345.294C190.443 345.426 190.634 345.499 190.832 345.499C191.03 345.499 191.221 345.426 191.369 345.294C191.468 345.157 191.521 344.992 191.521 344.823C191.521 344.654 191.468 344.489 191.369 344.351L188.682 332.654C188.47 331.814 188.555 330.927 188.923 330.143C189.29 329.36 189.918 328.727 190.698 328.353C214.776 316.694 237.35 302.156 257.924 285.057L246.897 274.03H228.882L174.433 329.296Z" fill="#FF6C37"/>
<path d="M156.952 343.146L170.399 329.699L191.107 350.407L158.167 348.123C157.602 348.079 157.064 347.857 156.632 347.489C156.2 347.121 155.896 346.627 155.761 346.075C155.627 345.524 155.671 344.945 155.885 344.42C156.1 343.895 156.475 343.451 156.957 343.151L156.952 343.146Z" fill="white"/>
<path d="M191.505 352.424L158.697 350.14C156.75 349.958 155.076 348.627 154.391 346.847C153.705 345.067 154.123 342.955 155.47 341.533L168.917 328.086C169.368 327.65 169.971 327.406 170.598 327.406C171.226 327.406 171.829 327.65 172.28 328.086L192.851 348.657C193.136 349.047 193.29 349.518 193.29 350.001C193.29 350.484 193.136 350.955 192.851 351.345C192.54 351.848 192.065 352.232 191.505 352.424ZM158.697 344.896L185.586 346.646L170.798 332.795L158.697 344.896Z" fill="#FF6C37"/>
<path d="M249.993 273.102L222.831 277.272L238.563 261.677L249.993 273.102Z" fill="white"/>
<path d="M222.831 279.818C222.38 279.83 221.935 279.709 221.552 279.469C221.169 279.23 220.866 278.883 220.679 278.472C220.392 278.082 220.238 277.612 220.238 277.128C220.238 276.645 220.392 276.174 220.679 275.785L236.274 260.053C236.747 259.609 237.371 259.361 238.021 259.361C238.67 259.361 239.295 259.609 239.768 260.053L251.203 271.479C251.432 271.841 251.553 272.26 251.553 272.689C251.553 273.117 251.432 273.537 251.203 273.899C251.091 274.34 250.854 274.74 250.52 275.05C250.187 275.361 249.771 275.568 249.322 275.648L222.433 279.818H222.831ZM238.563 265.161L229.825 273.899L244.885 271.615L238.563 265.161Z" fill="#FF6C37"/>
<path d="M249.993 273.092L231.035 275.512C230.528 275.627 229.997 275.576 229.521 275.366C229.045 275.155 228.65 274.797 228.393 274.345C228.137 273.892 228.033 273.369 228.098 272.852C228.162 272.336 228.391 271.854 228.751 271.479L238.568 261.662L249.993 273.092Z" fill="white"/>
<path d="M230.495 278.074C229.617 278.065 228.756 277.824 228 277.375C227.245 276.926 226.622 276.285 226.195 275.517C225.681 274.597 225.482 273.534 225.628 272.49C225.773 271.447 226.256 270.479 227.001 269.734L236.818 259.917C237.291 259.473 237.916 259.225 238.565 259.225C239.214 259.225 239.839 259.473 240.312 259.917L251.743 271.348C252.083 271.67 252.322 272.083 252.431 272.539C252.541 272.994 252.516 273.471 252.359 273.913C252.203 274.354 251.922 274.741 251.55 275.025C251.178 275.31 250.732 275.481 250.265 275.517L231.443 277.937L230.495 278.074ZM230.495 273.097L244.749 271.348L238.432 265.03L230.364 273.097H230.495ZM347.471 175.886C347.218 175.462 346.818 175.146 346.346 174.997C345.875 174.848 345.366 174.878 344.915 175.08C344.692 175.192 344.494 175.349 344.333 175.539C344.172 175.73 344.051 175.951 343.977 176.189C343.827 176.67 343.874 177.19 344.108 177.636C345.051 179.617 344.789 181.962 343.437 183.686C343.27 183.852 343.138 184.052 343.051 184.271C342.964 184.491 342.924 184.726 342.933 184.962C342.938 185.435 343.118 185.889 343.437 186.238C343.782 186.374 344.166 186.374 344.511 186.238C344.824 186.316 345.153 186.308 345.462 186.213C345.77 186.117 346.047 185.94 346.261 185.698C347.368 184.343 348.069 182.702 348.283 180.964C348.497 179.227 348.216 177.47 347.471 175.886Z" fill="#FF6C37"/>
</svg>
