<svg width="512" height="512" viewBox="0 0 512 512" fill="none" xmlns="http://www.w3.org/2000/svg">
<g clip-path="url(#clip0_1_2)">
<path d="M362.577 172.69L256.273 111.349L150 172.69V111.349L256.288 50.0082L362.592 111.349V172.69H362.577Z" fill="#A435F0"/>
<path d="M150 224.204H205.681V359.422C205.681 394.357 231.778 411.389 256.288 411.389C281.01 411.389 306.916 393.904 306.916 358.953V224.204H362.592V362.646C362.592 394.826 352.472 419.661 332.225 436.688C311.969 453.705 286.67 461.992 255.82 461.992C225 461.992 199.686 453.72 179.913 436.688C160.12 419.676 150 395.763 150 364.021V224.204Z" fill="black"/>
</g>
<defs>
<clipPath id="clip0_1_2">
<rect width="212.592" height="412" fill="white" transform="translate(150 50)"/>
</clipPath>
</defs>
</svg>
