<svg width="512" height="512" xmlns="http://www.w3.org/2000/svg">

 <g>
  <title>Layer 1</title>
  <g fill="white" fill-opacity="0" stroke-width="0">
   <rect id="svg_1" height="106" width="96" y="0" x="-3" stroke="#000"/>
  </g>
  <rect rx="75" stroke="#000" id="svg_2" height="512" width="512" y="0" x="0" fill="#000000"/>
  <g stroke="null">
   <g stroke="null" fill="#FFFFFF" transform="translate(0 512) scale(0.1 -0.1)">
    <path stroke="null" d="m1735.88356,3683.71368c-216.14244,-38.82798 -367.57157,-116.48395 -516.41218,-264.03029c-225.2023,-226.49657 -324.86079,-529.35484 -306.74107,-938.34293c29.76812,-641.95599 392.16263,-1032.82435 987.52504,-1063.88674c126.83808,-6.47133 318.38946,9.05986 375.33717,31.06239c14.23693,5.17706 18.11973,54.35918 18.11973,257.55895l0,251.08762l-64.71331,-44.00505c-90.59863,-62.12477 -146.25207,-78.95023 -265.32455,-77.65597c-85.42156,0 -116.48395,6.47133 -176.02019,34.94518c-128.13234,62.12477 -227.79083,199.31698 -278.26721,385.6913c-33.65092,119.07248 -33.65092,474.99566 -1.29427,594.06814c54.35918,200.61125 157.90046,345.56905 284.73854,402.51676c53.06491,23.29679 91.89289,29.76812 177.31446,31.06239c99.65849,0 119.07248,-3.8828 196.72845,-42.71078c102.24702,-49.18211 160.489,-115.18968 216.14244,-236.8507c73.77317,-163.07753 78.95023,-220.02524 78.95023,-909.86907c0,-526.7663 2.58853,-627.71906 18.11973,-632.89613c10.35413,-3.8828 163.07753,-7.7656 340.39199,-9.05986c355.92318,-1.29427 535.82617,20.70826 718.31769,85.42156c332.62639,119.07248 586.30255,430.99061 651.01585,802.44498c77.65597,446.52181 -80.2445,883.98375 -399.92823,1110.48032c-216.14244,154.01767 -394.75116,199.31698 -807.62205,204.49404c-135.89794,2.58853 -248.49909,3.8828 -248.49909,3.8828c0,0 54.35918,-55.65344 120.36675,-122.95528c64.71331,-68.5961 139.78074,-159.19473 164.3718,-203.19978l45.29931,-78.95023l84.1273,-12.94266c111.30689,-19.41399 227.79083,-78.95023 309.3296,-159.19473c119.07248,-117.77822 169.54886,-248.49909 178.60872,-472.40713c11.64839,-258.85322 -47.88785,-449.11034 -182.49152,-579.83121c-98.36422,-95.77569 -265.32455,-163.07753 -405.10529,-163.07753l-29.76812,0l0,482.76126c0,383.10277 -3.8828,498.29245 -19.41399,565.59429c-72.4789,309.3296 -257.55895,553.94589 -513.82364,678.19544c-212.25964,102.24702 -496.99818,137.19221 -749.38007,90.59863z"/>
   </g>
  </g>
 </g>
</svg>