<svg id="svg" version="1.1" xmlns="http://www.w3.org/2000/svg" xmlns:xlink="http://www.w3.org/1999/xlink" width="400" height="351.99999999999994" viewBox="0, 0, 400,351.99999999999994"><g id="svgg"><path id="path0" d="M198.609 84.693 C 196.849 85.104,121.742 128.476,120.441 129.833 C 118.618 131.733,118.670 130.335,118.670 177.333 C 118.670 224.330,118.618 222.926,120.441 224.843 C 121.827 226.301,196.986 269.672,198.887 270.112 C 199.927 270.352,200.636 270.309,201.720 269.941 C 204.079 269.142,278.365 226.104,279.559 224.846 C 281.382 222.924,281.330 224.329,281.330 177.333 C 281.330 130.336,281.382 131.735,279.559 129.830 C 278.379 128.597,203.324 85.161,201.775 84.815 C 201.257 84.699,200.608 84.560,200.333 84.506 C 200.058 84.452,199.282 84.536,198.609 84.693 " stroke="none" fill="#8484f4" fill-rule="evenodd"></path><path id="path1" d="M106.062 2.981 C 101.334 4.336,96.689 8.036,94.339 12.319 C 93.782 13.335,92.961 14.767,92.516 15.500 C 92.072 16.233,91.367 17.508,90.952 18.333 C 90.536 19.158,89.797 20.433,89.310 21.167 C 88.822 21.900,87.930 23.400,87.328 24.500 C 86.725 25.600,85.880 27.022,85.449 27.661 C 85.019 28.299,84.667 28.931,84.667 29.064 C 84.667 29.198,83.842 30.682,82.833 32.363 C 81.825 34.044,81.000 35.472,81.000 35.537 C 81.000 35.602,80.435 36.595,79.745 37.744 C 79.055 38.893,78.268 40.283,77.996 40.833 C 77.724 41.383,77.408 41.908,77.295 42.000 C 77.182 42.092,76.770 42.767,76.380 43.500 C 75.990 44.233,75.304 45.433,74.856 46.167 C 74.407 46.900,73.701 48.175,73.285 49.000 C 72.869 49.825,72.130 51.100,71.643 51.833 C 71.156 52.567,70.265 54.067,69.665 55.167 C 69.064 56.267,68.293 57.565,67.953 58.051 C 67.612 58.538,67.333 59.035,67.333 59.157 C 67.333 59.278,66.562 60.680,65.618 62.272 C 64.675 63.864,63.526 65.842,63.065 66.667 C 62.605 67.492,61.910 68.692,61.523 69.333 C 61.135 69.975,60.597 70.950,60.326 71.500 C 60.056 72.050,59.742 72.575,59.629 72.667 C 59.515 72.758,59.104 73.433,58.713 74.167 C 58.323 74.900,57.629 76.100,57.172 76.833 C 56.715 77.567,56.204 78.474,56.038 78.849 C 55.871 79.224,54.894 80.917,53.867 82.610 C 52.840 84.304,52.000 85.767,52.000 85.861 C 52.000 85.955,51.475 86.853,50.833 87.856 C 50.192 88.859,49.667 89.762,49.667 89.862 C 49.667 89.962,48.895 91.346,47.952 92.939 C 47.009 94.531,45.942 96.358,45.581 97.000 C 45.220 97.642,44.529 98.840,44.045 99.663 C 43.562 100.486,42.867 101.712,42.500 102.389 C 41.938 103.425,39.727 107.250,38.678 109.000 C 36.627 112.424,34.333 116.399,34.333 116.532 C 34.333 116.623,33.808 117.519,33.167 118.522 C 32.525 119.526,32.000 120.428,32.000 120.528 C 32.000 120.628,31.228 122.013,30.285 123.605 C 29.342 125.197,28.193 127.175,27.732 128.000 C 27.271 128.825,26.572 130.025,26.178 130.667 C 25.784 131.308,25.200 132.358,24.881 133.000 C 24.562 133.642,23.780 134.992,23.143 136.000 C 22.506 137.008,21.839 138.133,21.660 138.500 C 21.481 138.867,21.189 139.392,21.010 139.667 C 20.291 140.776,16.667 147.072,16.667 147.214 C 16.667 147.297,16.142 148.186,15.500 149.189 C 14.858 150.192,14.333 151.095,14.333 151.195 C 14.333 151.295,13.562 152.680,12.619 154.272 C 11.676 155.864,10.609 157.692,10.247 158.333 C 9.886 158.975,9.195 160.173,8.712 160.996 C 8.229 161.819,7.533 163.046,7.167 163.722 C 6.800 164.398,5.877 166.050,5.116 167.392 C 1.179 174.337,1.406 180.916,5.831 188.167 C 6.391 189.083,7.034 190.208,7.261 190.667 C 7.907 191.974,9.409 194.483,9.656 194.667 C 9.779 194.758,10.216 195.508,10.627 196.333 C 11.039 197.158,11.647 198.283,11.978 198.833 C 12.310 199.383,14.401 202.983,16.626 206.833 C 18.851 210.683,20.821 214.058,21.004 214.333 C 21.188 214.608,21.437 215.058,21.559 215.333 C 21.680 215.608,22.245 216.583,22.814 217.500 C 23.383 218.417,24.034 219.542,24.261 220.000 C 24.907 221.307,26.409 223.816,26.656 224.000 C 26.779 224.092,27.216 224.842,27.627 225.667 C 28.039 226.492,28.647 227.617,28.978 228.167 C 30.377 230.488,37.554 242.875,37.765 243.333 C 37.892 243.608,38.184 244.130,38.415 244.492 C 39.374 246.000,40.876 248.556,41.261 249.333 C 41.907 250.640,43.409 253.149,43.656 253.333 C 43.779 253.425,44.216 254.175,44.627 255.000 C 45.039 255.825,45.645 256.950,45.975 257.500 C 47.461 259.979,54.572 272.218,54.787 272.667 C 54.918 272.942,55.208 273.467,55.430 273.833 C 55.652 274.200,56.358 275.400,57.000 276.500 C 57.642 277.600,58.317 278.754,58.500 279.065 C 58.683 279.375,59.187 280.275,59.620 281.065 C 60.052 281.854,60.513 282.575,60.643 282.667 C 60.773 282.758,61.216 283.508,61.627 284.333 C 62.039 285.158,62.646 286.283,62.977 286.833 C 64.450 289.280,70.851 300.280,71.415 301.333 C 71.759 301.975,72.219 302.800,72.437 303.167 C 72.655 303.533,73.358 304.733,74.000 305.833 C 74.642 306.933,75.348 308.133,75.570 308.500 C 75.792 308.867,76.080 309.392,76.210 309.667 C 76.340 309.942,76.958 310.976,77.583 311.964 C 78.208 312.953,78.859 314.078,79.031 314.464 C 79.202 314.851,79.620 315.617,79.960 316.167 C 80.989 317.829,87.745 329.416,88.415 330.667 C 88.759 331.308,89.219 332.133,89.437 332.500 C 89.655 332.867,90.358 334.067,91.000 335.167 C 91.642 336.267,92.348 337.467,92.570 337.833 C 92.792 338.200,93.083 338.725,93.217 339.000 C 95.402 343.499,99.097 346.883,103.678 348.579 L 106.167 349.500 199.667 349.500 C 301.794 349.500,294.293 349.648,298.666 347.543 C 301.206 346.320,304.558 343.145,305.824 340.763 C 306.291 339.885,306.816 338.942,306.991 338.667 C 307.867 337.291,319.243 317.598,320.034 316.088 C 320.536 315.128,321.222 313.928,321.557 313.420 C 322.568 311.890,322.950 311.249,323.995 309.333 C 324.545 308.325,325.368 306.900,325.824 306.167 C 326.280 305.433,327.105 304.008,327.657 303.000 C 328.209 301.992,329.039 300.567,329.500 299.833 C 329.961 299.100,330.674 297.825,331.086 297.000 C 331.497 296.175,332.146 295.050,332.529 294.500 C 332.912 293.950,333.330 293.275,333.459 293.000 C 333.588 292.725,333.875 292.200,334.098 291.833 C 334.320 291.467,335.144 290.042,335.929 288.667 C 336.713 287.292,337.495 285.942,337.666 285.667 C 338.753 283.915,349.955 264.512,350.700 263.088 C 351.203 262.128,351.889 260.928,352.224 260.420 C 353.234 258.890,353.616 258.249,354.661 256.333 C 355.211 255.325,356.034 253.900,356.490 253.167 C 356.946 252.433,357.771 251.008,358.324 250.000 C 358.876 248.992,359.701 247.567,360.157 246.833 C 360.613 246.100,361.438 244.675,361.990 243.667 C 362.543 242.658,363.370 241.233,363.828 240.500 C 364.287 239.767,364.775 238.939,364.914 238.662 C 365.196 238.098,367.849 233.446,368.332 232.667 C 369.345 231.035,380.587 211.540,381.330 210.126 C 381.824 209.187,382.514 207.986,382.864 207.458 C 383.893 205.904,384.272 205.269,385.328 203.333 C 385.878 202.325,386.701 200.900,387.157 200.167 C 387.613 199.433,388.438 198.008,388.990 197.000 C 389.543 195.992,390.364 194.567,390.815 193.833 C 393.742 189.080,396.961 182.825,397.249 181.333 C 398.424 175.256,396.651 169.740,390.179 159.333 C 389.780 158.692,389.350 157.942,389.224 157.667 C 389.098 157.392,388.659 156.627,388.248 155.967 C 387.836 155.307,386.544 153.057,385.375 150.967 C 384.207 148.877,382.966 146.756,382.619 146.255 C 382.271 145.753,381.838 145.003,381.657 144.588 C 381.475 144.173,380.952 143.233,380.495 142.500 C 380.037 141.767,379.362 140.642,378.995 140.000 C 378.627 139.358,378.184 138.608,378.010 138.333 C 377.618 137.715,375.098 133.225,374.307 131.735 C 373.986 131.131,373.582 130.456,373.409 130.235 C 373.237 130.014,372.638 128.986,372.078 127.950 C 371.518 126.915,370.834 125.715,370.558 125.284 C 370.138 124.628,368.864 122.382,365.099 115.667 C 364.842 115.208,364.302 114.293,363.899 113.633 C 363.496 112.973,362.211 110.723,361.042 108.633 C 359.874 106.543,358.633 104.423,358.286 103.921 C 357.938 103.420,357.505 102.670,357.323 102.255 C 357.142 101.840,356.619 100.900,356.161 100.167 C 355.704 99.433,355.029 98.308,354.661 97.667 C 354.294 97.025,353.851 96.275,353.676 96.000 C 353.284 95.381,350.765 90.892,349.973 89.401 C 349.652 88.797,349.249 88.122,349.076 87.901 C 348.904 87.681,348.304 86.653,347.744 85.617 C 347.184 84.581,346.500 83.381,346.225 82.950 C 345.805 82.294,344.530 80.049,340.766 73.333 C 340.509 72.875,339.969 71.960,339.566 71.300 C 339.163 70.640,337.877 68.390,336.709 66.300 C 335.540 64.210,334.300 62.090,333.952 61.588 C 333.605 61.087,333.172 60.337,332.990 59.921 C 332.808 59.506,332.285 58.567,331.828 57.833 C 331.371 57.100,330.696 55.975,330.328 55.333 C 329.960 54.692,329.517 53.942,329.343 53.667 C 328.951 53.048,326.431 48.558,325.640 47.068 C 325.319 46.464,324.915 45.789,324.743 45.568 C 324.570 45.347,323.971 44.319,323.411 43.284 C 322.851 42.248,322.167 41.048,321.891 40.617 C 321.472 39.961,320.197 37.716,316.433 31.000 C 316.176 30.542,315.636 29.627,315.233 28.967 C 314.830 28.307,313.544 26.057,312.375 23.967 C 311.207 21.877,309.966 19.756,309.619 19.255 C 309.271 18.753,308.834 18.003,308.646 17.588 C 308.458 17.173,308.124 16.533,307.902 16.167 C 307.681 15.800,306.750 14.245,305.833 12.712 C 303.069 8.086,299.697 5.111,295.167 3.300 L 293.167 2.500 200.667 2.439 C 112.302 2.381,108.073 2.405,106.062 2.981 M204.745 41.101 C 206.127 41.962,207.335 42.667,207.431 42.667 C 207.573 42.667,211.271 44.809,214.167 46.569 C 214.533 46.792,215.042 47.079,215.298 47.208 C 215.554 47.336,217.954 48.711,220.631 50.263 C 223.309 51.814,227.225 54.061,229.333 55.254 C 231.442 56.448,233.689 57.779,234.327 58.212 C 234.966 58.645,235.589 59.000,235.713 59.000 C 235.896 59.000,239.283 60.947,242.500 62.902 C 242.867 63.125,243.376 63.412,243.631 63.541 C 243.887 63.670,246.287 65.044,248.965 66.596 C 251.642 68.148,255.558 70.394,257.667 71.588 C 259.775 72.781,262.022 74.112,262.661 74.546 C 263.299 74.979,263.923 75.333,264.046 75.333 C 264.230 75.333,267.616 77.280,270.833 79.235 C 271.200 79.458,271.709 79.746,271.965 79.874 C 272.220 80.003,274.620 81.378,277.298 82.929 C 279.976 84.481,283.892 86.726,286.000 87.917 C 288.108 89.109,290.231 90.365,290.718 90.708 C 291.205 91.052,291.701 91.333,291.820 91.333 C 291.996 91.333,295.908 93.589,299.167 95.569 C 299.533 95.792,300.029 96.074,300.269 96.196 C 300.508 96.319,302.908 97.695,305.602 99.254 C 308.296 100.813,311.700 102.766,313.167 103.593 C 317.679 106.140,318.997 107.083,319.763 108.314 L 320.500 109.500 320.594 176.500 C 320.693 246.801,320.718 245.524,319.177 247.188 C 318.485 247.934,310.948 252.667,310.452 252.667 C 310.362 252.667,308.293 253.867,305.854 255.333 C 303.414 256.800,301.332 258.000,301.228 258.000 C 301.124 258.000,299.693 258.820,298.049 259.821 C 296.405 260.823,294.197 262.109,293.143 262.679 C 292.089 263.250,289.617 264.680,287.650 265.858 C 285.683 267.036,283.991 268.000,283.889 268.000 C 283.788 268.000,282.360 268.820,280.716 269.821 C 279.072 270.823,276.864 272.109,275.810 272.679 C 274.756 273.250,272.284 274.680,270.317 275.858 C 268.350 277.036,266.662 278.000,266.566 278.000 C 266.471 278.000,264.625 279.066,262.465 280.369 C 260.304 281.671,258.304 282.826,258.018 282.934 C 257.733 283.042,256.225 283.902,254.667 284.845 C 253.108 285.787,250.948 287.040,249.867 287.628 C 248.786 288.217,246.836 289.342,245.534 290.127 C 244.232 290.913,242.282 292.038,241.200 292.627 C 240.119 293.217,238.169 294.342,236.867 295.127 C 235.565 295.913,233.615 297.038,232.534 297.627 C 231.452 298.217,229.500 299.346,228.196 300.138 C 226.892 300.930,225.031 302.010,224.062 302.539 C 223.092 303.067,222.044 303.652,221.733 303.837 C 218.970 305.484,216.273 307.051,215.167 307.652 C 214.433 308.050,213.233 308.737,212.500 309.179 C 211.767 309.621,210.042 310.620,208.667 311.399 C 207.292 312.178,205.867 312.998,205.500 313.220 C 200.438 316.287,198.923 316.120,192.147 311.749 C 191.791 311.520,191.200 311.199,190.833 311.036 C 190.467 310.873,188.967 310.026,187.500 309.153 C 186.033 308.280,184.008 307.117,183.000 306.570 C 181.992 306.022,180.930 305.369,180.640 305.120 C 180.351 304.871,180.020 304.667,179.905 304.667 C 179.790 304.667,178.902 304.196,177.931 303.620 C 176.961 303.044,175.642 302.273,175.000 301.906 C 174.358 301.539,173.383 300.969,172.833 300.638 C 172.283 300.308,170.483 299.279,168.833 298.353 C 167.183 297.426,165.233 296.302,164.500 295.855 C 163.767 295.408,162.267 294.561,161.167 293.972 C 160.067 293.383,158.567 292.523,157.833 292.060 C 157.100 291.598,155.675 290.774,154.667 290.230 C 153.658 289.685,152.597 289.036,152.307 288.787 C 152.018 288.537,151.687 288.333,151.572 288.333 C 151.457 288.333,150.569 287.861,149.598 287.284 C 148.627 286.708,147.008 285.787,146.000 285.238 C 144.992 284.689,143.942 284.059,143.667 283.839 C 143.392 283.618,141.892 282.738,140.333 281.883 C 138.775 281.028,136.900 279.964,136.167 279.519 C 135.433 279.074,133.933 278.229,132.833 277.641 C 131.733 277.054,130.043 276.069,129.077 275.453 C 128.111 274.837,127.257 274.333,127.179 274.333 C 127.102 274.333,125.342 273.337,123.269 272.119 C 121.196 270.902,118.675 269.456,117.667 268.906 C 116.658 268.356,115.608 267.726,115.333 267.505 C 115.058 267.285,113.558 266.405,112.000 265.550 C 110.442 264.695,108.567 263.624,107.833 263.171 C 107.100 262.718,105.600 261.874,104.500 261.295 C 102.734 260.366,100.471 259.033,98.481 257.749 C 98.125 257.520,97.533 257.199,97.167 257.036 C 96.800 256.873,95.300 256.026,93.833 255.153 C 92.367 254.280,90.342 253.117,89.333 252.570 C 88.325 252.022,87.263 251.369,86.974 251.120 C 86.684 250.871,86.355 250.667,86.242 250.667 C 84.977 250.667,80.903 247.473,80.029 245.797 L 79.327 244.450 79.413 176.975 C 79.499 110.187,79.507 109.490,80.165 108.500 C 80.898 107.397,81.960 106.434,83.294 105.661 C 83.774 105.383,85.592 104.317,87.333 103.292 C 89.075 102.267,91.175 101.054,92.000 100.596 C 92.825 100.138,94.775 99.013,96.333 98.095 C 97.892 97.178,99.842 96.051,100.667 95.592 C 101.492 95.133,103.863 93.762,105.936 92.545 C 108.009 91.329,109.756 90.333,109.818 90.333 C 109.881 90.333,110.919 89.733,112.127 89.000 C 113.334 88.267,114.425 87.667,114.551 87.667 C 114.677 87.667,115.018 87.463,115.307 87.213 C 115.597 86.964,116.658 86.311,117.667 85.762 C 118.675 85.213,120.294 84.292,121.265 83.716 C 122.235 83.139,123.123 82.667,123.238 82.667 C 123.353 82.667,123.684 82.463,123.974 82.213 C 124.263 81.964,125.325 81.311,126.333 80.762 C 127.342 80.213,128.961 79.292,129.931 78.716 C 130.902 78.139,131.790 77.667,131.905 77.667 C 132.020 77.667,132.351 77.463,132.640 77.213 C 132.930 76.964,133.992 76.311,135.000 75.762 C 136.008 75.213,137.627 74.292,138.598 73.716 C 139.569 73.139,140.457 72.667,140.572 72.667 C 140.687 72.667,141.018 72.463,141.307 72.213 C 141.597 71.964,142.658 71.311,143.667 70.762 C 144.675 70.213,146.294 69.292,147.265 68.716 C 148.235 68.139,149.123 67.667,149.238 67.667 C 149.353 67.667,149.684 67.463,149.974 67.213 C 150.466 66.789,151.885 65.974,156.333 63.560 C 157.342 63.013,158.392 62.384,158.667 62.163 C 159.138 61.783,160.741 60.871,165.000 58.560 C 166.008 58.013,167.058 57.384,167.333 57.163 C 167.805 56.783,169.408 55.871,173.667 53.560 C 174.675 53.013,175.725 52.384,176.000 52.163 C 176.471 51.783,178.074 50.871,182.333 48.560 C 183.342 48.013,184.392 47.381,184.667 47.155 C 184.942 46.930,186.967 45.741,189.167 44.513 C 191.367 43.285,193.767 41.912,194.500 41.462 C 198.954 38.725,200.828 38.659,204.745 41.101 " stroke="none" fill="#4c2cc4" fill-rule="evenodd"></path><path id="path2" d="" stroke="none" fill="#4c34c4" fill-rule="evenodd"></path><path id="path3" d="" stroke="none" fill="#8870dc" fill-rule="evenodd"></path><path id="path4" d="" stroke="none" fill="#6c40dc" fill-rule="evenodd"></path></g></svg>