<svg id="svg" version="1.1" xmlns="http://www.w3.org/2000/svg" xmlns:xlink="http://www.w3.org/1999/xlink" width="400" height="400" viewBox="0, 0, 400,400"><g id="svgg"><path id="path0" d="M163.625 135.391 C 135.824 139.167,114.701 161.918,113.331 189.563 L 113.173 192.750 171.823 192.750 C 240.590 192.750,237.574 192.870,247.042 189.751 C 270.046 182.174,286.750 159.814,286.750 136.599 L 286.750 135.000 226.438 135.026 C 177.131 135.047,165.669 135.113,163.625 135.391 M165.875 207.532 C 137.108 209.987,113.250 235.319,113.250 263.409 L 113.250 265.015 143.438 264.941 L 173.625 264.866 176.750 264.283 C 203.768 259.246,223.103 237.413,224.658 210.186 L 224.826 207.250 196.601 207.284 C 181.077 207.303,167.250 207.415,165.875 207.532 " stroke="none" fill="#f3c383" fill-rule="evenodd"></path><path id="path1" d="M0.000 200.000 L 0.000 400.000 200.000 400.000 L 400.000 400.000 400.000 200.000 L 400.000 0.000 200.000 0.000 L 0.000 0.000 0.000 200.000 M286.997 135.813 C 286.935 161.663,267.486 185.646,241.962 191.348 C 235.390 192.816,238.616 192.750,173.077 192.750 L 112.929 192.750 113.103 189.938 C 114.927 160.494,137.632 137.101,166.500 134.922 C 167.119 134.876,194.484 134.818,227.313 134.794 L 287.000 134.750 286.997 135.813 M224.869 209.563 C 223.018 238.292,203.694 259.807,175.375 264.667 C 173.129 265.052,169.829 265.104,142.938 265.183 L 113.000 265.271 113.003 264.198 C 113.065 238.138,132.893 213.935,158.625 208.508 C 164.330 207.305,164.377 207.303,195.571 207.276 L 225.018 207.250 224.869 209.563 " stroke="none" fill="#141414" fill-rule="evenodd"></path><path id="path2" d="M113.058 192.000 C 113.058 192.481,113.109 192.678,113.172 192.438 C 113.235 192.197,113.235 191.803,113.172 191.563 C 113.109 191.322,113.058 191.519,113.058 192.000 " stroke="none" fill="#846c4e" fill-rule="evenodd"></path><path id="path3" d="M198.833 134.937 C 215.034 134.973,241.472 134.973,257.583 134.937 C 273.693 134.902,260.438 134.873,228.125 134.873 C 195.813 134.873,182.631 134.902,198.833 134.937 M207.613 248.313 L 206.625 249.375 207.688 248.387 C 208.676 247.468,208.865 247.250,208.676 247.250 C 208.635 247.250,208.157 247.728,207.613 248.313 M126.937 265.187 C 134.534 265.224,146.966 265.224,154.562 265.187 C 162.159 265.151,155.944 265.121,140.750 265.121 C 125.556 265.121,119.341 265.151,126.937 265.187 " stroke="none" fill="#947454" fill-rule="evenodd"></path><path id="path4" d="M286.813 137.125 C 286.816 137.675,286.867 137.871,286.927 137.560 C 286.987 137.249,286.984 136.799,286.922 136.560 C 286.859 136.321,286.810 136.575,286.813 137.125 M269.741 175.938 L 268.375 177.375 269.813 176.009 C 271.148 174.739,271.365 174.500,271.179 174.500 C 271.140 174.500,270.493 175.147,269.741 175.938 M113.063 190.375 C 113.066 190.925,113.117 191.121,113.177 190.810 C 113.237 190.499,113.234 190.049,113.172 189.810 C 113.109 189.571,113.060 189.825,113.063 190.375 M224.813 208.125 C 224.816 208.675,224.867 208.871,224.927 208.560 C 224.987 208.249,224.984 207.799,224.922 207.560 C 224.859 207.321,224.810 207.575,224.813 208.125 M129.991 224.188 L 128.625 225.625 130.063 224.259 C 131.398 222.989,131.615 222.750,131.429 222.750 C 131.390 222.750,130.743 223.397,129.991 224.188 M113.063 262.875 C 113.066 263.425,113.117 263.621,113.177 263.310 C 113.237 262.999,113.234 262.549,113.172 262.310 C 113.109 262.071,113.060 262.325,113.063 262.875 " stroke="none" fill="#695241" fill-rule="evenodd"></path></g></svg>