<svg id="svg" version="1.1" xmlns="http://www.w3.org/2000/svg" xmlns:xlink="http://www.w3.org/1999/xlink" width="400" height="400" viewBox="0, 0, 400,400"><g id="svgg"><path id="path0" d="M195.072 141.006 C 182.249 144.366,175.934 158.276,181.873 170.081 C 183.270 172.857,187.268 177.116,189.583 178.293 L 191.000 179.014 191.000 237.090 L 191.000 295.166 175.155 279.321 L 159.311 263.476 159.861 261.326 C 165.373 239.811,135.464 226.929,123.059 245.475 C 112.874 260.704,127.341 281.313,144.890 276.577 L 146.613 276.111 167.056 296.556 L 187.498 317.000 198.249 317.000 L 209.000 317.000 209.000 301.416 L 209.000 285.831 230.929 263.904 L 252.858 241.977 255.012 242.542 C 272.938 247.240,287.296 226.612,276.796 211.245 C 264.094 192.655,236.095 205.185,240.101 227.667 L 240.368 229.167 224.684 244.832 L 209.000 260.497 209.004 219.832 L 209.008 179.167 210.872 178.000 C 230.175 165.918,217.073 135.242,195.072 141.006 " stroke="none" fill="#f3f3fb" fill-rule="evenodd"></path><path id="path1" d="M198.049 83.368 C 195.910 83.649,193.591 84.487,192.000 85.556 C 189.267 87.391,89.009 188.090,87.184 190.833 C 84.298 195.169,82.232 199.934,80.908 205.308 C 80.102 208.577,79.562 297.128,80.310 303.274 C 81.108 309.821,86.006 315.158,92.295 316.332 C 93.444 316.546,110.798 316.667,140.462 316.667 L 186.833 316.667 166.666 296.516 L 146.500 276.366 144.500 276.844 C 125.854 281.307,112.052 259.311,123.865 243.959 C 136.914 227.001,164.484 239.880,160.141 260.905 L 159.616 263.448 175.308 279.140 L 191.000 294.832 191.000 237.130 L 191.000 179.428 189.029 178.211 C 171.474 167.376,179.617 140.019,200.333 140.230 C 220.805 140.438,228.239 168.175,210.583 178.473 L 209.000 179.397 209.000 219.781 L 209.000 260.166 224.641 244.500 L 240.281 228.833 239.814 226.667 C 236.003 208.986,256.318 195.555,271.506 205.713 C 290.326 218.301,277.398 247.829,255.270 242.796 L 252.909 242.259 230.955 264.212 L 209.000 286.165 209.000 301.416 L 209.000 316.667 257.455 316.667 C 288.514 316.667,306.554 316.546,307.705 316.332 C 314.022 315.153,318.889 309.846,319.691 303.264 C 320.327 298.038,319.902 208.626,319.228 205.892 C 317.800 200.104,315.700 195.151,312.787 190.706 C 310.689 187.502,210.923 87.279,208.110 85.547 C 205.199 83.756,201.388 82.930,198.049 83.368 " stroke="none" fill="#14bcf4" fill-rule="evenodd"></path><path id="path2" d="M205.028 83.780 C 205.554 84.209,208.961 85.874,208.810 85.628 C 208.611 85.307,205.528 83.667,205.122 83.667 C 204.994 83.667,204.951 83.718,205.028 83.780 M192.500 84.714 C 190.937 85.517,89.569 186.654,87.975 189.000 C 87.157 190.205,87.137 190.271,87.871 189.333 C 90.580 185.878,191.268 85.677,192.833 84.880 C 193.750 84.413,194.350 84.031,194.167 84.030 C 193.983 84.030,193.233 84.338,192.500 84.714 M260.190 137.000 C 288.252 165.142,311.624 188.692,312.128 189.333 C 312.864 190.272,312.844 190.207,312.024 189.000 C 311.463 188.175,288.091 164.625,260.086 136.667 L 209.168 85.833 260.190 137.000 M179.433 160.667 C 179.433 161.675,179.496 162.087,179.572 161.583 C 179.648 161.079,179.648 160.254,179.572 159.750 C 179.496 159.246,179.433 159.658,179.433 160.667 M220.433 160.667 C 220.433 161.675,220.496 162.087,220.572 161.583 C 220.648 161.079,220.648 160.254,220.572 159.750 C 220.496 159.246,220.433 159.658,220.433 160.667 M214.333 175.167 C 213.524 175.992,212.936 176.667,213.028 176.667 C 213.120 176.667,213.857 175.992,214.667 175.167 C 215.476 174.342,216.064 173.667,215.972 173.667 C 215.880 173.667,215.143 174.342,214.333 175.167 M185.333 175.167 C 185.955 175.808,186.539 176.333,186.631 176.333 C 186.722 176.333,186.289 175.808,185.667 175.167 C 185.045 174.525,184.461 174.000,184.369 174.000 C 184.278 174.000,184.711 174.525,185.333 175.167 M313.691 191.833 C 314.103 192.567,314.583 193.317,314.758 193.500 C 315.257 194.023,314.116 191.911,313.497 191.167 C 313.192 190.800,313.280 191.100,313.691 191.833 M85.500 192.667 C 85.216 193.217,85.058 193.667,85.150 193.667 C 85.241 193.667,85.549 193.217,85.833 192.667 C 86.118 192.117,86.275 191.667,86.184 191.667 C 86.092 191.667,85.784 192.117,85.500 192.667 M239.433 222.667 C 239.433 223.675,239.496 224.088,239.572 223.583 C 239.648 223.079,239.648 222.254,239.572 221.750 C 239.496 221.246,239.433 221.658,239.433 222.667 M280.433 222.667 C 280.433 223.675,280.496 224.088,280.572 223.583 C 280.648 223.079,280.648 222.254,280.572 221.750 C 280.496 221.246,280.433 221.658,280.433 222.667 M119.433 256.667 C 119.433 257.675,119.496 258.087,119.572 257.583 C 119.648 257.079,119.648 256.254,119.572 255.750 C 119.496 255.246,119.433 255.658,119.433 256.667 M160.433 256.667 C 160.433 257.675,160.496 258.087,160.572 257.583 C 160.648 257.079,160.648 256.254,160.572 255.750 C 160.496 255.246,160.433 255.658,160.433 256.667 M159.360 263.001 C 159.345 263.277,166.496 270.627,175.250 279.335 L 191.167 295.167 175.453 279.333 C 166.810 270.625,159.660 263.275,159.562 263.000 C 159.406 262.556,159.383 262.557,159.360 263.001 M125.319 271.083 C 126.701 272.555,127.000 272.820,127.000 272.569 C 127.000 272.516,126.287 271.803,125.417 270.986 L 123.833 269.500 125.319 271.083 M82.235 309.943 C 82.927 311.228,85.802 314.047,87.009 314.625 L 87.833 315.019 87.000 314.440 C 85.932 313.698,82.980 310.750,82.222 309.667 C 81.694 308.914,81.696 308.941,82.235 309.943 M315.333 312.500 C 314.524 313.325,313.936 314.000,314.028 314.000 C 314.120 314.000,314.857 313.325,315.667 312.500 C 316.476 311.675,317.064 311.000,316.972 311.000 C 316.880 311.000,316.143 311.675,315.333 312.500 M116.750 316.917 C 129.721 316.965,150.946 316.965,163.917 316.917 C 176.887 316.868,166.275 316.829,140.333 316.829 C 114.392 316.829,103.779 316.868,116.750 316.917 M233.443 316.917 C 246.978 316.965,269.028 316.965,282.443 316.917 C 295.858 316.868,284.783 316.829,257.833 316.829 C 230.883 316.829,219.908 316.868,233.443 316.917 " stroke="none" fill="#68d2f4" fill-rule="evenodd"></path><path id="path3" d="M140.500 136.417 L 90.833 186.167 140.583 136.500 C 186.837 90.325,190.483 86.667,190.250 86.667 C 190.204 86.667,167.816 109.054,140.500 136.417 M166.667 296.500 C 177.757 307.592,186.906 316.667,186.998 316.667 C 187.090 316.667,178.091 307.592,167.000 296.500 C 155.909 285.408,146.760 276.333,146.669 276.333 C 146.577 276.333,155.576 285.408,166.667 296.500 " stroke="none" fill="#21c4f4" fill-rule="evenodd"></path><path id="path4" d="M224.499 244.750 L 208.833 260.500 224.583 244.835 C 233.246 236.219,240.333 229.131,240.333 229.085 C 240.333 228.850,239.059 230.110,224.499 244.750 M230.832 264.083 L 208.833 286.167 230.987 264.167 C 243.171 252.067,253.208 242.129,253.292 242.083 C 253.376 242.037,253.307 242.000,253.138 242.000 C 252.969 242.000,242.932 251.938,230.832 264.083 " stroke="none" fill="#43c9f4" fill-rule="evenodd"></path></g></svg>