<?xml version="1.0" encoding="UTF-8"?>
<svg version="1.1" xmlns="http://www.w3.org/2000/svg" width="708" height="531">
<path d="M0 0 C233.64 0 467.28 0 708 0 C708 175.23 708 350.46 708 531 C474.36 531 240.72 531 0 531 C0 355.77 0 180.54 0 0 Z " fill="#18BCF2" transform="translate(0,0)"/>
<path d="M0 0 C4.89313126 1.43647961 7.73056073 4.80472988 11.21728516 8.40966797 C11.9809137 9.17704285 12.74454224 9.94441772 13.53131104 10.73504639 C15.14186589 12.35903662 16.74521327 13.99020199 18.34179688 15.62792969 C20.78624049 18.13463973 23.25134346 20.61941588 25.72119141 23.10107422 C27.28364242 24.6818679 28.8448821 26.26385996 30.40478516 27.84716797 C31.14122253 28.5921051 31.87765991 29.33704224 32.63641357 30.10455322 C33.31762268 30.80497742 33.99883179 31.50540161 34.70068359 32.22705078 C35.29991638 32.83993958 35.89914917 33.45282837 36.51654053 34.08428955 C40.11732552 38.34661044 40.35314975 42.15695685 40.34619141 47.58154297 C40.35047653 48.32106201 40.35476166 49.06058105 40.35917664 49.82250977 C40.36490697 51.38247658 40.36542976 52.94247012 40.36108398 54.50244141 C40.35792077 56.88604312 40.38140861 59.26840679 40.40673828 61.65185547 C40.40901114 63.17008307 40.40971483 64.68831401 40.40869141 66.20654297 C40.41790115 66.91705811 40.4271109 67.62757324 40.43659973 68.35961914 C40.40925787 71.28964062 40.15214617 73.64186723 39.00585938 76.35009766 C36.00601846 78.71261247 32.96456818 78.38813475 29.31494141 78.28466797 C28.56452072 78.27900818 27.81410004 78.27334839 27.04093933 78.26751709 C24.64594512 78.24513965 22.25245147 78.19494468 19.85791016 78.14404297 C18.23358282 78.12397956 16.60923201 78.1057285 14.98486328 78.08935547 C11.00446808 78.04527091 7.02519345 77.97623724 3.04541016 77.89404297 C2.06458531 68.70719318 2.06458531 68.70719318 4.22900391 64.70605469 C5.89206318 62.7507402 7.63496818 61.04509245 9.54541016 59.33154297 C10.14611328 58.73019531 10.74681641 58.12884766 11.36572266 57.50927734 C15.6901771 53.40104563 19.17700659 51.88725729 25.04541016 50.89404297 C26.19690032 46.30324594 26.19690032 46.30324594 24.98291016 41.95654297 C22.17822687 40.41849084 20.1902694 40.50093556 17.04541016 40.89404297 C15.15190685 41.86925834 15.15190685 41.86925834 14.04541016 43.89404297 C13.81853516 44.94591797 13.59166016 45.99779297 13.35791016 47.08154297 C12.09748343 52.25592635 7.98628005 55.55946075 4.04541016 58.89404297 C3.71541016 58.89404297 3.38541016 58.89404297 3.04541016 58.89404297 C2.95850762 54.45666585 2.90505089 50.01950663 2.85791016 45.58154297 C2.83277344 44.31890625 2.80763672 43.05626953 2.78173828 41.75537109 C2.77207031 40.546875 2.76240234 39.33837891 2.75244141 38.09326172 C2.73673096 36.97781982 2.72102051 35.86237793 2.70483398 34.71313477 C3.09397438 31.49205651 3.74750096 30.99296586 6.04541016 28.89404297 C5.99474395 24.54895081 5.99474395 24.54895081 4.04541016 20.89404297 C-0.60547699 20.58880335 -0.60547699 20.58880335 -4.95458984 21.89404297 C-4.99583984 23.17279297 -5.03708984 24.45154297 -5.07958984 25.76904297 C-5.10279297 26.48833984 -5.12599609 27.20763672 -5.14990234 27.94873047 C-5.13790673 30.13267942 -5.13790673 30.13267942 -2.95458984 31.89404297 C-2.77926695 34.76292878 -2.72321371 37.53396942 -2.75927734 40.40185547 C-2.76210724 41.24247528 -2.76493713 42.08309509 -2.76785278 42.94918823 C-2.77906555 45.63928343 -2.80417181 48.32904807 -2.82958984 51.01904297 C-2.83961824 52.84065275 -2.84874433 54.66226774 -2.85693359 56.48388672 C-2.87900843 60.95406655 -2.9135455 65.42399868 -2.95458984 69.89404297 C-4.06010874 68.95813793 -5.16394438 68.02024439 -6.26708984 67.08154297 C-6.88197266 66.55947266 -7.49685547 66.03740234 -8.13037109 65.49951172 C-12.35723367 61.77951061 -13.43727702 59.45752333 -14.95458984 53.89404297 C-15.61458984 53.23404297 -16.27458984 52.57404297 -16.95458984 51.89404297 C-20.52051604 52.05821329 -20.52051604 52.05821329 -23.95458984 52.89404297 C-25.77355958 56.53198243 -25.20713187 60.13641689 -23.95458984 63.89404297 C-22.76865234 63.93529297 -21.58271484 63.97654297 -20.36083984 64.01904297 C-15.23085604 64.66142189 -12.81604124 67.17243607 -9.45458984 70.89404297 C-8.91833984 71.45349609 -8.38208984 72.01294922 -7.82958984 72.58935547 C-3.95458984 76.68182996 -3.95458984 76.68182996 -3.95458984 77.89404297 C-8.45693357 77.94349001 -12.95911914 77.97978458 -17.46166992 78.00390625 C-18.99327345 78.01396231 -20.52485779 78.02760897 -22.05639648 78.04492188 C-24.2581862 78.06918795 -26.45972203 78.08052984 -28.66162109 78.08935547 C-29.34609818 78.09967804 -30.03057526 78.11000061 -30.73579407 78.12063599 C-34.38520645 78.12149678 -35.82607486 77.97971962 -38.95458984 75.89404297 C-39.2715274 73.12644083 -39.39861037 70.58697358 -39.38818359 67.81591797 C-39.39342545 67.01172424 -39.3986673 66.20753052 -39.40406799 65.37896729 C-39.41049868 63.67420608 -39.40913767 61.96940057 -39.40063477 60.26464844 C-39.39216679 57.66764022 -39.42080003 55.0728625 -39.45263672 52.47607422 C-39.45424998 50.81852279 -39.45366881 49.16096749 -39.45068359 47.50341797 C-39.46191757 46.73132996 -39.47315155 45.95924194 -39.48472595 45.16375732 C-39.37088403 36.25805591 -33.71409874 31.32373218 -27.77490234 25.30810547 C-27.08451874 24.60632172 -26.39413513 23.90453796 -25.68283081 23.18148804 C-24.22821062 21.70805854 -22.77072622 20.23745177 -21.31054688 18.76953125 C-19.07954631 16.51899906 -16.87076305 14.24804003 -14.66162109 11.97607422 C-13.24237055 10.5437731 -11.82184053 9.11273842 -10.39990234 7.68310547 C-9.74345734 7.00196686 -9.08701233 6.32082825 -8.41067505 5.61904907 C-5.66659469 2.9012249 -3.731317 1.12907642 0 0 Z " fill="#EEF3F8" transform="translate(111.95458984375,227.10595703125)"/>
<path d="M0 0 C2.97 0 5.94 0 9 0 C9.30180176 0.825 9.60360352 1.65 9.91455078 2.5 C11.06254423 5.63717769 12.21103935 8.77417066 13.35995483 11.91101074 C13.86841633 13.29938708 14.37673833 14.68781451 14.88491821 16.07629395 C18.22232631 25.19346959 21.59217498 34.29625263 25.07421875 43.359375 C26 46 26 46 26 48 C23.03 48 20.06 48 17 48 C14 40.375 14 40.375 14 37 C7.73 37 1.46 37 -5 37 C-5.474375 38.629375 -5.94875 40.25875 -6.4375 41.9375 C-7.875 46.875 -7.875 46.875 -9 48 C-11.67058851 48.14115161 -14.32432238 48.04247107 -17 48 C-16.40986202 44.71461038 -15.61842519 41.72617251 -14.3984375 38.62109375 C-14.07625244 37.79134033 -13.75406738 36.96158691 -13.42211914 36.10668945 C-13.07656982 35.22585693 -12.73102051 34.34502441 -12.375 33.4375 C-9.14023494 25.08660754 -6.08483853 16.69057931 -3.17138672 8.22241211 C-2.89955566 7.43358643 -2.62772461 6.64476074 -2.34765625 5.83203125 C-2.11054932 5.13827393 -1.87344238 4.4445166 -1.62915039 3.72973633 C-1 2 -1 2 0 0 Z " fill="#EBF2F8" transform="translate(387,241)"/>
<path d="M0 0 C4.47129336 4.36223743 7.80281015 8.56731296 8.125 15 C7.74567542 20.64123728 6.01425267 25.21981467 1.83203125 29.109375 C-3.08342857 32.60219675 -7.51094145 33.48065357 -13.4375 32.5 C-17.9577176 31.25427074 -21.54735547 29.24648364 -24.4375 25.5 C-27.06952829 19.97274059 -27.64677795 13.31610467 -25.78515625 7.44140625 C-23.91938347 3.7178683 -21.36474573 1.02404161 -17.62890625 -0.83984375 C-11.70879603 -2.62326376 -5.64125842 -2.46164004 0 0 Z " fill="#E9F1F8" transform="translate(249.4375,257.5)"/>
<path d="M0 0 C2.64 0 5.28 0 8 0 C8 6.6 8 13.2 8 20 C15.26 20 22.52 20 30 20 C30 13.4 30 6.8 30 0 C32.64 0 35.28 0 38 0 C38 15.84 38 31.68 38 48 C35.36 48 32.72 48 30 48 C30 41.07 30 34.14 30 27 C22.74 27 15.48 27 8 27 C8 33.93 8 40.86 8 48 C5.36 48 2.72 48 0 48 C0 32.16 0 16.32 0 0 Z " fill="#EDF2F8" transform="translate(178,241)"/>
<path d="M0 0 C2.41534564 1.08453755 3.9518276 2.27522324 6 4 C6.598125 3.34 7.19625 2.68 7.8125 2 C12.42820728 -0.89613006 16.68310177 -0.95799968 22 0 C25.125 2.4375 25.125 2.4375 27 5 C27.495 5.495 27.495 5.495 28 6 C28.08758003 7.99964982 28.10696576 10.0023611 28.09765625 12.00390625 C28.09443359 13.21884766 28.09121094 14.43378906 28.08789062 15.68554688 C28.07532227 17.60463867 28.07532227 17.60463867 28.0625 19.5625 C28.05798828 20.84576172 28.05347656 22.12902344 28.04882812 23.45117188 C28.03699545 26.63416022 28.02051068 29.81705762 28 33 C25.69 33 23.38 33 21 33 C20.970271 32.02389771 20.970271 32.02389771 20.93994141 31.02807617 C20.84470701 28.08080849 20.73502182 25.13425115 20.625 22.1875 C20.5940625 21.16333984 20.563125 20.13917969 20.53125 19.08398438 C20.47324219 17.60961914 20.47324219 17.60961914 20.4140625 16.10546875 C20.3826416 15.19949951 20.3512207 14.29353027 20.31884766 13.36010742 C20.13972081 10.73474608 20.13972081 10.73474608 18 8 C16.098006 7.52441794 16.098006 7.52441794 14 7.625 C12.948125 7.61339844 12.948125 7.61339844 11.875 7.6015625 C9.58941406 7.859086 9.58941406 7.859086 8 11 C7.6336141 13.41713479 7.6336141 13.41713479 7.5859375 16.10546875 C7.54726563 17.08837891 7.50859375 18.07128906 7.46875 19.08398438 C7.4378125 20.10814453 7.406875 21.13230469 7.375 22.1875 C7.33632813 23.22326172 7.29765625 24.25902344 7.2578125 25.32617188 C7.16351704 27.88393622 7.07791798 30.44169287 7 33 C4.69 33 2.38 33 0 33 C-0.01401855 31.97845825 -0.01401855 31.97845825 -0.02832031 30.9362793 C-0.08198131 27.85261353 -0.16563551 24.77047206 -0.25 21.6875 C-0.26417969 20.61564453 -0.27835937 19.54378906 -0.29296875 18.43945312 C-0.32519531 17.41142578 -0.35742188 16.38339844 -0.390625 15.32421875 C-0.41157227 14.37635498 -0.43251953 13.42849121 -0.45410156 12.4519043 C-0.79812499 9.87214591 -0.79812499 9.87214591 -2.84277344 8.15942383 C-5.0512868 6.73691795 -5.0512868 6.73691795 -8.125 7.125 C-11.29705826 7.75821957 -11.29705826 7.75821957 -13 11 C-13.3663859 13.41713479 -13.3663859 13.41713479 -13.4140625 16.10546875 C-13.47207031 17.57983398 -13.47207031 17.57983398 -13.53125 19.08398438 C-13.5621875 20.10814453 -13.593125 21.13230469 -13.625 22.1875 C-13.68300781 23.74114258 -13.68300781 23.74114258 -13.7421875 25.32617188 C-13.83648296 27.88393622 -13.92208202 30.44169287 -14 33 C-16.64 33 -19.28 33 -22 33 C-22 22.44 -22 11.88 -22 1 C-18.66666667 1 -15.33333333 1 -12 1 C-8.29929304 -0.85035348 -4.03844746 -0.4754747 0 0 Z " fill="#EBF2F8" transform="translate(284,256)"/>
<path d="M0 0 C3.40920514 2.411389 5.69634878 5.08019755 7.5625 8.8125 C7.5625 12.1125 7.5625 15.4125 7.5625 18.8125 C-0.3575 18.8125 -8.2775 18.8125 -16.4375 18.8125 C-15.10186384 23.75713635 -15.10186384 23.75713635 -12.4375 24.8125 C-6.89400621 25.17014476 -4.83187926 25.1815241 -0.4375 21.8125 C2.8125 22.125 2.8125 22.125 5.5625 22.8125 C5.5625 25 5.5625 25 4.5625 27.8125 C0.74582432 31.49962795 -3.285813 33.15147922 -8.5625 33.375 C-13.18414558 33.11981712 -15.91126682 31.91894351 -19.4375 28.8125 C-24.2104766 23.39452656 -24.84511026 20.0681214 -24.78515625 12.93359375 C-24.1460799 7.19626785 -21.41726138 3.67580483 -17.3125 -0.1875 C-11.58558468 -2.17947055 -5.69687855 -1.96801259 0 0 Z " fill="#E8F1F8" transform="translate(342.4375,257.1875)"/>
<path d="M0 0 C3.24830647 1.1545546 5.25170388 2.82737899 7.13232422 5.77441406 C8.22910278 8.58764799 8.22609744 10.84245109 8.1953125 13.859375 C8.18886719 14.97441406 8.18242188 16.08945312 8.17578125 17.23828125 C8.15902344 18.39714844 8.14226563 19.55601562 8.125 20.75 C8.11597656 21.92433594 8.10695313 23.09867187 8.09765625 24.30859375 C8.07410063 27.20593536 8.04120652 30.10286441 8 33 C5.69 33 3.38 33 1 33 C1 32.01 1 31.02 1 30 C0.195625 30.66 -0.60875 31.32 -1.4375 32 C-5.45621249 34.66014065 -9.32029442 34.85237495 -14 34 C-19.46341463 31.07317073 -19.46341463 31.07317073 -21 28 C-21.42071592 24.94079426 -21.48514117 22.0532254 -21 19 C-18.81840855 16.24430553 -17.12822506 14.56411253 -14 13 C-11.62597499 12.92883618 -9.24999323 12.91590915 -6.875 12.9375 C-5.59367188 12.94652344 -4.31234375 12.95554687 -2.9921875 12.96484375 C-2.00476563 12.97644531 -1.01734375 12.98804688 0 13 C-1.08784968 9.75016865 -1.08784968 9.75016865 -3 7 C-8.02587149 6.62068894 -10.08978575 7.00216907 -14 10 C-16.75 9.6875 -16.75 9.6875 -19 9 C-19.33 8.01 -19.66 7.02 -20 6 C-13.55511244 -0.61448987 -9.14984971 -0.81159056 0 0 Z " fill="#E8F1F8" transform="translate(565,256)"/>
<path d="M0 0 C3.17282395 1.66019858 5.37590133 3.75180266 7 7 C7.08510205 8.9593604 7.10717656 10.92162794 7.09765625 12.8828125 C7.09443359 14.04941406 7.09121094 15.21601563 7.08789062 16.41796875 C7.07951172 17.64128906 7.07113281 18.86460937 7.0625 20.125 C7.05798828 21.35605469 7.05347656 22.58710938 7.04882812 23.85546875 C7.0370133 26.90369392 7.02054028 29.95182314 7 33 C4.69 33 2.38 33 0 33 C-0.01458252 32.34926514 -0.02916504 31.69853027 -0.04418945 31.02807617 C-0.11864549 28.08061694 -0.21531266 25.13429358 -0.3125 22.1875 C-0.33505859 21.16333984 -0.35761719 20.13917969 -0.38085938 19.08398438 C-0.4340332 17.60961914 -0.4340332 17.60961914 -0.48828125 16.10546875 C-0.51446533 15.19949951 -0.54064941 14.29353027 -0.56762695 13.36010742 C-1.07991744 10.56377079 -1.70201413 9.64075326 -4 8 C-8.6010271 7.41431271 -8.6010271 7.41431271 -12.68676758 9.2043457 C-14.42550166 11.58181162 -14.42704141 13.17563285 -14.51171875 16.10546875 C-14.54716797 17.08837891 -14.58261719 18.07128906 -14.61914062 19.08398438 C-14.65297852 20.62022461 -14.65297852 20.62022461 -14.6875 22.1875 C-14.72166016 23.22326172 -14.75582031 24.25902344 -14.79101562 25.32617188 C-14.87352642 27.8840066 -14.94266572 30.44149723 -15 33 C-17.64 33 -20.28 33 -23 33 C-23 22.44 -23 11.88 -23 1 C-20.69 1 -18.38 1 -16 1 C-15.67 1.66 -15.34 2.32 -15 3 C-14.45085938 2.5153125 -13.90171875 2.030625 -13.3359375 1.53125 C-9.22516931 -1.16343416 -4.73366315 -0.75246091 0 0 Z " fill="#ECF2F8" transform="translate(603,256)"/>
<path d="M0 0 C3.64413886 1.41303343 4.60530964 2.19182449 6.3125 5.6875 C6.6528125 6.8321875 6.6528125 6.8321875 7 8 C6 9 6 9 3.0625 9.1875 C0 9 0 9 -2 7 C-5.08347826 6.83318891 -5.08347826 6.83318891 -8 7 C-8 8.65 -8 10.3 -8 12 C-6.77023437 12.34611328 -6.77023437 12.34611328 -5.515625 12.69921875 C3.24946695 15.35181237 3.24946695 15.35181237 6.75 18.375 C8.29465884 21.61878356 8.59199921 23.44800473 8 27 C5.7747269 30.49685773 3.8163286 32.45283975 0 34 C-4.5588558 34.57078357 -8.68873423 34.55798544 -12.9375 32.75 C-15.03213311 30.97273554 -16.56464464 29.34189559 -18 27 C-18 26.34 -18 25.68 -18 25 C-14.6875 24.3125 -14.6875 24.3125 -11 24 C-10 25 -9 26 -8 27 C-4.35458155 26.76522801 -4.35458155 26.76522801 -1 26 C-1 24.68 -1 23.36 -1 22 C-1.66386719 21.82984375 -2.32773437 21.6596875 -3.01171875 21.484375 C-8.14269378 20.07616579 -12.13937572 18.86062428 -16 15 C-17.55024464 11.89951072 -17.28992015 9.42105782 -17 6 C-12.48114883 -0.92890513 -7.76870474 -0.61745486 0 0 Z " fill="#E9F1F8" transform="translate(463,256)"/>
<path d="M0 0 C1.43472656 -0.02126953 1.43472656 -0.02126953 2.8984375 -0.04296875 C5.71850283 0.19540353 7.28031337 0.63298309 9.625 2.1875 C11.625 5.1875 11.625 5.1875 11.25 7.375 C10.940625 8.2721875 10.940625 8.2721875 10.625 9.1875 C8.645 9.1875 6.665 9.1875 4.625 9.1875 C4.625 8.5275 4.625 7.8675 4.625 7.1875 C1.655 7.1875 -1.315 7.1875 -4.375 7.1875 C-3.84508668 9.65478922 -3.84508668 9.65478922 -2.375 12.1875 C0.62235949 13.76875864 0.62235949 13.76875864 4.125 14.8125 C10.42651229 16.88976843 10.42651229 16.88976843 12.625 20.1875 C13.41493519 27.18406881 13.41493519 27.18406881 10.3125 31.125 C5.47454545 34.83784884 0.51342906 34.83669016 -5.375 34.1875 C-8.9375 32.5625 -8.9375 32.5625 -11.375 30.1875 C-12.25 26.9375 -12.25 26.9375 -12.375 24.1875 C-9.0625 24 -9.0625 24 -5.375 24.1875 C-3.75 25.6875 -3.75 25.6875 -2.375 27.1875 C0.25070704 27.43819913 0.25070704 27.43819913 2.625 27.1875 C2.955 25.5375 3.285 23.8875 3.625 22.1875 C3.03332031 22.00574219 2.44164062 21.82398438 1.83203125 21.63671875 C-8.90153121 18.22229024 -8.90153121 18.22229024 -11.6875 14.375 C-12.62869786 11.38027955 -12.82164358 9.31400508 -12.375 6.1875 C-8.37518088 1.4508721 -6.07515224 0.04071818 0 0 Z " fill="#E8F1F8" transform="translate(428.375,255.8125)"/>
<path d="M0 0 C2.25046033 2.10526934 3.06550528 3.87942685 3.9375 6.8125 C0.5625 7.4375 0.5625 7.4375 -3.0625 7.8125 C-3.7225 7.1525 -4.3825 6.4925 -5.0625 5.8125 C-8.14597826 5.64568891 -8.14597826 5.64568891 -11.0625 5.8125 C-11.3925 7.1325 -11.7225 8.4525 -12.0625 9.8125 C-11.0725 10.225 -10.0825 10.6375 -9.0625 11.0625 C-6.2423928 12.27687269 -3.45358216 13.5418882 -0.6875 14.875 C-0.01976562 15.19597656 0.64796875 15.51695312 1.3359375 15.84765625 C2.9375 16.8125 2.9375 16.8125 3.9375 18.8125 C4.35059049 21.86936964 4.43659413 24.76368586 3.9375 27.8125 C0.13302442 31.81721114 -2.91583412 32.98492261 -8.3125 33.125 C-13.33954046 33.06562551 -16.37815862 32.49684138 -20.0625 28.8125 C-20.9375 25.5625 -20.9375 25.5625 -21.0625 22.8125 C-17.75 22.625 -17.75 22.625 -14.0625 22.8125 C-13.5675 23.328125 -13.0725 23.84375 -12.5625 24.375 C-12.0675 24.849375 -11.5725 25.32375 -11.0625 25.8125 C-7.41708155 25.57772801 -7.41708155 25.57772801 -4.0625 24.8125 C-3.7325 23.4925 -3.4025 22.1725 -3.0625 20.8125 C-4.14917969 20.57466797 -4.14917969 20.57466797 -5.2578125 20.33203125 C-16.12335674 17.70981324 -16.12335674 17.70981324 -20.0625 12.8125 C-20.90776373 9.60632722 -20.90323986 7.01890788 -20.0625 3.8125 C-15.08970725 -2.7730904 -7.40460437 -2.87117312 0 0 Z " fill="#EAF1F8" transform="translate(512.0625,257.1875)"/>
<path d="M0 0 C2.64 0 5.28 0 8 0 C8 3.63 8 7.26 8 11 C10.31 11 12.62 11 15 11 C15 12.98 15 14.96 15 17 C12.69 17 10.38 17 8 17 C8.33 22.94 8.66 28.88 9 35 C10.98 35.66 12.96 36.32 15 37 C15.33 39.31 15.66 41.62 16 44 C6.21414538 44.57563851 6.21414538 44.57563851 2 41 C0.14230579 37.98642522 -0.24036774 35.74868381 -0.1953125 32.234375 C-0.18564453 30.90019531 -0.18564453 30.90019531 -0.17578125 29.5390625 C-0.15902344 28.61867188 -0.14226563 27.69828125 -0.125 26.75 C-0.11597656 25.81414062 -0.10695313 24.87828125 -0.09765625 23.9140625 C-0.07413636 21.60911343 -0.04126853 19.3046884 0 17 C-1.65 17 -3.3 17 -5 17 C-5 15.02 -5 13.04 -5 11 C-3.35 11 -1.7 11 0 11 C0 7.37 0 3.74 0 0 Z " fill="#EAF2F8" transform="translate(619,246)"/>
<path d="M0 0 C2.31 0 4.62 0 7 0 C7 3.3 7 6.6 7 10 C9.64 10 12.28 10 15 10 C15 11.98 15 13.96 15 16 C12.69 16 10.38 16 8 16 C8.33 22.27 8.66 28.54 9 35 C10.98 35.33 12.96 35.66 15 36 C15.38133299 37.9914056 15.71325582 39.99279077 16 42 C14.44014791 43.55985209 12.91093902 43.24452344 10.75 43.3125 C7.2073069 43.28429384 6.11909696 43.0744356 3 41.125 C0.07304036 38.01510538 -0.12274263 36.37527625 -0.09765625 32.2109375 C-0.09282227 30.79941406 -0.09282227 30.79941406 -0.08789062 29.359375 C-0.07951172 28.37453125 -0.07113281 27.3896875 -0.0625 26.375 C-0.05798828 25.38242187 -0.05347656 24.38984375 -0.04882812 23.3671875 C-0.03702145 20.9113984 -0.020554 18.45572896 0 16 C-1.65 16 -3.3 16 -5 16 C-5 14.02 -5 12.04 -5 10 C-3.35 10 -1.7 10 0 10 C0 6.7 0 3.4 0 0 Z " fill="#EAF2F8" transform="translate(524,247)"/>
<path d="M0 0 C3.72569693 1.051608 5.06356223 3.32604445 6.9375 6.546875 C7.65523857 11.01280388 7.26516948 12.95706994 5.0625 16.921875 C2.42295839 20.18248522 1.76926775 20.43701888 -2.375 20.984375 C-6.0625 20.546875 -6.0625 20.546875 -9 18.109375 C-11.38547077 14.76496083 -11.79912465 11.72336953 -11.5390625 7.671875 C-10.18346886 1.62726076 -5.69647504 -0.38839603 0 0 Z " fill="#1DBDF2" transform="translate(242.0625,262.453125)"/>
<path d="M0 0 C2.64 0 5.28 0 8 0 C8 10.89 8 21.78 8 33 C5.36 33 2.72 33 0 33 C0 22.11 0 11.22 0 0 Z " fill="#E3F0F8" transform="translate(477,256)"/>
<path d="M0 0 C2.67394998 3.17196359 3.92531217 6.18852149 5.1875 10.125 C5.53167969 11.17945313 5.87585938 12.23390625 6.23046875 13.3203125 C7 16 7 16 7 18 C2.71 18 -1.58 18 -6 18 C-5.26810963 13.60865776 -4.51678753 10.26386649 -3 6.1875 C-2.649375 5.23230469 -2.29875 4.27710938 -1.9375 3.29296875 C-1 1 -1 1 0 0 Z " fill="#23BEF2" transform="translate(391,253)"/>
<path d="M0 0 C2.875 1.75 2.875 1.75 5 4 C5 5.32 5 6.64 5 8 C-0.28 8 -5.56 8 -11 8 C-10 3 -10 3 -8.3125 1.1875 C-5.24756099 -0.3863876 -3.40910465 -0.48701495 0 0 Z " fill="#1EBDF2" transform="translate(337,262)"/>
<path d="M0 0 C0.99773438 0.02320313 1.99546875 0.04640625 3.0234375 0.0703125 C4.52777344 0.09738281 4.52777344 0.09738281 6.0625 0.125 C6.83335937 0.14820313 7.60421875 0.17140625 8.3984375 0.1953125 C8.53125 2.55078125 8.53125 2.55078125 8.3984375 5.1953125 C5.72152191 8.10842652 4.1598869 9.10573022 0.2109375 9.5703125 C-2.6015625 9.1953125 -2.6015625 9.1953125 -4.6015625 7.1953125 C-4.8515625 4.6953125 -4.8515625 4.6953125 -4.6015625 2.1953125 C-2.6015625 0.1953125 -2.6015625 0.1953125 0 0 Z " fill="#1BBCF2" transform="translate(556.6015625,274.8046875)"/>
<path d="M0 0 C2.4375 0.875 2.4375 0.875 4.4375 3.875 C4.0625 6.5625 4.0625 6.5625 3.4375 8.875 C0.0625 9.5 0.0625 9.5 -3.5625 9.875 C-5.5625 7.875 -5.5625 7.875 -5.875 5.4375 C-5.5625 2.875 -5.5625 2.875 -4.375 1 C-2.5625 -0.125 -2.5625 -0.125 0 0 Z " fill="#E4F0F8" transform="translate(481.5625,240.125)"/>
</svg>
